<svg id="Layer_1" data-name="Layer 1" xmlns="http://www.w3.org/2000/svg" xmlns:xlink="http://www.w3.org/1999/xlink" viewBox="0 0 444 46.66"><defs><style>.cls-1{fill:url(#linear-gradient);}</style><linearGradient id="linear-gradient" x1="90.34" y1="573.34" x2="534.34" y2="573.34" gradientUnits="userSpaceOnUse"><stop offset="0" stop-color="#515f80"/><stop offset="1" stop-color="#f7faff"/></linearGradient></defs><path class="cls-1" d="M104.79,596.67h-7a7.46,7.46,0,0,1-7.46-7.46V557.48A7.46,7.46,0,0,1,97.8,550h7a7.47,7.47,0,0,1,7.47,7.47v31.73A7.47,7.47,0,0,1,104.79,596.67Zm35.6-7.46V557.48a7.46,7.46,0,0,0-7.46-7.47h-7a7.46,7.46,0,0,0-7.46,7.47v31.73a7.46,7.46,0,0,0,7.46,7.46h7A7.46,7.46,0,0,0,140.39,589.21Zm28.14,0V557.48a7.46,7.46,0,0,0-7.46-7.47h-7a7.46,7.46,0,0,0-7.46,7.47v31.73a7.46,7.46,0,0,0,7.46,7.46h7A7.46,7.46,0,0,0,168.53,589.21Zm28.14,0V557.48a7.46,7.46,0,0,0-7.46-7.47h-7a7.46,7.46,0,0,0-7.46,7.47v31.73a7.46,7.46,0,0,0,7.46,7.46h7A7.46,7.46,0,0,0,196.67,589.21Zm28.14,0V557.48a7.46,7.46,0,0,0-7.46-7.47h-7a7.47,7.47,0,0,0-7.47,7.47v31.73a7.47,7.47,0,0,0,7.47,7.46h7A7.46,7.46,0,0,0,224.81,589.21Zm28.14,0V557.48a7.46,7.46,0,0,0-7.47-7.47h-7a7.47,7.47,0,0,0-7.47,7.47v31.73a7.47,7.47,0,0,0,7.47,7.46h7A7.46,7.46,0,0,0,253,589.21Zm28.14,0V557.48a7.46,7.46,0,0,0-7.47-7.47h-7a7.46,7.46,0,0,0-7.47,7.47v31.73a7.46,7.46,0,0,0,7.47,7.46h7A7.46,7.46,0,0,0,281.09,589.21Zm28.14,0V557.48a7.46,7.46,0,0,0-7.47-7.47h-7a7.46,7.46,0,0,0-7.47,7.47v31.73a7.46,7.46,0,0,0,7.47,7.46h7A7.46,7.46,0,0,0,309.23,589.21Zm28.14,0V557.48A7.47,7.47,0,0,0,329.9,550h-7a7.46,7.46,0,0,0-7.47,7.47v31.73a7.46,7.46,0,0,0,7.47,7.46h7A7.47,7.47,0,0,0,337.37,589.21Zm28.14,0V557.48A7.47,7.47,0,0,0,358,550h-7a7.46,7.46,0,0,0-7.46,7.47v31.73a7.46,7.46,0,0,0,7.46,7.46h7A7.47,7.47,0,0,0,365.51,589.21Zm28.13,0V557.48a7.46,7.46,0,0,0-7.46-7.47h-7a7.46,7.46,0,0,0-7.46,7.47v31.73a7.46,7.46,0,0,0,7.46,7.46h7A7.46,7.46,0,0,0,393.64,589.21Zm28.14,0V557.48a7.46,7.46,0,0,0-7.46-7.47h-7a7.46,7.46,0,0,0-7.46,7.47v31.73a7.46,7.46,0,0,0,7.46,7.46h7A7.46,7.46,0,0,0,421.78,589.21Zm28.14,0V557.48a7.46,7.46,0,0,0-7.46-7.47h-7a7.46,7.46,0,0,0-7.46,7.47v31.73a7.46,7.46,0,0,0,7.46,7.46h7A7.46,7.46,0,0,0,449.92,589.21Zm28.14,0V557.48A7.46,7.46,0,0,0,470.6,550h-7a7.47,7.47,0,0,0-7.47,7.47v31.73a7.47,7.47,0,0,0,7.47,7.46h7A7.46,7.46,0,0,0,478.06,589.21Zm28.14,0V557.48a7.46,7.46,0,0,0-7.47-7.47h-7a7.47,7.47,0,0,0-7.47,7.47v31.73a7.47,7.47,0,0,0,7.47,7.46h7A7.46,7.46,0,0,0,506.2,589.21Zm28.14,0V557.48a7.46,7.46,0,0,0-7.47-7.47h-7a7.47,7.47,0,0,0-7.47,7.47v31.73a7.47,7.47,0,0,0,7.47,7.46h7A7.46,7.46,0,0,0,534.34,589.21Z" transform="translate(-90.34 -550.01)"/></svg>