<svg xmlns="http://www.w3.org/2000/svg" xmlns:xlink="http://www.w3.org/1999/xlink" viewBox="0 0 360 360"><defs><style>.cls-1{fill:url(#linear-gradient);}.cls-2,.cls-3,.cls-4,.cls-5,.cls-6,.cls-7{isolation:isolate;}.cls-2,.cls-3,.cls-4,.cls-6,.cls-7{font-size:13.23px;font-family:TransatTextLight, Transat Text;}.cls-2,.cls-3,.cls-4,.cls-6,.cls-7,.cls-8{fill:#f7faff;}.cls-3{letter-spacing:-0.03em;}.cls-4{letter-spacing:-0.03em;}.cls-6{letter-spacing:-0.02em;}.cls-7{letter-spacing:-0.01em;}</style><linearGradient id="linear-gradient" y1="180" x2="360" y2="180" gradientUnits="userSpaceOnUse"><stop offset="0" stop-color="#1b1e29"/><stop offset="1" stop-color="#10131a"/></linearGradient></defs><g id="Background"><rect class="cls-1" width="360" height="360"/></g><g id="MCG"><text class="cls-2" transform="translate(84.12 230.94)">MEDIC</text><text class="cls-3" transform="translate(124.82 230.94)">AL</text><text class="cls-4" transform="translate(143.89 230.94)">C</text><g class="cls-5"><text class="cls-2" transform="translate(153.04 230.94)">OMP</text><text class="cls-6" transform="translate(182.39 230.94)">L</text></g><g class="cls-5"><text class="cls-6" transform="translate(189.2 230.94)">I</text><text class="cls-7" transform="translate(192.33 230.94)">A</text></g><text class="cls-2" transform="translate(201.53 230.94)">NCE G</text><text class="cls-6" transform="translate(241.53 230.94)">R</text><text class="cls-2" transform="translate(249.14 230.94)">OUP</text><path class="cls-8" d="M276.72,125.57H83.28A2.29,2.29,0,0,0,81,127.85v76.27a2.27,2.27,0,0,0,2.27,2.28H212.73a8.22,8.22,0,0,0,8.08,6.86h12.32a2.72,2.72,0,0,0,2.71-2.72h0v-1.35a1.36,1.36,0,0,0-2.71,0v1.35H221a5.57,5.57,0,0,1-5.62-4.95,5.48,5.48,0,0,1,4.93-6h0c.18,0,.34,0,.52,0h12.31v1.36a1.36,1.36,0,0,0,2.71,0v-1.36a2.71,2.71,0,0,0-2.71-2.71H220.81a8.2,8.2,0,0,0-8.08,6.84h-129V128.3h192.6v75.41H262.39a7.2,7.2,0,1,0,0,2.71h14.33a2.28,2.28,0,0,0,2.28-2.28V127.85A2.28,2.28,0,0,0,276.72,125.57Zm-21.42,84a4.49,4.49,0,1,1,4.5-4.49A4.48,4.48,0,0,1,255.3,209.54Z"/><path class="cls-8" d="M98.83,190.7V138.08h2.76l22.59,27.55,22.6-27.55h2.68V190.7h-9.89v-29l-14.92,18.62h-.9L108.84,162v28.66Z"/><path class="cls-8" d="M206.65,183.31c-3.21,3.4-9.32,8.43-20.73,8.43-15.36,0-27.44-11.59-27.44-27.12,0-16.32,13.42-26.82,27.89-26.82a28.31,28.31,0,0,1,20.14,7.76l-6.09,7.24c-2.17-2.14-7-6.06-13.87-6.06-9.84,0-17.23,7.91-17.23,17.8,0,9.6,6.56,18.1,17.36,18.1a20.7,20.7,0,0,0,13.88-5.84Z"/><path class="cls-8" d="M242.44,163h18.74v19.82c-6.81,6.93-14,8.9-22.32,8.9-16.55,0-28.33-12-28.33-27.12,0-15.87,13.11-26.81,27.59-26.81,10.59,0,16.55,4.22,20.43,7.84l-6.27,7.17a18.88,18.88,0,0,0-13.8-6c-9.61,0-17.07,7.83-17.07,17.66,0,11,7.29,18.41,18.07,18.41,4.25,0,9.61-1.63,11.93-3.84v-7.61h-9Z"/><path class="cls-8" d="M271.28,193.74a1,1,0,0,1-1,1h-2.63v2.64a1,1,0,0,1-2,0v-2.61H263a1,1,0,1,1-.13-2h2.76v-2.63a1,1,0,0,1,2,0v2.63h2.63A1,1,0,0,1,271.28,193.74Z"/></g></svg>