<svg xmlns="http://www.w3.org/2000/svg" xmlns:xlink="http://www.w3.org/1999/xlink" viewBox="0 0 360 360"><defs><style>.cls-1{fill:url(#linear-gradient);}.cls-2,.cls-3,.cls-4,.cls-5,.cls-6,.cls-7{isolation:isolate;}.cls-2,.cls-3,.cls-4,.cls-6,.cls-7{font-size:10.83px;font-family:TransatTextLight, Transat Text;}.cls-2,.cls-3,.cls-4,.cls-6,.cls-7,.cls-8{fill:#f7faff;}.cls-3{letter-spacing:-0.03em;}.cls-4{letter-spacing:-0.03em;}.cls-6{letter-spacing:-0.02em;}.cls-7{letter-spacing:-0.01em;}</style><linearGradient id="linear-gradient" y1="180" x2="360" y2="180" gradientUnits="userSpaceOnUse"><stop offset="0" stop-color="#1b1e29"/><stop offset="1" stop-color="#10131a"/></linearGradient></defs><g id="Background"><rect class="cls-1" width="360" height="360"/></g><g id="MCG"><text class="cls-2" transform="translate(101.55 221.68)">MEDIC</text><text class="cls-3" transform="translate(134.85 221.68)">AL</text><text class="cls-4" transform="translate(150.45 221.68)">C</text><g class="cls-5"><text class="cls-2" transform="translate(157.94 221.68)">OMP</text><text class="cls-6" transform="translate(181.96 221.68)">L</text></g><g class="cls-5"><text class="cls-6" transform="translate(187.53 221.68)">I</text><text class="cls-7" transform="translate(190.08 221.68)">A</text></g><text class="cls-2" transform="translate(197.62 221.68)">NCE G</text><text class="cls-6" transform="translate(230.34 221.68)">R</text><text class="cls-2" transform="translate(236.57 221.68)">OUP</text><path class="cls-8" d="M259.13,135.47H100.86A1.87,1.87,0,0,0,99,137.34v62.4a1.86,1.86,0,0,0,1.86,1.86H206.78a6.73,6.73,0,0,0,6.61,5.61h10.08a2.22,2.22,0,0,0,2.22-2.22h0v-1.11a1.13,1.13,0,0,0-1.18-1,1.12,1.12,0,0,0-1,1V205h-9.94a4.56,4.56,0,0,1-4.6-4.05,4.49,4.49,0,0,1,4-4.9h0l.42,0h10.07v1.11a1.12,1.12,0,0,0,1.18,1.05,1.1,1.1,0,0,0,1-1.05V196a2.22,2.22,0,0,0-2.22-2.22H213.39a6.73,6.73,0,0,0-6.61,5.6H101.2V137.7H258.77v61.7H247.41a5.9,5.9,0,1,0,0,2.21h11.72a1.87,1.87,0,0,0,1.87-1.86V137.34A1.86,1.86,0,0,0,259.13,135.47Zm-17.52,68.7a3.68,3.68,0,1,1,3.68-3.68A3.67,3.67,0,0,1,241.61,204.17Z"/><path class="cls-8" d="M113.59,188.75V145.7h2.26l18.48,22.54,18.49-22.54H155v43.05h-8.09V165l-12.2,15.24H134l-12.2-14.95v23.45Z"/><path class="cls-8" d="M201.81,182.71c-2.63,2.78-7.63,6.9-17,6.9-12.57,0-22.46-9.49-22.46-22.19,0-13.36,11-21.94,22.82-21.94a23.18,23.18,0,0,1,16.48,6.34l-5,5.93a16.47,16.47,0,0,0-11.35-5c-8.05,0-14.1,6.47-14.1,14.56,0,7.86,5.37,14.81,14.21,14.81a16.9,16.9,0,0,0,11.35-4.78Z"/><path class="cls-8" d="M231.09,166.09h15.33V182.3c-5.57,5.67-11.49,7.28-18.26,7.28-13.55,0-23.18-9.79-23.18-22.19,0-13,10.73-21.93,22.57-21.93,8.67,0,13.55,3.45,16.72,6.41l-5.13,5.86a15.44,15.44,0,0,0-11.29-4.94c-7.87,0-14,6.4-14,14.45,0,9,6,15.06,14.78,15.06,3.48,0,7.87-1.33,9.77-3.14v-6.23h-7.34Z"/><path class="cls-8" d="M254.68,191.24a.81.81,0,0,1-.82.82h-2.15v2.16a.82.82,0,0,1-.9.74.83.83,0,0,1-.75-.74v-2.14h-2.15a.82.82,0,1,1-.11-1.64h2.26v-2.15a.83.83,0,0,1,1.65,0v2.15h2.15A.81.81,0,0,1,254.68,191.24Z"/></g></svg>