<svg xmlns="http://www.w3.org/2000/svg" xmlns:xlink="http://www.w3.org/1999/xlink" viewBox="0 0 360 360"><defs><style>.cls-1{fill:url(#linear-gradient);}.cls-2{fill:#f7faff;}</style><linearGradient id="linear-gradient" y1="180" x2="360" y2="180" gradientUnits="userSpaceOnUse"><stop offset="0" stop-color="#1b1e29"/><stop offset="1" stop-color="#10131a"/></linearGradient></defs><g id="Background"><rect class="cls-1" width="360" height="360"/></g><g id="Summit"><g id="Layer_1" data-name="Layer 1"><path class="cls-2" d="M114,221.33a1.94,1.94,0,1,1-.18-3.88H245.93a1.94,1.94,0,0,1,.18,3.88H114Z"/><path class="cls-2" d="M154.81,245.59a1.94,1.94,0,0,1,0-3.88h50.34a1.94,1.94,0,0,1,.18,3.88Z"/><path class="cls-2" d="M135.09,233.46a1.94,1.94,0,0,1,0-3.88h89.74a1.94,1.94,0,1,1,.17,3.88H135.09Z"/><path class="cls-2" d="M277,168.09H163.8l-6.53-5.26,14.89-13.1,16.24,13.14a2,2,0,0,0,2.55-.1l31.47-27.57,30.82,24.92a1.94,1.94,0,0,0,2.43-3L223.6,131.18h0a2,2,0,0,0-2.49,0l-15.22,13.32-26.13-19.08a1.93,1.93,0,0,0-2.44,0l-33,26.87-10.17-8.24a1.93,1.93,0,0,0-2.54.11l-27.3,23.89H82.94a1.94,1.94,0,0,0,0,3.88h22a1.91,1.91,0,0,0,1.27-.48L133,148.15l28.83,23.32a2,2,0,0,0,1.33.52H277a1.94,1.94,0,1,0,.18-3.88H277ZM147.38,154.82l31.23-25.42,24.31,17.76-13.34,11.67-16.24-13.14h0a2,2,0,0,0-2.5.05l-16.62,14.6Z"/><path class="cls-2" d="M209.48,114.44a6,6,0,0,0-.74,0,4.43,4.43,0,0,0-3.76,2,4.39,4.39,0,0,0-3.75-2,4.71,4.71,0,0,0-.75,0c-1.57.15-3.45,1.63-3.68,4.43v.94c.21,2.7,2.24,6,8.18,10.18,5.94-4.17,8-7.49,8.19-10.18v-.94C213,116.07,211.1,114.59,209.48,114.44Z"/></g><g id="Summit-2" data-name="Summit"><path class="cls-2" d="M106,188.25a9,9,0,0,0-3.88-1.17c-1.94,0-3.18,1-3.18,2.33,0,1.48,1.57,2.3,3.57,3.05,3.68,1.44,5,3.16,5,5.38-.07,3-2.73,4.67-5.89,4.67a9,9,0,0,1-5.47-1.82l1-2a7.57,7.57,0,0,0,4.31,1.55c1.87,0,3.49-.95,3.49-2.38,0-1.67-1.76-2.37-4.09-3.39-2.76-1.21-4.46-2.6-4.46-5.09,0-2.23,1.82-4.6,5.51-4.6a11.89,11.89,0,0,1,4.92,1.31Zm12.48,12.5a4.55,4.55,0,0,1-3.68,1.75,4.29,4.29,0,0,1-4.46-4.12v-6.87h2.44v6.24a2.62,2.62,0,0,0,2.46,2.76h.23a2.78,2.78,0,0,0,2.76-2.74v-6.26h2.4v10.65H119ZM126,192.7a3.61,3.61,0,0,1,3-1.51,3.76,3.76,0,0,1,3.55,2,3.92,3.92,0,0,1,7.32,2.11v6.88h-2.4v-6.58a2.15,2.15,0,0,0-2.21-2.37,2.21,2.21,0,0,0-2.1,2.3v6.64h-2.5v-6.54a2.13,2.13,0,0,0-2.18-2.4,2.22,2.22,0,0,0-2.21,2.22h0v6.71h-2.39V191.51h1.43Zm18.89,0a3.59,3.59,0,0,1,3-1.51,3.75,3.75,0,0,1,3.54,2,3.92,3.92,0,0,1,7.32,2.11v6.88h-2.4v-6.58a2.14,2.14,0,0,0-2.21-2.37,2.22,2.22,0,0,0-2.1,2.3v6.64h-2.48v-6.54a2.13,2.13,0,0,0-2.17-2.4,2.22,2.22,0,0,0-2.22,2.23h0v6.71h-2.41V191.51h1.43ZM163,186.07a1.73,1.73,0,0,1,1.72,1.72,1.71,1.71,0,0,1-3.42,0A1.74,1.74,0,0,1,163,186.07Zm-1.17,5.43h2.4v10.64H161.9Zm9.54,1.92v5a1.65,1.65,0,0,0,1.76,1.87,3.7,3.7,0,0,0,1.05-.15l.29,1.92a11.65,11.65,0,0,1-2,.22c-2.42,0-3.54-1.55-3.54-3.93v-4.93h-1.94v-.24l.25-1.68H169V188l2.18-.34h.23v3.81h3v1.92Z"/><path class="cls-2" d="M196.12,194.55H188v7.62h-2.54v-17H188v7.29h8.14v-7.29h2.54v17h-2.54Zm5.3,2.27a5.52,5.52,0,0,1,5.73-5.59,5.63,5.63,0,0,1,.28,11.26h-.34a5.49,5.49,0,0,1-5.67-5.33h0v-.33Zm9,0a3.4,3.4,0,0,0-3.3-3.68,3.37,3.37,0,0,0-3.25,3.68,3.3,3.3,0,1,0,6.54,0Zm12.24-2.92a8.42,8.42,0,0,0-3.32-.75c-.9,0-2.1.29-2.1,1.27s1.17,1.14,2.25,1.38c2.67.49,4.32,1.72,4.32,3.47,0,2.2-2.28,3.22-4.58,3.22a9.11,9.11,0,0,1-4.36-.94l.65-1.94a7.7,7.7,0,0,0,3.64,1c.89,0,2.39-.24,2.39-1.22s-1.05-1.23-2.45-1.52c-2.49-.53-4.09-1.53-4.09-3.32,0-2.19,2.2-3.3,4.34-3.3a11,11,0,0,1,3.93.78Zm6.23,6.6v6.21l-2.18.32h-.22V191.52h1.46l.65,1.87a4.83,4.83,0,0,1,4.09-2.19c2.89,0,5.07,2.29,5.07,5.62s-2.3,5.66-5.19,5.66a4.15,4.15,0,0,1-3.68-2Zm6.42-3.68c0-2.27-1.5-3.68-3.15-3.68a3.35,3.35,0,0,0-3.25,3.68,3.42,3.42,0,0,0,3.25,3.68C233.77,200.5,235.28,199.12,235.28,196.82Zm6.36-10.73a1.72,1.72,0,1,1-1.69,1.72,1.72,1.72,0,0,1,1.69-1.72Zm-1.14,5.43h2.39v10.65H240.5Zm14,7.73,1.27,1.53a6,6,0,0,1-4.46,1.7,5.64,5.64,0,1,1,4.46-9.28l-1.43,1.43a3.67,3.67,0,0,0-2.84-1.43,3.62,3.62,0,1,0,.1,7.24,4.23,4.23,0,0,0,2.88-1.19Zm5.09-1.86a3.56,3.56,0,0,0,3.82,3.12,6.65,6.65,0,0,0,3.22-1l.9,1.67a7.86,7.86,0,0,1-4.39,1.27,5.62,5.62,0,0,1-6-5.67,5.4,5.4,0,0,1,5.22-5.59h.23c2.91,0,5.4,2.22,5.16,6.18Zm5.81-1.67a2.74,2.74,0,0,0-2.76-2.63,3,3,0,0,0-2.91,2.63Z"/></g></g></svg>