<svg xmlns="http://www.w3.org/2000/svg" xmlns:xlink="http://www.w3.org/1999/xlink" viewBox="0 0 360 360"><defs><style>.cls-1{fill:url(#linear-gradient);}.cls-2{fill:#f7faff;}</style><linearGradient id="linear-gradient" y1="180" x2="360" y2="180" gradientUnits="userSpaceOnUse"><stop offset="0" stop-color="#1b1e29"/><stop offset="1" stop-color="#10131a"/></linearGradient></defs><g id="Background"><rect class="cls-1" width="360" height="360"/></g><g id="Summit"><g id="Layer_1" data-name="Layer 1"><path class="cls-2" d="M126,213.82a1.59,1.59,0,0,1-.15-3.18h108.1a1.59,1.59,0,0,1,.15,3.18H126Z"/><path class="cls-2" d="M159.39,233.67a1.59,1.59,0,1,1,0-3.18h41.19a1.59,1.59,0,0,1,.14,3.18Z"/><path class="cls-2" d="M143.25,223.74a1.59,1.59,0,0,1,0-3.17h73.43a1.59,1.59,0,1,1,.14,3.17H143.25Z"/><path class="cls-2" d="M259.34,170.25h-92.6L161.4,166l12.18-10.72L186.88,166a1.6,1.6,0,0,0,2.08-.09l25.75-22.55,25.22,20.39a1.58,1.58,0,0,0,2-2.47l-26.24-21.21h0a1.57,1.57,0,0,0-2,0L201.19,151l-21.38-15.62a1.61,1.61,0,0,0-2,0l-27,22-8.33-6.74a1.58,1.58,0,0,0-2.08.09l-22.33,19.54H100.59a1.59,1.59,0,0,0,0,3.18h18a1.6,1.6,0,0,0,1-.39l21.84-19.11L165.1,173a1.6,1.6,0,0,0,1.08.43h93.16a1.59,1.59,0,1,0,.14-3.18h-.14Zm-106-10.85,25.56-20.8,19.89,14.53-10.92,9.55-13.29-10.76h0a1.59,1.59,0,0,0-2,.05l-13.6,11.94Z"/><path class="cls-2" d="M204.12,126.36a4,4,0,0,0-.6,0,3.62,3.62,0,0,0-3.08,1.64,3.6,3.6,0,0,0-3.07-1.64,3.12,3.12,0,0,0-.61,0,3.66,3.66,0,0,0-3,3.63v.77c.17,2.2,1.83,4.91,6.69,8.32,4.86-3.41,6.52-6.13,6.7-8.32V130A3.64,3.64,0,0,0,204.12,126.36Z"/></g><g id="Summit-2" data-name="Summit"><path class="cls-2" d="M119.43,186.75a7.55,7.55,0,0,0-3.18-1c-1.58,0-2.6.82-2.6,1.91s1.29,1.88,2.92,2.5c3,1.17,4.11,2.58,4.07,4.4-.06,2.43-2.24,3.82-4.83,3.82a7.35,7.35,0,0,1-4.47-1.49l.83-1.61a6.17,6.17,0,0,0,3.52,1.27c1.53,0,2.86-.77,2.86-1.94,0-1.37-1.45-2-3.35-2.78-2.26-1-3.65-2.12-3.65-4.16,0-1.83,1.49-3.77,4.51-3.77a9.94,9.94,0,0,1,4,1.07ZM129.64,197a3.75,3.75,0,0,1-3,1.43A3.51,3.51,0,0,1,123,195v-5.62h2v5.1a2.14,2.14,0,0,0,2,2.26h.18a2.28,2.28,0,0,0,2.27-2.24v-5.12h2v8.71h-1.29Zm6.15-6.59a2.93,2.93,0,0,1,2.45-1.24,3.08,3.08,0,0,1,2.9,1.63,3.14,3.14,0,0,1,2.78-1.63,3.08,3.08,0,0,1,3.21,3.36v5.63h-2v-5.38a1.76,1.76,0,0,0-1.81-1.95,1.82,1.82,0,0,0-1.72,1.89v5.43h-2v-5.35a1.75,1.75,0,0,0-1.78-2,1.81,1.81,0,0,0-1.81,1.82h0v5.49h-2v-8.71h1.17Zm15.45,0a2.93,2.93,0,0,1,2.45-1.24,3.07,3.07,0,0,1,2.9,1.63,3.14,3.14,0,0,1,2.78-1.63,3.08,3.08,0,0,1,3.21,3.36v5.63h-2v-5.38a1.76,1.76,0,0,0-1.81-1.95,1.82,1.82,0,0,0-1.72,1.89v5.43h-2v-5.35a1.75,1.75,0,0,0-1.79-2,1.83,1.83,0,0,0-1.81,1.83h0v5.49h-2v-8.71h1.17ZM166.12,185a1.41,1.41,0,0,1,1.41,1.41,1.4,1.4,0,0,1-2.79,0A1.41,1.41,0,0,1,166.12,185Zm-1,4.44h2v8.71h-1.94ZM173,191v4.1a1.35,1.35,0,0,0,1.44,1.53,3.13,3.13,0,0,0,.86-.12l.24,1.57a9.55,9.55,0,0,1-1.6.17c-2,0-2.9-1.26-2.9-3.21v-4h-1.59v-.2l.2-1.37H171v-2.85l1.79-.28H173v3.12h2.48V191Z"/><path class="cls-2" d="M193.19,191.91h-6.66v6.23h-2.08V184.21h2.08v6h6.66v-6h2.08v13.92h-2.08Zm4.34,1.86a4.52,4.52,0,0,1,4.68-4.59,4.61,4.61,0,0,1,.24,9.22h-.28a4.51,4.51,0,0,1-4.65-4.36h0v-.27Zm7.33,0a2.7,2.7,0,1,0-2.67,3,2.79,2.79,0,0,0,2.67-3Zm10-2.4a7.09,7.09,0,0,0-2.72-.61c-.73,0-1.72.24-1.72,1s1,.93,1.85,1.13c2.18.4,3.53,1.41,3.53,2.84,0,1.8-1.86,2.63-3.75,2.63a7.51,7.51,0,0,1-3.57-.77L209,196a6.32,6.32,0,0,0,3,.8c.73,0,2-.2,2-1s-.86-1-2-1.24c-2-.43-3.35-1.25-3.35-2.72,0-1.79,1.8-2.7,3.55-2.7a9.14,9.14,0,0,1,3.22.64Zm5.1,5.41v5.08l-1.79.25H218V189.43h1.2l.53,1.52a4,4,0,0,1,3.35-1.78c2.36,0,4.15,1.86,4.15,4.6a4.33,4.33,0,0,1-4.25,4.62,3.39,3.39,0,0,1-3-1.61Zm5.25-3a2.65,2.65,0,1,0-5.24,0,2.8,2.8,0,0,0,2.66,3A2.73,2.73,0,0,0,225.23,193.77Zm5.21-8.79a1.41,1.41,0,0,1,1.4,1.41,1.4,1.4,0,1,1-2.79,0,1.43,1.43,0,0,1,1.37-1.43Zm-.94,4.45h1.95v8.71H229.5ZM241,195.75l1,1.25a4.91,4.91,0,0,1-3.65,1.39A4.61,4.61,0,1,1,242,190.8L240.85,192a2.91,2.91,0,0,0-5.24,1.83,3,3,0,0,0,3,2.92,3.44,3.44,0,0,0,2.36-1Zm4.16-1.52a2.91,2.91,0,0,0,3.12,2.55,5.35,5.35,0,0,0,2.64-.79l.74,1.37a6.37,6.37,0,0,1-3.59,1,4.59,4.59,0,0,1-4.88-4.63,4.44,4.44,0,0,1,4.27-4.59h.19c2.38,0,4.42,1.83,4.22,5.06Zm4.76-1.37a2.24,2.24,0,0,0-2.26-2.15,2.48,2.48,0,0,0-2.38,2.15Z"/></g></g></svg>