<svg xmlns="http://www.w3.org/2000/svg" xmlns:xlink="http://www.w3.org/1999/xlink" viewBox="0 0 360 360"><defs><style>.cls-1{fill:url(#linear-gradient);}.cls-2{fill:#f7faff;}.cls-3{fill:none;stroke:#f7faff;stroke-miterlimit:10;}</style><linearGradient id="linear-gradient" y1="180" x2="360" y2="180" gradientUnits="userSpaceOnUse"><stop offset="0" stop-color="#1b1e29"/><stop offset="1" stop-color="#10131a"/></linearGradient></defs><g id="Background"><rect class="cls-1" width="360" height="360"/></g><g id="Vestal"><path class="cls-2" d="M117.91,160a1.86,1.86,0,0,0-1.72.86,10.11,10.11,0,0,0-.77,1.4L104.9,185.41c-.36.79-.66,1.43-.9,1.9a2.89,2.89,0,0,0-.35,1,.73.73,0,0,0,.15.48,1.87,1.87,0,0,0,.38.35v1.07H95.09v-1.07a.83.83,0,0,0,.53-.83,4,4,0,0,0-.44-1.22c-.3-.61-.67-1.37-1.1-2.29l-10.7-23.24a2.05,2.05,0,0,0-.83-.95A8.19,8.19,0,0,0,81,160V159H91.64V160a1.76,1.76,0,0,0-.8.2.83.83,0,0,0-.39.81A3.92,3.92,0,0,0,91,162.7l1.22,2.5,7.6,16.34,7.43-16.1c.48-1,.93-2,1.34-2.77a4.61,4.61,0,0,0,.63-1.69c0-.64-.56-.95-1.67-.95V159h10.4Z"/><path class="cls-2" d="M147.1,169.6c0-.76-.62-1.13-1.84-1.13H130.75v5.94h9.16a5.29,5.29,0,0,0,1.48-.15c.32-.1.48-.36.48-.8h1.07v6.3h-1.19a.57.57,0,0,0-.48-.8,8.66,8.66,0,0,0-1.84-.15h-8.68v7H146a2,2,0,0,0,1.19-.32,1,1,0,0,0,.47-.86h1.07v6.24h-1.07c0-.36-.15-.56-.47-.6a9.77,9.77,0,0,0-1.19-.06H124.15v-1.07a1.1,1.1,0,0,0,.6-.2.78.78,0,0,0,.3-.69V166a.76.76,0,0,0-.3-.68,1,1,0,0,0-.6-.21v-1.07h21.11c1.22,0,1.84-.36,1.84-1.07h1.07v6.6Z"/><path class="cls-2" d="M158.93,181.13a4.32,4.32,0,0,1,0,.5,5.17,5.17,0,0,0,0,.57,2,2,0,0,0,1.13,1.63,10.55,10.55,0,0,0,2.7,1.25,24.24,24.24,0,0,0,3.15.8,14.15,14.15,0,0,0,2.47.3c.55,0,1.24,0,2.05-.12a11.36,11.36,0,0,0,2.41-.5,6.36,6.36,0,0,0,2-1.07,2.25,2.25,0,0,0,.83-1.82,2,2,0,0,0-1.46-1.9,16.53,16.53,0,0,0-3.65-.92c-1.47-.22-3.05-.43-4.76-.65a25,25,0,0,1-4.75-1.07,9.71,9.71,0,0,1-3.66-2.14,5.23,5.23,0,0,1-1.45-4,7.1,7.1,0,0,1,3.15-6.06c2.1-1.5,5-2.26,8.85-2.26a22,22,0,0,1,4.79.45,23.18,23.18,0,0,1,3.36,1c.91.36,1.65.68,2.23,1a3.2,3.2,0,0,0,1.27.45,1.38,1.38,0,0,0,.72-.15c.16-.1.35-.21.59-.33l.66.65-3,5.59-1.07-.36c0-.23-.08-.47-.11-.71a1.25,1.25,0,0,0-.54-.71,9.92,9.92,0,0,0-3.69-1.73,20.47,20.47,0,0,0-5.58-.71,16.18,16.18,0,0,0-2.26.15,7.63,7.63,0,0,0-1.9.5,3.44,3.44,0,0,0-1.31.93,2.06,2.06,0,0,0-.48,1.39,2,2,0,0,0,1.46,1.88,17.88,17.88,0,0,0,3.65.89c1.47.22,3.06.43,4.76.65a23.84,23.84,0,0,1,4.76,1.1,9.46,9.46,0,0,1,3.65,2.26,5.61,5.61,0,0,1,1.46,4.1,6.83,6.83,0,0,1-1.28,4.28,9.1,9.1,0,0,1-3.18,2.62,13,13,0,0,1-4.19,1.24,33.27,33.27,0,0,1-4.31.3,21.53,21.53,0,0,1-4-.38,34.39,34.39,0,0,1-3.63-.9c-1.09-.33-2-.65-2.76-1a6.59,6.59,0,0,0-1.37-.44.89.89,0,0,0-.71.35l-.84-.59,2.74-6.66Z"/><path class="cls-2" d="M196.5,189.15a1.1,1.1,0,0,0,.59-.2.78.78,0,0,0,.3-.69V168.47h-7.73a1.72,1.72,0,0,0-.89.24.8.8,0,0,0-.42.77h-1.07v-6.84h1.07a1.3,1.3,0,0,0,.42,1.13,1.47,1.47,0,0,0,.89.3h21.16a1.49,1.49,0,0,0,.89-.3,1.3,1.3,0,0,0,.42-1.13h1.07v6.84h-1.07a.8.8,0,0,0-.42-.77,1.75,1.75,0,0,0-.89-.24h-7.73v19.79c0,.6.36.89,1.07.89v1.07H196.5Z"/><path class="cls-2" d="M216,189.15a1.79,1.79,0,0,0,1.16-.68,5.53,5.53,0,0,0,.68-1l8.86-19.32c.24-.55.43-1,.57-1.34a2.68,2.68,0,0,0,.2-1c0-.23-.05-.38-.14-.44l-.33-.21v-1.07h9v1.07a1.21,1.21,0,0,1-.38.18c-.14,0-.21.2-.21.47a1.87,1.87,0,0,0,.27.86c.18.34.36.73.56,1.16L245.83,188a2.19,2.19,0,0,0,.66.78,2.57,2.57,0,0,0,.77.35v1.07h-8.44v-.89a1.28,1.28,0,0,0,.62-.18.67.67,0,0,0,.33-.65,1.67,1.67,0,0,0-.12-.65l-.3-.78-1.6-3.39H225l-1.67,3.21a7.46,7.46,0,0,0-.38.87,1.87,1.87,0,0,0-.15.68c0,.32.1.52.29.59a2.34,2.34,0,0,0,.84.12v1.07h-8Zm19.86-9.86-4.82-10-4.22,10Z"/><path class="cls-2" d="M261.29,164.07v1.07c-.91,0-1.37.3-1.37.89v19.79H276a2.06,2.06,0,0,0,1.19-.32,1.07,1.07,0,0,0,.47-.92h1.07v6.24h-1.07a.49.49,0,0,0-.47-.54,9.89,9.89,0,0,0-1.19-.06h-23.3v-1.07c1,0,1.54-.29,1.54-.89V166c0-.59-.51-.89-1.54-.89v-1.07Z"/><path class="cls-2" d="M129.47,210.34a.4.4,0,0,0,0,.15.5.5,0,0,0,.2.33,2,2,0,0,0,.53.31,3.38,3.38,0,0,0,.74.24,3.84,3.84,0,0,0,.83.09,3,3,0,0,0,1.58-.32,1,1,0,0,0,.48-.83.65.65,0,0,0-.12-.4.75.75,0,0,0-.33-.24,1.68,1.68,0,0,0-.49-.12,3.86,3.86,0,0,0-.6,0h-1.12a4.54,4.54,0,0,1-1.08-.15,1.92,1.92,0,0,1-.82-.48,1.38,1.38,0,0,1-.32-1,1.3,1.3,0,0,1,.23-.75,2,2,0,0,1,.63-.58,3.29,3.29,0,0,1,.93-.38,4.81,4.81,0,0,1,1.17-.14,5.11,5.11,0,0,1,.85.07l.63.15a3.47,3.47,0,0,1,.43.15.75.75,0,0,0,.29.07.3.3,0,0,0,.18-.05l.12-.1.13.06-.63,1.31-.12-.08a.45.45,0,0,0,0-.14c0-.06-.05-.12-.14-.2a1.38,1.38,0,0,0-.39-.22,2.83,2.83,0,0,0-.6-.19,3.64,3.64,0,0,0-.76-.07,3,3,0,0,0-1.47.3.88.88,0,0,0-.55.78.51.51,0,0,0,.12.35.85.85,0,0,0,.34.2,2.11,2.11,0,0,0,.49.1l.6,0,1.12,0a3.7,3.7,0,0,1,1.08.18,1.79,1.79,0,0,1,.81.51,1.49,1.49,0,0,1,.32,1,1.4,1.4,0,0,1-.19.71,1.76,1.76,0,0,1-.56.6,3,3,0,0,1-.94.41,5,5,0,0,1-1.29.15,5.07,5.07,0,0,1-1.84-.32,5.46,5.46,0,0,1-.53-.25.75.75,0,0,0-.33-.1.32.32,0,0,0-.24.13l-.11-.07.61-1.31Z"/><path class="cls-2" d="M140.85,208a.29.29,0,0,0-.06-.21.32.32,0,0,0-.23-.06h-1.77v3.94a.41.41,0,0,0,.05.26s.11.06.23.06v.14h-1.33V212A.33.33,0,0,0,138,212a.49.49,0,0,0,.05-.26v-3.94h-1.78a.29.29,0,0,0-.22.06.29.29,0,0,0-.06.21h-.14v-1.19H136a.29.29,0,0,0,.06.21c0,.05.11.07.22.07h4.31c.12,0,.19,0,.23-.07a.29.29,0,0,0,.06-.21H141V208Z"/><path class="cls-2" d="M142.61,207.57a.49.49,0,0,0-.05-.26s-.1-.06-.21-.06v-.14H147c.12,0,.2,0,.23-.07a.29.29,0,0,0,.06-.21h.14V208h-.14a.29.29,0,0,0-.06-.21s-.11-.06-.23-.06h-3.59v1.49h2.53a.33.33,0,0,0,.23-.06.34.34,0,0,0,.06-.22h.13v1.19h-.13a.31.31,0,0,0-.06-.21.33.33,0,0,0-.23-.06h-2.53v1.63h3.72a.29.29,0,0,0,.23-.07.29.29,0,0,0,.06-.21h.13v1.16h-.13a.25.25,0,0,0-.06-.2.43.43,0,0,0-.23,0h-4.74V212q.17,0,.21-.06a.49.49,0,0,0,.05-.26Z"/><path class="cls-2" d="M149.61,207.57a.49.49,0,0,0-.05-.26.29.29,0,0,0-.21-.06v-.14H154c.12,0,.19,0,.23-.07a.29.29,0,0,0,.06-.21h.14V208h-.14a.29.29,0,0,0-.06-.21.32.32,0,0,0-.23-.06h-3.59v1.49h2.53a.33.33,0,0,0,.23-.06.34.34,0,0,0,.05-.22h.14v1.19h-.14a.31.31,0,0,0-.05-.21.33.33,0,0,0-.23-.06h-2.53v1.63h3.72a.29.29,0,0,0,.23-.07.29.29,0,0,0,.06-.21h.13v1.16h-.13a.25.25,0,0,0-.06-.2.43.43,0,0,0-.23,0h-4.74V212a.29.29,0,0,0,.21-.06.49.49,0,0,0,.05-.26Z"/><path class="cls-2" d="M161.23,212.37a.22.22,0,0,0-.06-.18.43.43,0,0,0-.23,0h-4.59V212c.12,0,.2,0,.23-.06a.41.41,0,0,0,0-.26v-4.12a.41.41,0,0,0,0-.26s-.11-.06-.23-.06v-.14h1.28v.14a.35.35,0,0,0-.24.06.49.49,0,0,0,0,.26v3.94h3.6a.29.29,0,0,0,.23-.08.45.45,0,0,0,.06-.27h.13v1.21Z"/><path class="cls-2" d="M166.71,210.34a.4.4,0,0,0,0,.15.46.46,0,0,0,.2.33,2,2,0,0,0,.53.31,3.47,3.47,0,0,0,.73.24,4,4,0,0,0,.84.09,3,3,0,0,0,1.58-.32,1,1,0,0,0,.48-.83.65.65,0,0,0-.12-.4.75.75,0,0,0-.33-.24,1.76,1.76,0,0,0-.49-.12,3.86,3.86,0,0,0-.6,0h-1.12a4.54,4.54,0,0,1-1.08-.15,1.92,1.92,0,0,1-.82-.48,1.38,1.38,0,0,1-.32-1,1.3,1.3,0,0,1,.23-.75,1.86,1.86,0,0,1,.63-.58,3.29,3.29,0,0,1,.93-.38,4.81,4.81,0,0,1,1.17-.14,5.11,5.11,0,0,1,.85.07l.63.15a3.47,3.47,0,0,1,.43.15.75.75,0,0,0,.29.07.3.3,0,0,0,.18-.05l.12-.1.13.06-.63,1.31-.12-.08s0-.07,0-.14,0-.12-.14-.2a1.38,1.38,0,0,0-.39-.22,2.83,2.83,0,0,0-.6-.19,3.64,3.64,0,0,0-.76-.07,3,3,0,0,0-1.47.3.88.88,0,0,0-.55.78.51.51,0,0,0,.12.35.88.88,0,0,0,.33.2,2.33,2.33,0,0,0,.5.1l.6,0,1.12,0a3.7,3.7,0,0,1,1.08.18,1.79,1.79,0,0,1,.81.51,1.54,1.54,0,0,1,.32,1,1.4,1.4,0,0,1-.19.71,1.76,1.76,0,0,1-.56.6,3,3,0,0,1-.94.41,5,5,0,0,1-1.29.15,5.07,5.07,0,0,1-1.84-.32,5.46,5.46,0,0,1-.53-.25.75.75,0,0,0-.33-.1.32.32,0,0,0-.24.13l-.12-.07.62-1.31Z"/><path class="cls-2" d="M174.15,207.57a.39.39,0,0,0-.06-.26s-.11-.06-.23-.06v-.14h3.07c1.15,0,1.72.47,1.72,1.41a1.27,1.27,0,0,1-.14.58,1.33,1.33,0,0,1-.36.45,1.58,1.58,0,0,1-.52.3,2.05,2.05,0,0,1-.61.1h-2.16v1.74a.41.41,0,0,0,0,.26s.11.06.23.06v.14h-1.28V212c.12,0,.2,0,.23-.06a.39.39,0,0,0,.06-.26Zm2.81,1.74a1,1,0,0,0,.71-.22.79.79,0,0,0,.22-.6.69.69,0,0,0-.27-.6,1.48,1.48,0,0,0-.82-.19h-1.94v1.61Z"/><path class="cls-2" d="M180.49,207.57a.41.41,0,0,0-.05-.26s-.1-.06-.21-.06v-.14h4.62c.11,0,.19,0,.22-.07a.29.29,0,0,0,.06-.21h.14V208h-.14a.29.29,0,0,0-.06-.21.29.29,0,0,0-.22-.06h-3.6v1.49h2.53a.33.33,0,0,0,.23-.06.34.34,0,0,0,.06-.22h.13v1.19h-.13a.31.31,0,0,0-.06-.21.33.33,0,0,0-.23-.06h-2.53v1.63H185c.12,0,.19,0,.23-.07a.29.29,0,0,0,.06-.21h.13v1.16h-.13a.25.25,0,0,0-.06-.2.41.41,0,0,0-.23,0h-4.74V212q.17,0,.21-.06a.41.41,0,0,0,.05-.26Z"/><path class="cls-2" d="M191.2,208.53a.42.42,0,0,0,0-.09v-.11s0-.1-.15-.17a1.63,1.63,0,0,0-.4-.22,3.53,3.53,0,0,0-.55-.19,3.08,3.08,0,0,0-.61-.07,2.42,2.42,0,0,0-.88.15,2.2,2.2,0,0,0-.67.43,2,2,0,0,0-.42.62,2.14,2.14,0,0,0-.14.76,2,2,0,0,0,.14.74,1.67,1.67,0,0,0,.42.59,1.86,1.86,0,0,0,.63.39,2.18,2.18,0,0,0,.82.15,2.75,2.75,0,0,0,.79-.1,2.51,2.51,0,0,0,.59-.22,1.69,1.69,0,0,0,.37-.26.4.4,0,0,0,.12-.2.56.56,0,0,0,0-.23l.11-.07.8,1-.12.09-.14-.08-.08,0a.56.56,0,0,0-.28.12c-.12.07-.27.16-.46.25a4.1,4.1,0,0,1-.68.24,4.26,4.26,0,0,1-2-.05,2.63,2.63,0,0,1-.89-.48,2.45,2.45,0,0,1-.6-.81,2.73,2.73,0,0,1-.22-1.1,2.57,2.57,0,0,1,.23-1.1,2.34,2.34,0,0,1,.61-.81,2.47,2.47,0,0,1,.91-.51,3.3,3.3,0,0,1,1.1-.18,4.54,4.54,0,0,1,.81.06,3.63,3.63,0,0,1,.66.18,2.5,2.5,0,0,1,.38.15.79.79,0,0,0,.23.07c.06,0,.12,0,.18-.13l.14,0-.56,1.18Z"/><path class="cls-2" d="M193.78,212c.12,0,.2,0,.23-.06a.39.39,0,0,0,.06-.26v-4.12a.39.39,0,0,0-.06-.26s-.11-.06-.23-.06v-.14h1.28v.14c-.12,0-.2,0-.23.06a.41.41,0,0,0-.05.26v4.12a.41.41,0,0,0,.05.26s.11.06.23.06v.14h-1.28Z"/><path class="cls-2" d="M196.55,212a.32.32,0,0,0,.25-.08,1,1,0,0,0,.12-.21l1.81-4.14a.58.58,0,0,0,.06-.2s0-.07-.07-.1a.45.45,0,0,0-.22-.06v-.11h1.85v.14a.47.47,0,0,0-.17,0,.11.11,0,0,0-.09.11.27.27,0,0,0,0,.12.54.54,0,0,1,0,.11l2,4.17a.7.7,0,0,0,.1.16.35.35,0,0,0,.26.07v.14H201V212a.85.85,0,0,0,.28,0,.14.14,0,0,0,.07-.11.25.25,0,0,0,0-.13l0-.12-.47-1h-2.79l-.39.87-.09.19a.29.29,0,0,0-.05.15.13.13,0,0,0,.06.11.7.7,0,0,0,.24,0v.14h-1.28Zm1.78-2h2.23l-1.16-2.41Z"/><path class="cls-2" d="M208.66,212.37a.22.22,0,0,0-.06-.18.41.41,0,0,0-.23,0h-4.59V212A.35.35,0,0,0,204,212a.49.49,0,0,0,0-.26v-4.12a.49.49,0,0,0,0-.26.35.35,0,0,0-.24-.06v-.14h1.28v.14c-.12,0-.2,0-.23.06a.41.41,0,0,0-.05.26v3.94h3.59a.27.27,0,0,0,.23-.08.45.45,0,0,0,.06-.27h.14v1.21Z"/><path class="cls-2" d="M214.38,208a.29.29,0,0,0-.06-.21.33.33,0,0,0-.23-.06h-1.78v3.94a.39.39,0,0,0,.06.26s.11.06.23.06v.14h-1.33V212a.35.35,0,0,0,.24-.06.49.49,0,0,0,.05-.26v-3.94h-1.78a.33.33,0,0,0-.23.06.36.36,0,0,0-.05.21h-.14v-1.19h.14a.36.36,0,0,0,.05.21.29.29,0,0,0,.23.07h4.31a.29.29,0,0,0,.23-.07.29.29,0,0,0,.06-.21h.13V208Z"/><path class="cls-2" d="M216.06,212c.12,0,.2,0,.23-.06a.39.39,0,0,0,.06-.26v-4.12a.39.39,0,0,0-.06-.26s-.11-.06-.23-.06v-.14h1.28v.14c-.12,0-.2,0-.23.06a.41.41,0,0,0-.05.26v4.12a.41.41,0,0,0,.05.26s.11.06.23.06v.14h-1.28Z"/><path class="cls-2" d="M220,207.57a.41.41,0,0,0,0-.26s-.1-.06-.21-.06v-.14h4.62a.29.29,0,0,0,.23-.07.36.36,0,0,0,.05-.21h.14V208h-.14a.36.36,0,0,0-.05-.21.33.33,0,0,0-.23-.06h-3.6v1.49h2.53a.32.32,0,0,0,.23-.06.34.34,0,0,0,.06-.22h.14v1.19h-.14a.31.31,0,0,0-.06-.21.32.32,0,0,0-.23-.06h-2.53v1.63h3.72c.12,0,.19,0,.23-.07a.29.29,0,0,0,.06-.21h.14v1.16h-.14a.25.25,0,0,0-.06-.2.41.41,0,0,0-.23,0h-4.74V212q.17,0,.21-.06a.41.41,0,0,0,0-.26Z"/><path class="cls-2" d="M226.82,210.74a.64.64,0,0,0,0,.15q0,.09.18.21a2.08,2.08,0,0,0,.47.22,4.42,4.42,0,0,0,.68.18,4.07,4.07,0,0,0,.79.07,2.9,2.9,0,0,0,1.23-.21.65.65,0,0,0,.44-.6.52.52,0,0,0-.3-.51,2.75,2.75,0,0,0-.76-.22q-.47-.06-1-.09a4.92,4.92,0,0,1-1-.14,1.86,1.86,0,0,1-.77-.38,1,1,0,0,1-.3-.79,1.42,1.42,0,0,1,.18-.74,1.57,1.57,0,0,1,.47-.49,2.1,2.1,0,0,1,.7-.28,4.3,4.3,0,0,1,.82-.08,4.7,4.7,0,0,1,.79.06,3.61,3.61,0,0,1,.59.15l.39.14a.66.66,0,0,0,.22.06.12.12,0,0,0,.09,0,.65.65,0,0,0,.09-.13l.15.06-.42,1.12-.14-.06s0,0,0,0v-.08c0-.06,0-.13-.15-.2a1.76,1.76,0,0,0-.41-.19,4.22,4.22,0,0,0-.59-.15,3.71,3.71,0,0,0-.67-.06,3.35,3.35,0,0,0-.72.07,1.23,1.23,0,0,0-.43.2.66.66,0,0,0-.21.27.91.91,0,0,0-.06.32.47.47,0,0,0,.31.47,2.38,2.38,0,0,0,.76.21l1,.08a6.05,6.05,0,0,1,1,.14,1.82,1.82,0,0,1,.76.38,1,1,0,0,1,.3.77,1.33,1.33,0,0,1-.59,1.21,3.63,3.63,0,0,1-1.9.38,5.17,5.17,0,0,1-.82-.06,4.33,4.33,0,0,1-.64-.15l-.48-.16a.84.84,0,0,0-.29-.07.14.14,0,0,0-.13,0,.37.37,0,0,0-.07.12l-.14,0,.45-1.16Z"/><line class="cls-3" x1="124.15" y1="209.22" x2="81" y2="209.22"/><line class="cls-3" x1="279" y1="209.22" x2="235.85" y2="209.22"/><line class="cls-3" x1="81" y1="147.61" x2="279" y2="147.61"/></g></svg>