<svg xmlns="http://www.w3.org/2000/svg" xmlns:xlink="http://www.w3.org/1999/xlink" viewBox="0 0 360 360"><defs><style>.cls-1{fill:url(#linear-gradient);}.cls-2{fill:#f7faff;}.cls-3{fill:none;stroke:#f7faff;stroke-miterlimit:10;}</style><linearGradient id="linear-gradient" y1="180" x2="360" y2="180" gradientUnits="userSpaceOnUse"><stop offset="0" stop-color="#1b1e29"/><stop offset="1" stop-color="#10131a"/></linearGradient></defs><g id="Background"><rect class="cls-1" width="360" height="360"/></g><g id="Vestal"><path class="cls-2" d="M129.2,163.66a1.53,1.53,0,0,0-1.41.7,9.62,9.62,0,0,0-.63,1.15l-8.61,18.92c-.29.64-.53,1.16-.73,1.55a2.37,2.37,0,0,0-.29.83.61.61,0,0,0,.12.39,2.37,2.37,0,0,0,.32.29v.87h-7.44v-.87a.69.69,0,0,0,.43-.68,3.15,3.15,0,0,0-.36-1l-.9-1.87-8.75-19a1.71,1.71,0,0,0-.69-.78,6.45,6.45,0,0,0-1.26-.48v-.88h8.71v.88a1.41,1.41,0,0,0-.66.17.68.68,0,0,0-.32.66,3.21,3.21,0,0,0,.42,1.36l1,2,6.23,13.37,6.08-13.18c.39-.84.75-1.59,1.09-2.26a3.79,3.79,0,0,0,.51-1.38c0-.52-.45-.78-1.36-.78v-.88h8.51Z"/><path class="cls-2" d="M153.08,171.49c0-.62-.5-.93-1.51-.93H139.71v4.87h7.49a4.44,4.44,0,0,0,1.21-.12q.39-.12.39-.66h.88v5.16h-1a.46.46,0,0,0-.38-.66,7.32,7.32,0,0,0-1.51-.12h-7.1v5.74h12.45a1.66,1.66,0,0,0,1-.27.83.83,0,0,0,.39-.71h.87v5.11h-.87a.43.43,0,0,0-.39-.49,8.5,8.5,0,0,0-1,0H134.31v-.87a.85.85,0,0,0,.48-.17.62.62,0,0,0,.25-.56V168.57a.63.63,0,0,0-.25-.56.85.85,0,0,0-.48-.17V167h17.26c1,0,1.51-.3,1.51-.88H154v5.4Z"/><path class="cls-2" d="M162.76,180.92a3.19,3.19,0,0,1,0,.42c0,.14,0,.3,0,.46a1.69,1.69,0,0,0,.92,1.34,9.52,9.52,0,0,0,2.22,1,22.5,22.5,0,0,0,2.57.65,11.1,11.1,0,0,0,2,.25,16.16,16.16,0,0,0,1.68-.1,9,9,0,0,0,2-.41,5,5,0,0,0,1.65-.88,1.81,1.81,0,0,0,.69-1.48,1.65,1.65,0,0,0-1.2-1.56,13.39,13.39,0,0,0-3-.75c-1.2-.18-2.49-.36-3.89-.54a20,20,0,0,1-3.89-.87,7.94,7.94,0,0,1-3-1.75,4.29,4.29,0,0,1-1.19-3.24,5.8,5.8,0,0,1,2.58-5c1.71-1.23,4.13-1.85,7.24-1.85A18.38,18.38,0,0,1,174,167a19.41,19.41,0,0,1,2.75.8c.74.29,1.35.56,1.82.8a2.56,2.56,0,0,0,1,.37,1.14,1.14,0,0,0,.58-.12c.13-.08.29-.17.49-.27l.53.53-2.43,4.58-.88-.3-.09-.58a1,1,0,0,0-.44-.58,8.26,8.26,0,0,0-3-1.41,16.54,16.54,0,0,0-4.57-.59,13.69,13.69,0,0,0-1.85.12,6.15,6.15,0,0,0-1.55.42,2.7,2.7,0,0,0-1.07.75,1.71,1.71,0,0,0-.39,1.14,1.59,1.59,0,0,0,1.19,1.54,14.69,14.69,0,0,0,3,.73l3.89.53a19.09,19.09,0,0,1,3.89.9,7.62,7.62,0,0,1,3,1.85,4.56,4.56,0,0,1,1.19,3.35,5.59,5.59,0,0,1-1,3.51,7.61,7.61,0,0,1-2.6,2.14,10.87,10.87,0,0,1-3.43,1,27.92,27.92,0,0,1-3.53.24,17.28,17.28,0,0,1-3.28-.32,26.92,26.92,0,0,1-3-.73c-.89-.27-1.64-.53-2.26-.77a4.9,4.9,0,0,0-1.12-.37.75.75,0,0,0-.58.29l-.68-.48,2.24-5.45Z"/><path class="cls-2" d="M193.5,187.49a.85.85,0,0,0,.48-.17.64.64,0,0,0,.25-.56v-16.2H187.9a1.46,1.46,0,0,0-.73.2.68.68,0,0,0-.34.63H186V165.8h.87a1.08,1.08,0,0,0,.34.92,1.19,1.19,0,0,0,.73.25h17.32a1.19,1.19,0,0,0,.73-.25,1.08,1.08,0,0,0,.34-.92h.87v5.59h-.87a.68.68,0,0,0-.34-.63,1.46,1.46,0,0,0-.73-.2h-6.33v16.2c0,.49.3.73.88.73v.87H193.5Z"/><path class="cls-2" d="M209.45,187.49a1.51,1.51,0,0,0,1-.56,5.35,5.35,0,0,0,.56-.85l7.24-15.81c.2-.45.35-.82.46-1.09a2,2,0,0,0,.17-.8c0-.2,0-.32-.12-.37a2.85,2.85,0,0,1-.26-.17V167h7.34v.87a1.17,1.17,0,0,1-.32.15c-.11,0-.17.16-.17.39a1.64,1.64,0,0,0,.22.7c.15.28.3.59.46.95l7.88,16.54a1.72,1.72,0,0,0,.54.63,2.26,2.26,0,0,0,.63.29v.87h-6.91v-.72a1,1,0,0,0,.51-.15.56.56,0,0,0,.27-.54,1.32,1.32,0,0,0-.1-.53l-.24-.63L227.25,183H216.84l-1.36,2.63c-.13.26-.24.5-.32.71a1.57,1.57,0,0,0-.12.56q0,.39.24.48a1.81,1.81,0,0,0,.68.1v.87h-6.51Zm16.24-8.07-3.94-8.17-3.45,8.17Z"/><path class="cls-2" d="M246.51,167v.87c-.75,0-1.12.24-1.12.73v16.2h13.13a1.66,1.66,0,0,0,1-.27.87.87,0,0,0,.39-.76h.88v5.11h-.88a.4.4,0,0,0-.39-.44,8.5,8.5,0,0,0-1,0H239.46v-.87c.84,0,1.26-.24,1.26-.73V168.57c0-.49-.42-.73-1.26-.73V167Z"/><path class="cls-2" d="M138.66,204.82a.35.35,0,0,0,0,.12.41.41,0,0,0,.17.28,1.43,1.43,0,0,0,.43.25,3,3,0,0,0,.6.2,3.17,3.17,0,0,0,.69.07,2.43,2.43,0,0,0,1.28-.26.78.78,0,0,0,.4-.68.47.47,0,0,0-.1-.32.58.58,0,0,0-.27-.21,1.47,1.47,0,0,0-.4-.09,3.79,3.79,0,0,0-.49,0H140a3.07,3.07,0,0,1-.88-.12,1.54,1.54,0,0,1-.67-.39,1.13,1.13,0,0,1-.26-.8,1.06,1.06,0,0,1,.19-.62,1.55,1.55,0,0,1,.51-.47,2.63,2.63,0,0,1,.76-.31,3.67,3.67,0,0,1,1-.11,4.68,4.68,0,0,1,.7.05l.51.12.35.13a.86.86,0,0,0,.24,0,.28.28,0,0,0,.15,0l.09-.09.11,0-.51,1.08-.11-.07a.35.35,0,0,0,0-.12c0-.05,0-.1-.11-.16a1.3,1.3,0,0,0-.32-.18,2.38,2.38,0,0,0-.49-.15,3,3,0,0,0-.62-.06,2.57,2.57,0,0,0-1.21.24.72.72,0,0,0-.44.64.37.37,0,0,0,.1.28.6.6,0,0,0,.27.17,1.49,1.49,0,0,0,.4.08l.49,0h.92a3.06,3.06,0,0,1,.88.15,1.6,1.6,0,0,1,.67.42,1.25,1.25,0,0,1,.26.85,1.19,1.19,0,0,1-.15.58,1.55,1.55,0,0,1-.47.49,2.22,2.22,0,0,1-.76.34,4.18,4.18,0,0,1-1.06.12,4.37,4.37,0,0,1-.87-.08,2.78,2.78,0,0,1-.63-.19l-.44-.19a.6.6,0,0,0-.27-.09.27.27,0,0,0-.19.11l-.1-.06.51-1.07Z"/><path class="cls-2" d="M148,202.93a.25.25,0,0,0-.05-.17s-.09-.06-.19-.06h-1.45v3.23a.37.37,0,0,0,0,.21.27.27,0,0,0,.19.05v.11h-1.08v-.11a.27.27,0,0,0,.19-.05.37.37,0,0,0,0-.21V202.7h-1.45c-.1,0-.16,0-.19.06a.25.25,0,0,0-.05.17h-.11v-1H144a.28.28,0,0,0,.05.18.27.27,0,0,0,.19.05h3.52a.27.27,0,0,0,.19-.05A.28.28,0,0,0,148,202h.11v1Z"/><path class="cls-2" d="M149.41,202.55a.37.37,0,0,0,0-.21.26.26,0,0,0-.18-.05v-.11H153a.29.29,0,0,0,.19-.05.28.28,0,0,0,.05-.18h.11v1h-.11a.25.25,0,0,0-.05-.17.24.24,0,0,0-.19-.06H150v1.22h2.07a.29.29,0,0,0,.19,0,.25.25,0,0,0,0-.17h.12v1h-.12a.25.25,0,0,0,0-.17s-.1-.05-.19-.05H150v1.33h3a.27.27,0,0,0,.19-.05.3.3,0,0,0,.05-.18h.11v.95h-.11a.22.22,0,0,0-.05-.16.35.35,0,0,0-.19,0h-3.88v-.11a.26.26,0,0,0,.18-.05.37.37,0,0,0,0-.21Z"/><path class="cls-2" d="M155.14,202.55a.36.36,0,0,0,0-.21s-.08-.05-.17-.05v-.11h3.78a.26.26,0,0,0,.18-.05.23.23,0,0,0,.05-.18H159v1h-.11c0-.08,0-.14-.05-.17a.22.22,0,0,0-.18-.06h-2.95v1.22h2.08a.26.26,0,0,0,.18,0,.25.25,0,0,0,.05-.17h.11v1h-.11a.25.25,0,0,0-.05-.17s-.09-.05-.18-.05h-2.08v1.33h3.05a.29.29,0,0,0,.19-.05.3.3,0,0,0,0-.18h.12v.95H159a.22.22,0,0,0,0-.16.38.38,0,0,0-.19,0h-3.88v-.11c.09,0,.15,0,.17-.05a.36.36,0,0,0,0-.21Z"/><path class="cls-2" d="M164.64,206.48a.18.18,0,0,0,0-.14.34.34,0,0,0-.18,0h-3.76v-.11a.27.27,0,0,0,.19-.05.37.37,0,0,0,0-.21v-3.38a.37.37,0,0,0,0-.21.27.27,0,0,0-.19-.05v-.11h1v.11a.3.3,0,0,0-.2.05.48.48,0,0,0,0,.21v3.23h2.95a.22.22,0,0,0,.18-.06.4.4,0,0,0,0-.22h.11v1Z"/><path class="cls-2" d="M169.13,204.82a.35.35,0,0,0,0,.12.39.39,0,0,0,.16.28,1.64,1.64,0,0,0,.44.25,2.81,2.81,0,0,0,.6.2,3.14,3.14,0,0,0,.68.07,2.44,2.44,0,0,0,1.29-.26.78.78,0,0,0,.4-.68.47.47,0,0,0-.1-.32.58.58,0,0,0-.27-.21,1.47,1.47,0,0,0-.4-.09,3.91,3.91,0,0,0-.49,0h-.92a3.07,3.07,0,0,1-.88-.12,1.54,1.54,0,0,1-.67-.39,1.13,1.13,0,0,1-.26-.8,1.06,1.06,0,0,1,.19-.62,1.55,1.55,0,0,1,.51-.47,2.63,2.63,0,0,1,.76-.31,3.62,3.62,0,0,1,1-.11,4.44,4.44,0,0,1,.69.05l.52.12.35.13a.86.86,0,0,0,.24,0,.33.33,0,0,0,.15,0l.09-.09.11,0-.51,1.08-.11-.07a.35.35,0,0,0,0-.12c0-.05,0-.1-.11-.16a1.3,1.3,0,0,0-.32-.18,2.59,2.59,0,0,0-.49-.15,3,3,0,0,0-.62-.06,2.57,2.57,0,0,0-1.21.24.72.72,0,0,0-.44.64.37.37,0,0,0,.1.28.6.6,0,0,0,.27.17,1.49,1.49,0,0,0,.4.08l.49,0h.92a3.06,3.06,0,0,1,.88.15,1.6,1.6,0,0,1,.67.42,1.25,1.25,0,0,1,.26.85,1.19,1.19,0,0,1-.15.58,1.55,1.55,0,0,1-.47.49,2.31,2.31,0,0,1-.76.34,4.24,4.24,0,0,1-1.06.12,4.37,4.37,0,0,1-.87-.08,3,3,0,0,1-.64-.19l-.43-.19a.6.6,0,0,0-.27-.09.31.31,0,0,0-.2.11l-.09-.06.51-1.07Z"/><path class="cls-2" d="M175.21,202.55a.37.37,0,0,0,0-.21.27.27,0,0,0-.19-.05v-.11h2.51c.94,0,1.4.38,1.4,1.15a1,1,0,0,1-.11.48,1.16,1.16,0,0,1-.29.37,1.64,1.64,0,0,1-.43.24,1.35,1.35,0,0,1-.5.08h-1.77v1.43a.48.48,0,0,0,0,.21.3.3,0,0,0,.2.05v.11H175v-.11a.27.27,0,0,0,.19-.05.37.37,0,0,0,0-.21Zm2.31,1.43a.78.78,0,0,0,.57-.18.66.66,0,0,0,.19-.49.57.57,0,0,0-.22-.49,1.23,1.23,0,0,0-.67-.15h-1.6V204Z"/><path class="cls-2" d="M180.4,202.55a.37.37,0,0,0,0-.21.25.25,0,0,0-.17-.05v-.11H184a.27.27,0,0,0,.19-.05.28.28,0,0,0,0-.18h.11v1h-.11a.25.25,0,0,0,0-.17s-.09-.06-.19-.06H181v1.22h2.07a.27.27,0,0,0,.19,0,.25.25,0,0,0,.05-.17h.11v1h-.11a.25.25,0,0,0-.05-.17s-.09-.05-.19-.05H181v1.33h3a.26.26,0,0,0,.18-.05.24.24,0,0,0,.05-.18h.11v.95h-.11c0-.08,0-.13-.05-.16a.34.34,0,0,0-.18,0h-3.88v-.11a.25.25,0,0,0,.17-.05.37.37,0,0,0,0-.21Z"/><path class="cls-2" d="M189.17,203.34a.26.26,0,0,0,0-.07v-.09s0-.08-.12-.14a1.82,1.82,0,0,0-.32-.18,2.37,2.37,0,0,0-.45-.15,2.14,2.14,0,0,0-.5-.06,2,2,0,0,0-.72.12,1.62,1.62,0,0,0-.55.35,1.57,1.57,0,0,0-.34.51,1.63,1.63,0,0,0-.12.62,1.54,1.54,0,0,0,.12.61,1.27,1.27,0,0,0,.34.48,1.52,1.52,0,0,0,.52.32,1.76,1.76,0,0,0,.66.12,2.65,2.65,0,0,0,.66-.08,2.2,2.2,0,0,0,.48-.18,1.06,1.06,0,0,0,.3-.22c.07-.07.1-.12.1-.16a.41.41,0,0,0,0-.19l.1,0,.65.86-.1.07-.11-.07h-.07a.52.52,0,0,0-.23.09,2.47,2.47,0,0,1-.38.21,3.81,3.81,0,0,1-.55.2,3.53,3.53,0,0,1-.78.08,2.86,2.86,0,0,1-.89-.13,1.88,1.88,0,0,1-1.22-1,2.28,2.28,0,0,1,0-1.8,1.93,1.93,0,0,1,.5-.66,2,2,0,0,1,.74-.42,2.66,2.66,0,0,1,.9-.15,3.86,3.86,0,0,1,.66,0,3,3,0,0,1,.55.15l.31.12a.45.45,0,0,0,.19.06c.05,0,.1,0,.15-.11l.11,0-.46,1Z"/><path class="cls-2" d="M191.27,206.19a.3.3,0,0,0,.2-.05.48.48,0,0,0,0-.21v-3.38a.48.48,0,0,0,0-.21.3.3,0,0,0-.2-.05v-.11h1v.11a.27.27,0,0,0-.19.05.37.37,0,0,0,0,.21v3.38a.37.37,0,0,0,0,.21.27.27,0,0,0,.19.05v.11h-1Z"/><path class="cls-2" d="M193.54,206.19c.1,0,.17,0,.2-.07a.62.62,0,0,0,.1-.16l1.48-3.4a.47.47,0,0,0,.05-.16.1.1,0,0,0-.05-.08.39.39,0,0,0-.18,0v-.09h1.51v.11l-.14,0a.09.09,0,0,0-.07.09.3.3,0,0,0,0,.1.36.36,0,0,1,0,.09l1.61,3.41a.35.35,0,0,0,.08.13.29.29,0,0,0,.21.06v.11h-1.18v-.11a.54.54,0,0,0,.22,0s.06,0,.06-.08a.31.31,0,0,0,0-.11l0-.1-.38-.79h-2.28l-.32.72-.08.16a.24.24,0,0,0,0,.12s0,.06.06.08a.41.41,0,0,0,.19,0v.11h-1.05Zm1.45-1.63h1.83l-.94-2Z"/><path class="cls-2" d="M203.45,206.48a.18.18,0,0,0,0-.14.34.34,0,0,0-.18,0h-3.76v-.11a.27.27,0,0,0,.19-.05.37.37,0,0,0,0-.21v-3.38a.37.37,0,0,0,0-.21.27.27,0,0,0-.19-.05v-.11h1v.11a.3.3,0,0,0-.2.05.48.48,0,0,0,0,.21v3.23h2.95a.22.22,0,0,0,.18-.06.4.4,0,0,0,0-.22h.11v1Z"/><path class="cls-2" d="M208.13,202.93a.25.25,0,0,0,0-.17s-.09-.06-.19-.06h-1.45v3.23a.37.37,0,0,0,0,.21.27.27,0,0,0,.19.05v.11h-1.08v-.11a.27.27,0,0,0,.19-.05.37.37,0,0,0,0-.21V202.7h-1.45c-.1,0-.16,0-.19.06a.25.25,0,0,0-.05.17H204v-1h.11a.28.28,0,0,0,.05.18.27.27,0,0,0,.19.05h3.52a.27.27,0,0,0,.19-.05.28.28,0,0,0,0-.18h.11v1Z"/><path class="cls-2" d="M209.5,206.19a.3.3,0,0,0,.2-.05.48.48,0,0,0,0-.21v-3.38a.48.48,0,0,0,0-.21.3.3,0,0,0-.2-.05v-.11h1.05v.11a.27.27,0,0,0-.19.05.37.37,0,0,0,0,.21v3.38a.37.37,0,0,0,0,.21.27.27,0,0,0,.19.05v.11H209.5Z"/><path class="cls-2" d="M212.69,202.55a.37.37,0,0,0,0-.21.26.26,0,0,0-.18-.05v-.11h3.78a.27.27,0,0,0,.19-.05.28.28,0,0,0,.05-.18h.11v1h-.11a.25.25,0,0,0-.05-.17s-.09-.06-.19-.06h-2.94v1.22h2.07a.29.29,0,0,0,.19,0,.25.25,0,0,0,0-.17h.12v1h-.12a.25.25,0,0,0,0-.17s-.1-.05-.19-.05h-2.07v1.33h3a.27.27,0,0,0,.19-.05.3.3,0,0,0,.05-.18h.11v.95h-.11a.22.22,0,0,0-.05-.16.35.35,0,0,0-.19,0h-3.88v-.11a.26.26,0,0,0,.18-.05.37.37,0,0,0,0-.21Z"/><path class="cls-2" d="M218.3,205.15c0,.06,0,.1,0,.12s.05.11.15.18a2.28,2.28,0,0,0,.38.18,5.07,5.07,0,0,0,.56.14,3.42,3.42,0,0,0,.65.06,2.33,2.33,0,0,0,1-.17.53.53,0,0,0,.36-.49.44.44,0,0,0-.25-.42,2.4,2.4,0,0,0-.62-.18c-.25,0-.52-.06-.82-.07a4.92,4.92,0,0,1-.81-.12,1.4,1.4,0,0,1-.62-.31.82.82,0,0,1-.25-.64,1.17,1.17,0,0,1,.15-.61,1.07,1.07,0,0,1,.39-.4,1.65,1.65,0,0,1,.56-.23,3.71,3.71,0,0,1,.67-.07,4.09,4.09,0,0,1,.65,0l.48.12c.14.05.25.08.33.12l.17.05a.15.15,0,0,0,.08,0,.72.72,0,0,0,.07-.11l.13,0-.35.91-.11,0s0,0,0,0,0,0,0-.08,0-.1-.13-.15a1.55,1.55,0,0,0-.34-.16,4.09,4.09,0,0,0-.48-.13,3.19,3.19,0,0,0-.54,0,2.32,2.32,0,0,0-.59.06,1,1,0,0,0-.36.16.51.51,0,0,0-.17.22.8.8,0,0,0-.05.26.41.41,0,0,0,.25.39,2,2,0,0,0,.63.16c.24,0,.52.06.81.07a4.92,4.92,0,0,1,.81.12,1.4,1.4,0,0,1,.62.31.8.8,0,0,1,.25.63,1.1,1.1,0,0,1-.48,1,3,3,0,0,1-1.57.31,4.43,4.43,0,0,1-.66-.05l-.53-.12-.39-.13a.77.77,0,0,0-.23-.06.16.16,0,0,0-.12,0,.31.31,0,0,0-.05.1l-.11,0,.36-.95Z"/><line class="cls-3" x1="134.31" y1="203.91" x2="99" y2="203.91"/><line class="cls-3" x1="261" y1="203.91" x2="225.69" y2="203.91"/><line class="cls-3" x1="99" y1="153.5" x2="261" y2="153.5"/></g></svg>