<svg id="white-menu" xmlns="http://www.w3.org/2000/svg" viewBox="0 0 322.52 322.52"><defs><style>.cls-1{fill:#4e6bb0;}</style></defs><path class="cls-1" d="M308.34,0H180.16A14.19,14.19,0,0,0,166,14.18V142.36a14.19,14.19,0,0,0,14.18,14.18H308.34a14.19,14.19,0,0,0,14.18-14.18V14.18A14.19,14.19,0,0,0,308.34,0Zm4.73,142.36a4.73,4.73,0,0,1-4.73,4.73H180.16a4.73,4.73,0,0,1-4.73-4.73h0V14.18a4.73,4.73,0,0,1,4.73-4.73H308.34a4.73,4.73,0,0,1,4.73,4.73h0Z" transform="translate(0)"/><path class="cls-1" d="M142.36,166H14.18A14.19,14.19,0,0,0,0,180.16V308.34a14.19,14.19,0,0,0,14.18,14.18H142.36a14.19,14.19,0,0,0,14.18-14.18V180.16A14.19,14.19,0,0,0,142.36,166Zm4.73,142.36a4.73,4.73,0,0,1-4.73,4.73H14.18a4.73,4.73,0,0,1-4.73-4.73V180.16a4.73,4.73,0,0,1,4.73-4.73H142.36a4.73,4.73,0,0,1,4.73,4.73h0Z" transform="translate(0)"/><path class="cls-1" d="M142.36,0H14.18A14.19,14.19,0,0,0,0,14.18V142.36a14.19,14.19,0,0,0,14.18,14.18h9.44a4.73,4.73,0,1,0,.43-9.45H14.18a4.73,4.73,0,0,1-4.73-4.73h0V14.18a4.73,4.73,0,0,1,4.73-4.73H142.36a4.73,4.73,0,0,1,4.73,4.73h0V142.36a4.73,4.73,0,0,1-4.73,4.73H42.52a4.73,4.73,0,0,0,0,9.45h99.84a14.19,14.19,0,0,0,14.18-14.18V14.18A14.19,14.19,0,0,0,142.36,0Z" transform="translate(0)"/><path class="cls-1" d="M308.34,166H180.16A14.19,14.19,0,0,0,166,180.16V308.34a14.19,14.19,0,0,0,14.18,14.18H308.34a14.19,14.19,0,0,0,14.18-14.18V180.16A14.19,14.19,0,0,0,308.34,166Zm4.73,142.36a4.73,4.73,0,0,1-4.73,4.73H180.16a4.73,4.73,0,0,1-4.73-4.73V180.16a4.73,4.73,0,0,1,4.73-4.73H308.34a4.73,4.73,0,0,1,4.73,4.73h0Z" transform="translate(0)"/></svg>