<svg id="Black_-_BLO" data-name="Black - BLO" xmlns="http://www.w3.org/2000/svg" viewBox="0 0 84.34 61.11"><defs><style>.cls-1{fill:#10131a;}</style></defs><path class="cls-1" d="M344.34,372.74c0,10.42-16.29,22.38-35.22,23.13a163.57,163.57,0,0,1-10.88,16.22c9.4,4.66,18.59,10.14,26,10.14,4.93,0,22.89-5.8,23.43-5.8a.57.57,0,0,1,.47.47c0,.34-18.63,7.16-24.17,7.16-7.58,0-17.18-5.82-26.84-10.55-6.29,7.57-13.32,13.05-21.91,13.05-6.28,0-11.42-3.59-11.42-10,0-6.76,6.83-10.95,13.59-10.95,6.08,0,12.64,2.57,19.06,5.68a156.69,156.69,0,0,0,10.21-15.35c-14-.13-21.63-6.76-21.63-14.19s7.16-11.29,12.43-11.29c3.92,0,6.09,1.21,6.09,1.55a.52.52,0,0,1-.48.54,15.15,15.15,0,0,0-5.4-1c-4.67,0-10.68,3.92-10.68,9.87,0,7,6.55,12.71,20.68,12.91,8.79-14.53,17.17-28.87,28.12-28.87C341.23,365.44,344.34,368.22,344.34,372.74Zm-49,39.89c-6.29-3-12.57-5.41-18.32-5.41-5.34,0-11.42,3.79-11.42,9.33,0,5,5,8.32,9.8,8.32C283.09,424.87,289.52,419.8,295.33,412.63Zm14.74-18.39c16.76-.67,32.51-11.83,32.51-22,0-3.18-2.77-5.27-6-5.27C326.49,367,318.59,380.25,310.07,394.24Z" transform="translate(-263.83 -365.44)"/><path class="cls-1" d="M313.53,394.25c-1.2,0-2.38.06-3.56.15l-.81,1.35a42.35,42.35,0,0,1,4.37-.23c14.18,0,21.05,7,21.05,16.47a24.59,24.59,0,0,1-2.42,10.26l2-.54a25.74,25.74,0,0,0,2-9.72C336.13,401.35,328.48,394.25,313.53,394.25Z" transform="translate(-263.83 -365.44)"/></svg>