<svg id="SASS" xmlns="http://www.w3.org/2000/svg" viewBox="0 0 22.68 22.94"><defs><style>.cls-1{fill:#515f80;}</style></defs><path class="cls-1" d="M258.26,286.64a1.55,1.55,0,0,1-.64.08.49.49,0,0,1-.48-.52,1.85,1.85,0,0,1,.23-1,3.94,3.94,0,0,1,1.19-1.28,13.44,13.44,0,0,1,1.44-1c.15-.09.16-.09.18.09a2.25,2.25,0,0,1,.07.67A3.12,3.12,0,0,1,258.26,286.64Z" transform="translate(-253.9 -267.85)"/><path class="cls-1" d="M263.28,284.23a2.17,2.17,0,0,1-.15-.82,4.57,4.57,0,0,1,1-2.87,1.16,1.16,0,0,1,.68-.5c.19-.05.29,0,.25.23a7.16,7.16,0,0,1-.43,1.54c-.25.68-.49,1.37-.8,2a1.51,1.51,0,0,1-.27.42C263.46,284.38,263.36,284.37,263.28,284.23Z" transform="translate(-253.9 -267.85)"/><path class="cls-1" d="M268.41,284.35c.37-.42.74-.83,1.06-1.26,0,0,0,0,0,0a1.16,1.16,0,0,1-.14.56,2.2,2.2,0,0,1-.89.82s-.1.05-.13,0S268.38,284.37,268.41,284.35Z" transform="translate(-253.9 -267.85)"/><path class="cls-1" d="M272.1,282.63a3.35,3.35,0,0,1,.48-.59c.07-.06.11-.06.13,0a1.62,1.62,0,0,1,0,.31,1.25,1.25,0,0,1-.79,1.2c-.06,0-.12.07-.18,0s0-.13,0-.19A3.06,3.06,0,0,1,272.1,282.63Z" transform="translate(-253.9 -267.85)"/><path class="cls-1" d="M276.19,281.12a1,1,0,0,0,.25.05,11.39,11.39,0,0,1-11.2,9.61,11.2,11.2,0,0,1-7.49-2.86,3.74,3.74,0,0,0,2.94-1.85,3.88,3.88,0,0,0,.56-1.76,4.14,4.14,0,0,0-.16-1.64c0-.08-.13-.18-.09-.26s.15-.11.24-.16c.35-.21.68-.41,1-.61a.42.42,0,0,1,0,.17,4.94,4.94,0,0,0-.2,2.29,3.29,3.29,0,0,0,.56,1.35.86.86,0,0,0,1.29,0,5.82,5.82,0,0,0,.64-1.17c.1-.23.19-.44.28-.67,0,.27,0,.53,0,.8a1.79,1.79,0,0,0,.18.74.55.55,0,0,0,.75.2,1.7,1.7,0,0,0,.64-.69,32.52,32.52,0,0,0,1.8-3.65l.35-.84a1,1,0,0,0,0,.22,5.91,5.91,0,0,0,.61,1.71.24.24,0,0,1,0,.31c-.27.36-.56.71-.86,1.07s-.5.59-.71.91a.4.4,0,0,0,.23.66,1,1,0,0,0,.29,0,3.07,3.07,0,0,0,1.51-.43,1.78,1.78,0,0,0,1-1.64,2.36,2.36,0,0,0-.24-1,.28.28,0,0,1,0-.2,18.51,18.51,0,0,0,1.18-2,1.58,1.58,0,0,1,.2-.36,1,1,0,0,0,0,.1,5.52,5.52,0,0,0,.54,1.62c.08.13,0,.2-.07.29a4.54,4.54,0,0,0-.93,1.11,2.12,2.12,0,0,0-.32,1.07.56.56,0,0,0,.74.58,3,3,0,0,0,1.2-.54,1.71,1.71,0,0,0,.77-2.05c-.1-.34-.1-.33.24-.44A4.9,4.9,0,0,1,276.19,281.12Z" transform="translate(-253.9 -267.85)"/><path class="cls-1" d="M276.58,279.32a8.94,8.94,0,0,1-.05,1,4.73,4.73,0,0,0-2.84.25c-.35.14-.32.14-.51-.2a3,3,0,0,1-.36-1.36,3.06,3.06,0,0,1,.24-1.2c.12-.3,0-.4-.29-.44a5.61,5.61,0,0,0-.58,0c-.49.06-.54.1-.67.58a4.45,4.45,0,0,1-.27.85,21.9,21.9,0,0,1-1.05,2,1.94,1.94,0,0,1-.21.34,2.59,2.59,0,0,1-.4-1.34,3.36,3.36,0,0,1,.28-1.32.21.21,0,0,0-.12-.29.27.27,0,0,0-.17-.06,3,3,0,0,0-.95.06.34.34,0,0,0-.26.28,4.93,4.93,0,0,1-.28.9c-.34.8-.7,1.6-1,2.4s-.61,1.38-1,2.05c0,0-.05.13-.11.12s0-.1,0-.16a4.44,4.44,0,0,1,.18-1.14c.15-.59.3-1.19.46-1.78a.34.34,0,0,0-.18-.37.5.5,0,0,0-.61,0,5.16,5.16,0,0,0,0-.67.8.8,0,0,0-.62-.85,1.4,1.4,0,0,0-.78.15,4,4,0,0,0-1.43,1.2.53.53,0,0,1-.15.15l-2.18,1.2a.15.15,0,0,1-.2,0,8.6,8.6,0,0,0-1.21-1.05,14.68,14.68,0,0,1-1.7-1.47,2.89,2.89,0,0,1-.66-1.12,2.6,2.6,0,0,1,.29-2,6.2,6.2,0,0,1,1.63-1.83,16.17,16.17,0,0,1,3.36-2,9.42,9.42,0,0,1,4.2-.92,3.67,3.67,0,0,1,1.68.42,1.25,1.25,0,0,1,.67.93,2.17,2.17,0,0,1-.26,1.42,5.37,5.37,0,0,1-2.23,2.27,7.45,7.45,0,0,1-2.52.9,4.84,4.84,0,0,1-1.47.06,2.3,2.3,0,0,1-1.49-.74c-.05-.06-.11-.1-.18-.06s-.07.11-.06.18a.25.25,0,0,0,0,.13,1.62,1.62,0,0,0,.52.69,3.23,3.23,0,0,0,2,.65,8.71,8.71,0,0,0,2.15-.25,6.44,6.44,0,0,0,3.88-2.52,4.3,4.3,0,0,0,.91-2.71,2.35,2.35,0,0,0-.69-1.69,4,4,0,0,0-2-1,7.37,7.37,0,0,0-2.48-.11,10.51,10.51,0,0,0-2.14.48,20,20,0,0,0-3.06,1.37,13.16,13.16,0,0,0-2.77,2,6.51,6.51,0,0,0-1.73,2.48,2.28,2.28,0,0,0-.16,1.31,3.71,3.71,0,0,0,.8,1.55,10,10,0,0,0,2,1.76c.58.41,1.18.8,1.73,1.25.17.12.16.12,0,.22l-.65.35a9.39,9.39,0,0,0-2.35,1.76,2.6,2.6,0,0,0-.67,1.21,11.53,11.53,0,0,1-1.91-6.36,11.34,11.34,0,1,1,22.68,0Z" transform="translate(-253.9 -267.85)"/></svg>