<svg id="Ubuntu" xmlns="http://www.w3.org/2000/svg" viewBox="0 0 22.94 23.56"><defs><style>.cls-1{fill:#515f80;}</style></defs><g id="ubuntu-2" data-name="ubuntu"><path class="cls-1" d="M261.65,319.53a5.7,5.7,0,0,1,2.18-4.48l-2-3.25a9.49,9.49,0,0,0-3.58,5.05,3.42,3.42,0,0,1,.1,5.69,9.5,9.5,0,0,0,3.57,4.78l1.88-3.36A5.68,5.68,0,0,1,261.65,319.53Z" transform="translate(-253.9 -308.01)"/><path class="cls-1" d="M258.83,319.73a2.47,2.47,0,1,1-2.46-2.46A2.46,2.46,0,0,1,258.83,319.73Z" transform="translate(-253.9 -308.01)"/><path class="cls-1" d="M272.66,325.68a3.49,3.49,0,0,1,1.59.39,9.46,9.46,0,0,0,2.59-5.88l-3.83-.07a5.7,5.7,0,0,1-8,4.62l-1.9,3.33a9.53,9.53,0,0,0,4.2,1,9.14,9.14,0,0,0,1.9-.19A3.43,3.43,0,0,1,272.66,325.68Z" transform="translate(-253.9 -308.01)"/><path class="cls-1" d="M275.13,329.11a2.47,2.47,0,1,1-2.47-2.46A2.46,2.46,0,0,1,275.13,329.11Z" transform="translate(-253.9 -308.01)"/><path class="cls-1" d="M274.51,313.27a3.35,3.35,0,0,1-2,.63,3.42,3.42,0,0,1-3.43-3.42c0-.1,0-.2,0-.3a9.66,9.66,0,0,0-6,.83l1.89,3.33a5.76,5.76,0,0,1,2.35-.51,5.68,5.68,0,0,1,5.65,5l3.83-.12A9.43,9.43,0,0,0,274.51,313.27Z" transform="translate(-253.9 -308.01)"/><path class="cls-1" d="M275,310.48a2.47,2.47,0,1,1-2.46-2.47A2.46,2.46,0,0,1,275,310.48Z" transform="translate(-253.9 -308.01)"/></g></svg>