<svg id="Git" xmlns="http://www.w3.org/2000/svg" viewBox="0 0 22.94 22.94"><defs><style>.cls-1{fill:#515f80;}</style></defs><path class="cls-1" d="M266.07,369.15a2.92,2.92,0,0,1-2.06-.86l-8.56-8.56a2.9,2.9,0,0,1,0-4.1l8.56-8.57a2.9,2.9,0,0,1,4.11,0l8.57,8.56a2.92,2.92,0,0,1,0,4.11l-8.56,8.56A2.92,2.92,0,0,1,266.07,369.15Zm0-21.95a1.9,1.9,0,0,0-1.35.56l-8.56,8.56a1.92,1.92,0,0,0-.56,1.35,1.88,1.88,0,0,0,.56,1.35l8.56,8.57a1.88,1.88,0,0,0,1.35.56,1.92,1.92,0,0,0,1.35-.56L276,359a1.91,1.91,0,0,0,0-2.7l-8.56-8.57A1.9,1.9,0,0,0,266.07,347.2Z" transform="translate(-254.6 -346.21)"/><path class="cls-1" d="M266.07,354.68a2.49,2.49,0,1,1,2.49-2.49A2.48,2.48,0,0,1,266.07,354.68Zm0-4a1.5,1.5,0,1,0,1.5,1.5A1.5,1.5,0,0,0,266.07,350.69Z" transform="translate(-254.6 -346.21)"/><path class="cls-1" d="M266.07,364.66a2.5,2.5,0,1,1,2.49-2.49A2.49,2.49,0,0,1,266.07,364.66Zm0-4a1.5,1.5,0,1,0,1.5,1.5A1.5,1.5,0,0,0,266.07,360.67Z" transform="translate(-254.6 -346.21)"/><path class="cls-1" d="M271.06,359.67a2.5,2.5,0,1,1,2.49-2.49A2.49,2.49,0,0,1,271.06,359.67Zm0-4a1.5,1.5,0,1,0,1.49,1.5A1.5,1.5,0,0,0,271.06,355.68Z" transform="translate(-254.6 -346.21)"/><path class="cls-1" d="M262.48,349.3l.7-.71,1.83,1.83-.7.71Z" transform="translate(-254.6 -346.21)"/><path class="cls-1" d="M267.12,354l.71-.7,2.17,2.16-.71.71Z" transform="translate(-254.6 -346.21)"/><path class="cls-1" d="M265.57,354.19h1v6h-1Z" transform="translate(-254.6 -346.21)"/></svg>