<svg id="CSS" xmlns="http://www.w3.org/2000/svg" viewBox="0 0 22.94 25.63"><defs><style>.cls-1{fill:#515f80;}</style></defs><path class="cls-1" d="M276.66,287.48a.68.68,0,0,0-.49-.22H254.59a.68.68,0,0,0-.69.67.08.08,0,0,0,0,.07l2,21.58a.66.66,0,0,0,.47.59l9.45,2.69a1.25,1.25,0,0,0,.19,0l.21,0,8.09-2.71a.65.65,0,0,0,.46-.57l2-21.58A.68.68,0,0,0,276.66,287.48Zm-3.87,5.93-1.35,12.14a.69.69,0,0,1-.49.57l-4.72,1.35a.52.52,0,0,1-.18,0,.42.42,0,0,1-.19,0l-4.72-1.34a.7.7,0,0,1-.47-.49l-.67-2.69a.68.68,0,0,1,.47-.84.67.67,0,0,1,.83.48v0l.57,2.33,4.17,1.19,4.09-1.17.61-5.55H260a.67.67,0,1,1,0-1.34h10.93l.44-4.05H259.3a.69.69,0,0,1-.67-.68.68.68,0,0,1,.67-.67h12.82a.67.67,0,0,1,.67.67Z" transform="translate(-253.9 -287.26)"/></svg>