<svg id="PS" xmlns="http://www.w3.org/2000/svg" viewBox="0 0 22.94 22.36"><defs><style>.cls-1{fill:#515f80;}</style></defs><path class="cls-1" d="M264.68,373.79a1.7,1.7,0,0,1-.08,1.84,2.48,2.48,0,0,1-1.88.68h-.51l-.36,0v-3.2a1.85,1.85,0,0,1,.4,0h.63A2,2,0,0,1,264.68,373.79Z" transform="translate(-254.6 -365.48)"/><path class="cls-1" d="M273.48,365.48H258.66a4.06,4.06,0,0,0-4.06,4.06v14.24a4.06,4.06,0,0,0,4.06,4.06h14.82a4.06,4.06,0,0,0,4.06-4.06V369.54A4.06,4.06,0,0,0,273.48,365.48Zm-7.06,11.13a3.32,3.32,0,0,1-1.55,1.18,6.18,6.18,0,0,1-2.15.32,2.77,2.77,0,0,1-.47,0h-.42v3.06a.12.12,0,0,1-.09.15h-1.87a.12.12,0,0,1-.11-.13v-9.83c0-.08,0-.11.1-.11s.32,0,.54,0h.71c.28,0,.55,0,.85,0h.86a5.44,5.44,0,0,1,2,.3,3.45,3.45,0,0,1,1.28.78,3.14,3.14,0,0,1,.7,1.1,3.72,3.72,0,0,1,.22,1.24A3.37,3.37,0,0,1,266.42,376.61Zm6.77,3.73a2.39,2.39,0,0,1-1.07.84,4.15,4.15,0,0,1-1.73.31,7,7,0,0,1-1.29-.11,4.68,4.68,0,0,1-1-.32.16.16,0,0,1-.11-.18v-1.65a.24.24,0,0,1,0-.1s.07,0,.1,0a4.14,4.14,0,0,0,1.18.46,4.73,4.73,0,0,0,1.13.14,2,2,0,0,0,.8-.13.46.46,0,0,0,.25-.39.5.5,0,0,0-.22-.39,5.06,5.06,0,0,0-.94-.46,5.41,5.41,0,0,1-1.36-.68,2.31,2.31,0,0,1-.73-.82,2,2,0,0,1-.22-1,2.22,2.22,0,0,1,.33-1.16,2.34,2.34,0,0,1,1-.88,3.75,3.75,0,0,1,1.68-.33,7.72,7.72,0,0,1,1.18.09,4.2,4.2,0,0,1,.83.21.24.24,0,0,1,.1.1s0,.08,0,.11v1.56a.13.13,0,0,1,0,.1.54.54,0,0,1-.18,0,3.7,3.7,0,0,0-.91-.34,6.48,6.48,0,0,0-1.08-.11,1.85,1.85,0,0,0-.57.06.5.5,0,0,0-.29.19.52.52,0,0,0-.08.26.43.43,0,0,0,.09.25,1.35,1.35,0,0,0,.32.26l.69.32a6.28,6.28,0,0,1,1.46.68,2.45,2.45,0,0,1,.77.8,2.32,2.32,0,0,1-.16,2.26Z" transform="translate(-254.6 -365.48)"/></svg>