<svg id="Ai" xmlns="http://www.w3.org/2000/svg" viewBox="0 0 22.94 22.17"><defs><style>.cls-1{fill:#515f80;}</style></defs><g id="Surfaces"><g id="Photo_Surface" data-name="Photo Surface"><g id="Outline_no_shadow" data-name="Outline no shadow"><path class="cls-1" d="M264.43,392.31c.08.32,1.27,4.19,1.34,4.34h-2.66l1.3-4.34Z" transform="translate(-254.6 -384.6)"/><path class="cls-1" d="M273.52,384.6H258.61a4,4,0,0,0-4,4v14.14a4,4,0,0,0,4,4h14.91a4,4,0,0,0,4-4V388.62A4,4,0,0,0,273.52,384.6ZM269,401h-1.8a.24.24,0,0,1-.16-.09l-.92-2.58h-3.43l-.87,2.54a.15.15,0,0,1-.16.13h-1.61c-.11,0-.14-.06-.11-.16l3.09-9.2a2.61,2.61,0,0,0,.13-.86.09.09,0,0,1,.08-.1h2.27c.07,0,.1,0,.11.06l3.46,10.12C269.14,401,269.13,401,269,401Zm3-7.52v7.39a.11.11,0,0,1-.09.13h-1.67a.16.16,0,0,1-.15-.11v-7.41c0-.06,0-.12.1-.12s0,0,0,0h1.66a.09.09,0,0,1,.12.09Zm-.12-1.21a1.07,1.07,0,0,1-.83.32,1.18,1.18,0,0,1-.83-.32,1.1,1.1,0,0,1-.32-.83,1.18,1.18,0,0,1,.32-.84,1.15,1.15,0,0,1,.84-.3,1.1,1.1,0,0,1,.83.3,1.22,1.22,0,0,1,.31.84A1.1,1.1,0,0,1,271.87,392.31Z" transform="translate(-254.6 -384.6)"/></g></g></g></svg>