<svg id="HTML" xmlns="http://www.w3.org/2000/svg" viewBox="0 0 22.94 25.63"><defs><style>.cls-1{fill:#515f80;}</style></defs><path class="cls-1" d="M316.88,247.31a.64.64,0,0,0-.49-.22h-21.6a.67.67,0,0,0-.66.66v.07l2,21.59a.64.64,0,0,0,.49.58l9.45,2.71a.35.35,0,0,0,.18,0,.56.56,0,0,0,.22,0l8.09-2.69a.68.68,0,0,0,.46-.58l2-21.59A.68.68,0,0,0,316.88,247.31Zm-4.54,6.53H300.28l.52,4H311a.68.68,0,0,1,.68.66s0,.05,0,.07l-.66,6.75a.74.74,0,0,1-.47.58l-4,1.34a.83.83,0,0,1-.22,0,.34.34,0,0,1-.18,0L301.36,266a.66.66,0,0,1-.46-.48l-.68-2.71a.68.68,0,0,1,.48-.83.68.68,0,0,1,.83.48v0l.58,2.32,4.14,1.2,3.44-1.15.56-5.57H300.2a.68.68,0,0,1-.68-.6l-.68-5.39a.67.67,0,0,1,.6-.74.12.12,0,0,1,.08,0h12.82a.68.68,0,0,1,.68.68A.69.69,0,0,1,312.34,253.84Z" transform="translate(-294.13 -247.09)"/></svg>