<svg id="github" xmlns="http://www.w3.org/2000/svg" viewBox="0 0 411.45 411.45"><defs><style>.cls-1{fill:#515f80;}</style></defs><path class="cls-1" d="M306,166.42c-113,0-205.72,92.73-205.72,205.72,0,96.43,67.66,184,157.5,205.73V509.81a50.29,50.29,0,0,1-26.15-.67c-12.16-3.59-22-11.68-29.37-24-4.68-7.89-13-16.44-21.6-15.81l-2.12-24c18.68-1.6,34.85,11.39,44.45,27.51,4.26,7.17,9.17,11.37,15.46,13.23,6.09,1.8,12.63.94,20.24-1.75,1.91-15.25,8.9-21,14.17-29v0c-53.58-8-74.94-36.42-83.41-58.86-11.23-29.79-5.21-67,14.66-90.53a3.26,3.26,0,0,0,.81-2.5c-9.11-27.51,2-50.26,2.4-52.67,10.51,3.1,12.21-3.13,45.65,17.18l5.78,3.47c2.42,1.44,1.66.62,4.07.44A174.32,174.32,0,0,1,306,265.72a175.24,175.24,0,0,1,43.77,6.22l1.87.19c-.16,0,.51-.12,1.63-.79,41.77-25.3,40.27-17,51.47-20.67.4,2.42,11.35,25.54,2.34,52.7-1.21,3.74,36.21,38,15.47,93-8.47,22.45-29.83,50.88-83.41,58.87v0c6.87,10.46,15.12,16,15.08,37.63v85c89.85-21.71,157.5-109.3,157.5-205.73C511.73,259.15,419,166.42,306,166.42Z" transform="translate(-100.28 -166.42)"/></svg>