<svg id="www" xmlns="http://www.w3.org/2000/svg" viewBox="0 0 14.4 14.4"><defs><style>.cls-1{fill:#515f80;}</style></defs><path class="cls-1" d="M294.12,395.28a7.21,7.21,0,1,0,2.11,5.1A7.13,7.13,0,0,0,294.12,395.28Zm-9.58.6a6.4,6.4,0,0,1,2.18-1.43,6.79,6.79,0,0,0-.6.93,8.29,8.29,0,0,0-.55,1.32c-.54-.09-1-.2-1.48-.32A5.35,5.35,0,0,1,284.54,395.88Zm-1,1.22a12.32,12.32,0,0,0,1.76.42A11.79,11.79,0,0,0,285,400h-2.34A6.32,6.32,0,0,1,283.58,397.1Zm0,6.47a6.36,6.36,0,0,1-.85-2.77H285a12.91,12.91,0,0,0,.3,2.37A13.23,13.23,0,0,0,283.54,403.57Zm1,1.3a6.47,6.47,0,0,1-.5-.56,13.85,13.85,0,0,1,1.52-.33,7.82,7.82,0,0,0,.56,1.34,6,6,0,0,0,.66,1A6.26,6.26,0,0,1,284.54,404.87Zm4.07,1.75a3.13,3.13,0,0,1-1.74-1.69,7.87,7.87,0,0,1-.46-1.06c.7-.08,1.44-.12,2.2-.13Zm0-3.73c-.84,0-1.67.07-2.44.16a11.42,11.42,0,0,1-.3-2.25h2.74v2.09Zm0-2.94h-2.74a11.3,11.3,0,0,1,.31-2.31,20.59,20.59,0,0,0,2.43.17Zm0-3c-.76,0-1.5-.07-2.19-.15a8.29,8.29,0,0,1,.45-1.05,3.16,3.16,0,0,1,1.74-1.69V397Zm5.9.18a6.24,6.24,0,0,1,.86,2.8H293a12.4,12.4,0,0,0-.31-2.41A13.12,13.12,0,0,0,294.51,397.15Zm-1-1.27c.17.17.32.35.47.53a13.34,13.34,0,0,1-1.49.32,8.3,8.3,0,0,0-.57-1.35,5.31,5.31,0,0,0-.6-.93A6.53,6.53,0,0,1,293.53,395.88Zm-4.08,4.92h2.74a11.73,11.73,0,0,1-.3,2.27,20.92,20.92,0,0,0-2.44-.17Zm0-.85v-2.13c.85,0,1.67-.07,2.44-.16a11.2,11.2,0,0,1,.3,2.29Zm0-5.87h0a3.17,3.17,0,0,1,1.75,1.69,8,8,0,0,1,.45,1.07,21.7,21.7,0,0,1-2.2.13Zm0,12.54v-2.88c.77,0,1.51.07,2.2.15a7.57,7.57,0,0,1-.45,1A3.14,3.14,0,0,1,289.45,406.62Zm4.08-1.75a6.3,6.3,0,0,1-2.25,1.45,5.42,5.42,0,0,0,.66-1,8.19,8.19,0,0,0,.56-1.31,13.45,13.45,0,0,1,1.5.33C293.85,404.52,293.7,404.7,293.53,404.87Zm1-1.26a12.78,12.78,0,0,0-1.79-.42,12.19,12.19,0,0,0,.32-2.39h2.33A6.28,6.28,0,0,1,294.51,403.61Z" transform="translate(-281.83 -393.18)"/></svg>