<svg id="Layer_1" data-name="Layer 1" xmlns="http://www.w3.org/2000/svg" viewBox="0 0 71.91 77.81"><defs><style>.cls-1{fill:#515f80;}.cls-2{fill:#45516e;}.cls-3{fill:#fff;stroke:#fff;stroke-miterlimit:10;stroke-width:0.25px;}</style></defs><g id="BG"><path class="cls-1" d="M973.07,506.64h0a16.8,16.8,0,0,0,9.56,5.52h0a16.82,16.82,0,0,1,12.73,22h0a16.72,16.72,0,0,0,0,11h0a16.83,16.83,0,0,1-12.73,22h0a16.8,16.8,0,0,0-9.56,5.52h0a16.83,16.83,0,0,1-25.46,0h0a16.8,16.8,0,0,0-9.56-5.52h0a16.83,16.83,0,0,1-12.73-22h0a16.72,16.72,0,0,0,0-11h0a16.82,16.82,0,0,1,12.73-22h0a16.8,16.8,0,0,0,9.56-5.52h0A16.83,16.83,0,0,1,973.07,506.64Z" transform="translate(-924.38 -500.82)"/><path class="cls-2" d="M960.34,575.63a15.93,15.93,0,0,1-12.05-5.51,14.55,14.55,0,0,0-8.25-4.76,15.93,15.93,0,0,1-12-20.88,14.52,14.52,0,0,0,0-9.52,15.92,15.92,0,0,1,12-20.87,14.55,14.55,0,0,0,8.25-4.76,15.93,15.93,0,0,1,24.1,0h0a14.58,14.58,0,0,0,8.25,4.76A15.92,15.92,0,0,1,992.69,535a14.52,14.52,0,0,0,0,9.52,15.93,15.93,0,0,1-12.05,20.88,14.58,14.58,0,0,0-8.25,4.76A15.93,15.93,0,0,1,960.34,575.63Zm0-70.39a14.47,14.47,0,0,0-11,5,16,16,0,0,1-9.06,5.23,14.5,14.5,0,0,0-11,19,16,16,0,0,1,0,10.45,14.5,14.5,0,0,0,11,19,16,16,0,0,1,9.06,5.23,14.5,14.5,0,0,0,21.94,0,16,16,0,0,1,9.06-5.23,14.5,14.5,0,0,0,11-19,16,16,0,0,1,0-10.45,14.5,14.5,0,0,0-11-19,16,16,0,0,1-9.06-5.23A14.47,14.47,0,0,0,960.34,505.24Z" transform="translate(-924.38 -500.82)"/><path class="cls-2" d="M960.34,572.09a14.19,14.19,0,0,1-10.74-4.91,13.55,13.55,0,0,0-7.67-4.43,14.2,14.2,0,0,1-10.74-18.6,13.56,13.56,0,0,0,0-8.85,14.21,14.21,0,0,1,10.74-18.61,13.59,13.59,0,0,0,7.67-4.42,14.18,14.18,0,0,1,21.48,0,13.59,13.59,0,0,0,7.67,4.42,14.21,14.21,0,0,1,10.74,18.61,13.56,13.56,0,0,0,0,8.85,14.2,14.2,0,0,1-10.74,18.6,13.55,13.55,0,0,0-7.67,4.43A14.19,14.19,0,0,1,960.34,572.09Zm0-64a13.48,13.48,0,0,0-10.2,4.66,14.26,14.26,0,0,1-8.07,4.66,13.48,13.48,0,0,0-10.21,17.67,14.18,14.18,0,0,1,0,9.32,13.48,13.48,0,0,0,10.21,17.67,14.31,14.31,0,0,1,8.07,4.66,13.47,13.47,0,0,0,20.4,0,14.31,14.31,0,0,1,8.07-4.66,13.48,13.48,0,0,0,10.21-17.67,14.18,14.18,0,0,1,0-9.32,13.48,13.48,0,0,0-10.21-17.67,14.26,14.26,0,0,1-8.07-4.66A13.48,13.48,0,0,0,960.34,508.07Z" transform="translate(-924.38 -500.82)"/></g><path class="cls-3" d="M978.1,528.14c0,4.82-7.55,10.36-16.31,10.71a75.53,75.53,0,0,1-5,7.51c4.35,2.16,8.61,4.7,12,4.7,2.29,0,10.6-2.69,10.86-2.69a.27.27,0,0,1,.21.22c0,.16-8.63,3.31-11.19,3.31-3.51,0-8-2.69-12.44-4.88-2.91,3.51-6.16,6-10.14,6-2.91,0-5.29-1.66-5.29-4.63,0-3.13,3.16-5.07,6.29-5.07,2.82,0,5.86,1.19,8.83,2.63a71.92,71.92,0,0,0,4.73-7.11c-6.48-.06-10-3.13-10-6.58s3.32-5.23,5.76-5.23c1.82,0,2.82.57,2.82.72a.24.24,0,0,1-.22.25,7,7,0,0,0-2.51-.47c-2.16,0-4.94,1.82-4.94,4.58,0,3.22,3,5.88,9.58,6,4.07-6.74,8-13.37,13-13.37C976.66,524.76,978.1,526,978.1,528.14Zm-22.7,18.47c-2.91-1.38-5.83-2.5-8.49-2.5-2.47,0-5.29,1.75-5.29,4.32,0,2.32,2.32,3.85,4.54,3.85C949.73,552.28,952.71,549.93,955.4,546.61Zm6.82-8.51c7.77-.32,15.07-5.48,15.07-10.18a2.58,2.58,0,0,0-2.79-2.44C969.83,525.48,966.17,531.61,962.22,538.1Z" transform="translate(-924.38 -500.82)"/><path class="cls-3" d="M963.83,538.1c-.56,0-1.11,0-1.65.07l-.37.62c.66-.06,1.34-.1,2-.1,6.57,0,9.75,3.22,9.75,7.63a11.39,11.39,0,0,1-1.12,4.75l.9-.25a11.94,11.94,0,0,0,.94-4.5C974.3,541.39,970.75,538.1,963.83,538.1Z" transform="translate(-924.38 -500.82)"/></svg>