<svg id="alt_-_github" data-name="alt - github" xmlns="http://www.w3.org/2000/svg" viewBox="0 0 452 452"><defs><style>.cls-1{fill:#2a3142;}</style></defs><path class="cls-1" d="M470,622H142c-33.79,0-62-28.21-62-62V516H92v44c0,27.25,22.75,50,50,50H470c27.25,0,50-22.75,50-50V232c0-27.26-22.74-50-50-50H418V170h52c33.79,0,62,28.21,62,62V560C532,593.79,503.79,622,470,622ZM92,508H80V496H92Zm0-20H80V232c0-33.79,28.21-62,62-62H410v12H142c-27.25,0-50,22.75-50,50Z" transform="translate(-80 -170)"/><g id="path9-5"><path class="cls-1" d="M317.2,537.38c-25.94,0-51.4-.54-59.85-1.27-2.51-.21-8.4-.72-8.4-6.5,0-5,4-7.9,7.45-10.41,3.69-2.67,6.11-4.61,6.11-7.28,0-5.6-.08-17-.13-24.34-2.88.24-6.51.44-10.63.44-29.7,0-38.64-21.14-41.57-28.09-4-9.59-9.08-14.28-15.4-18.36s-6.5-8.5-6.06-10.77c.33-1.66,1.76-5.64,7.91-6.8,16.68-3.14,25.72,8.61,33,18.05,4,5.19,7.76,10.09,11.76,11.35,7.9,2.49,17.52,1.7,23.09-.63a34.17,34.17,0,0,1,5.46-12c-30.87-5.06-51.54-17.72-63-38.51h0c-.37-.63-.71-1.27-1-1.92-.49-1-1.12-2.37-1.75-3.76-2-4.5-2.67-6.19-2.87-7.26-3.48-10.6-5.18-22.71-5.2-37,0-24.27,7.66-35.07,16.8-46.75-6.65-27.52,3.6-46.35,4.05-47.16a6,6,0,0,1,4-3c1.85-.38,18.5-3,48.3,17.47,18.32-6,57.08-6.71,78.84-1.32,8.4-5.29,34.89-20.85,48.25-16.1a6,6,0,0,1,3.09,2.49c3.49,5.61,8.59,18.67,4.55,43.83.4.51.87,1.07,1.33,1.63,5.85,7.16,18,22,18.09,52.19v.13c-.25,12.88-1.57,23.74-4,33.17a28.7,28.7,0,0,1-1.53,5.91,43.07,43.07,0,0,1-2.9,7.19,6.59,6.59,0,0,1-.56.82c-11.9,25.07-35.6,33.74-61.23,37.67,6.26,8.73,7.62,20.34,7.62,37.48,0,15.29-.13,22.47-.21,27.22-.05,3-.09,4.81-.05,7,0,2.93,4.07,5.9,7,8.06,3.39,2.5,7.24,5.33,6.41,10.13-1,5.78-6.35,6-20.63,6.47-8.51.3-20.24.47-33.91.48Zm-48.53-12.7c21.28.71,64.57,1,85.66.21-3.07-3.11-5.73-7.18-5.8-12.5,0-2.36,0-4.35.05-7.37.08-4.7.21-11.81.21-27,0-24.61-3.24-31-12.35-36.76a6,6,0,0,1,2.58-11c37.56-3.85,55.76-13.19,64.91-33.28a5.54,5.54,0,0,1,.92-1.43,67.87,67.87,0,0,0,2.54-7.48,5.91,5.91,0,0,1,.2-1.4c2.34-8.65,3.59-18.8,3.84-31-.07-25.83-10-38-15.38-44.54a34.8,34.8,0,0,1-3.62-4.92,6,6,0,0,1-.66-4c3.58-20,.88-30.68-1.35-35.65-6.95-.08-23.58,7.05-38,16.57a6,6,0,0,1-5,.75c-19.62-5.73-61.9-5-76.66,1.31a6,6,0,0,1-5.86-.63c-20.19-14.46-33.35-17-38.79-17.32-2.24,5.78-6.06,19.63-.88,38.1a6,6,0,0,1-1.06,5.32l-.59.75c-9.32,11.88-15.48,19.72-15.48,40.93,0,13.29,1.58,24.38,4.82,33.91a6.59,6.59,0,0,1,.23.9c.73,1.9,3.37,7.66,4.08,9l.18.29c10.81,19.62,32.24,30.7,65.51,33.89A6,6,0,0,1,286,441.1c-4.25,3.23-9.46,9.41-10.14,16.19a6,6,0,0,1-2.72,4.45c-8.46,5.46-23.67,6.8-35.38,3.11-7.6-2.4-12.71-9.05-17.66-15.48-3.62-4.71-6.66-8.49-9.9-10.91a50.16,50.16,0,0,1,11,16.81c4.33,10.26,11.35,20.75,30.51,20.75a102.51,102.51,0,0,0,15.56-1.09,6,6,0,0,1,6.93,4.9,7.79,7.79,0,0,1,.09,1c0,.23.18,22.51.18,31.13,0,5.68-2.76,9.77-5.84,12.76ZM215.74,394.54a6,6,0,0,1,1.37,1.42,5.6,5.6,0,0,0-1.37-1.42Zm-3.51-1.18a5.68,5.68,0,0,1,1.29.15,5.68,5.68,0,0,0-1.29-.15Z" transform="translate(-80 -170)"/></g></svg>