<svg id="resume" xmlns="http://www.w3.org/2000/svg" viewBox="0 0 405.97 512"><defs><style>.cls-1{fill:#2a3142;}</style></defs><path class="cls-1" d="M158.55,369.5h294.9a7.5,7.5,0,1,0,0-15H158.55a7.5,7.5,0,1,0,0,15Z" transform="translate(-103.01 -140)"/><path class="cls-1" d="M158.55,437.13h294.9a7.5,7.5,0,0,0,0-15H158.55a7.5,7.5,0,0,0,0,15Z" transform="translate(-103.01 -140)"/><path class="cls-1" d="M158.55,504.77h294.9a7.5,7.5,0,1,0,0-15H158.55a7.5,7.5,0,1,0,0,15Z" transform="translate(-103.01 -140)"/><path class="cls-1" d="M158.55,572.39H306a7.5,7.5,0,0,0,0-15H158.55a7.5,7.5,0,0,0,0,15Z" transform="translate(-103.01 -140)"/><path class="cls-1" d="M506.79,259,390,142.2a7.49,7.49,0,0,0-5.3-2.2H137a34,34,0,0,0-34,34v55.36a7.5,7.5,0,0,0,15,0V174a19,19,0,0,1,19-19H377.24v89.25a27.54,27.54,0,0,0,27.5,27.5H494V522.67a7.5,7.5,0,0,0,15,0V264.25A7.49,7.49,0,0,0,506.79,259Zm-114.55-14.7V165.61l91.14,91.14H404.74A12.52,12.52,0,0,1,392.24,244.25Z" transform="translate(-103.01 -140)"/><path class="cls-1" d="M501.49,554.5A7.5,7.5,0,0,0,494,562v56a19,19,0,0,1-19,19H137a19,19,0,0,1-19-19V268.44a7.5,7.5,0,0,0-15,0V618a34,34,0,0,0,34,34H475a34,34,0,0,0,34-34V562A7.5,7.5,0,0,0,501.49,554.5Z" transform="translate(-103.01 -140)"/></svg>