<svg id="email" xmlns="http://www.w3.org/2000/svg" viewBox="0 0 512 384"><defs><style>.cls-1{fill:#2a3142;}</style></defs><path class="cls-1" d="M455.33,353.87V246.67A42.71,42.71,0,0,0,412.67,204h-320A42.72,42.72,0,0,0,50,246.67V460a42.72,42.72,0,0,0,42.67,42.67H331.88c14,49.17,59.19,85.33,112.79,85.33a117.27,117.27,0,0,0,58.67-15.71,10.66,10.66,0,0,0-10.68-18.46,96,96,0,1,1,48-83.16v10.66a21.34,21.34,0,1,1-42.67,0V438.67A10.63,10.63,0,0,0,480,431a53.32,53.32,0,1,0,4.51,74.8A42.6,42.6,0,0,0,562,481.33V470.67C562,409.57,515,359.29,455.33,353.87ZM92.67,225.33h320c.44,0,.81.23,1.25.26L261.44,350.75c-5.43,3.42-13.29,2.71-16.82.54L91.43,225.58C91.86,225.56,92.23,225.33,92.67,225.33ZM434,353.87c-59.71,5.42-106.67,55.7-106.67,116.8,0,3.6.22,7.15.54,10.66H92.67A21.36,21.36,0,0,1,71.33,460V246.67a21.06,21.06,0,0,1,1.81-8.48L232,368.48a37.53,37.53,0,0,0,40.58.46,10.1,10.1,0,0,0,1.71-1.16l157.88-129.6a21.15,21.15,0,0,1,1.81,8.49v107.2Zm10.67,148.8a32,32,0,1,1,32-32A32,32,0,0,1,444.67,502.67Z" transform="translate(-50 -204)"/></svg>