<svg id="Layer_1" data-name="Layer 1" xmlns="http://www.w3.org/2000/svg" xmlns:xlink="http://www.w3.org/1999/xlink" viewBox="0 0 294.68 46.66"><defs><style>.cls-1{fill:url(#linear-gradient);}</style><linearGradient id="linear-gradient" x1="90.34" y1="573.34" x2="385.02" y2="573.34" gradientUnits="userSpaceOnUse"><stop offset="0" stop-color="#526aa3"/><stop offset="1" stop-color="#f7faff"/></linearGradient></defs><path class="cls-1" d="M104.79,596.67h-7a7.46,7.46,0,0,1-7.46-7.46V557.48A7.46,7.46,0,0,1,97.8,550h7a7.47,7.47,0,0,1,7.47,7.47v31.73A7.47,7.47,0,0,1,104.79,596.67Zm34.74-7.46V557.48a7.46,7.46,0,0,0-7.46-7.47h-7a7.47,7.47,0,0,0-7.47,7.47v31.73a7.47,7.47,0,0,0,7.47,7.46h7A7.46,7.46,0,0,0,139.53,589.21Zm27.28,0V557.48a7.46,7.46,0,0,0-7.47-7.47h-7a7.46,7.46,0,0,0-7.47,7.47v31.73a7.46,7.46,0,0,0,7.47,7.46h7A7.46,7.46,0,0,0,166.81,589.21Zm27.27,0V557.48a7.46,7.46,0,0,0-7.46-7.47h-7a7.46,7.46,0,0,0-7.46,7.47v31.73a7.46,7.46,0,0,0,7.46,7.46h7A7.46,7.46,0,0,0,194.08,589.21Zm27.28,0V557.48a7.46,7.46,0,0,0-7.47-7.47h-7a7.47,7.47,0,0,0-7.47,7.47v31.73a7.47,7.47,0,0,0,7.47,7.46h7A7.46,7.46,0,0,0,221.36,589.21Zm27.28,0V557.48a7.47,7.47,0,0,0-7.47-7.47h-7a7.46,7.46,0,0,0-7.47,7.47v31.73a7.46,7.46,0,0,0,7.47,7.46h7A7.47,7.47,0,0,0,248.64,589.21Zm27.27,0V557.48a7.46,7.46,0,0,0-7.46-7.47h-7a7.46,7.46,0,0,0-7.46,7.47v31.73a7.46,7.46,0,0,0,7.46,7.46h7A7.46,7.46,0,0,0,275.91,589.21Zm27.28,0V557.48a7.46,7.46,0,0,0-7.47-7.47h-7a7.46,7.46,0,0,0-7.47,7.47v31.73a7.46,7.46,0,0,0,7.47,7.46h7A7.46,7.46,0,0,0,303.19,589.21Zm27.28,0V557.48A7.47,7.47,0,0,0,323,550h-7a7.46,7.46,0,0,0-7.46,7.47v31.73a7.46,7.46,0,0,0,7.46,7.46h7A7.47,7.47,0,0,0,330.47,589.21Zm27.27,0V557.48a7.46,7.46,0,0,0-7.46-7.47h-7a7.47,7.47,0,0,0-7.47,7.47v31.73a7.47,7.47,0,0,0,7.47,7.46h7A7.46,7.46,0,0,0,357.74,589.21Zm27.28,0V557.48a7.46,7.46,0,0,0-7.47-7.47h-7a7.46,7.46,0,0,0-7.47,7.47v31.73a7.46,7.46,0,0,0,7.47,7.46h7A7.46,7.46,0,0,0,385,589.21Z" transform="translate(-90.34 -550.01)"/></svg>