<svg id="Layer_1" data-name="Layer 1" xmlns="http://www.w3.org/2000/svg" viewBox="0 0 84.59 61.36"><defs><style>.cls-1{fill:#f7faff;stroke:#fff;stroke-miterlimit:10;stroke-width:0.25px;}</style></defs><path class="cls-1" d="M139.64,550.09c0,10.41-16.29,22.37-35.22,23.12a162.41,162.41,0,0,1-10.88,16.22c9.39,4.67,18.58,10.14,26,10.14,4.94,0,22.89-5.8,23.44-5.8a.57.57,0,0,1,.47.47c0,.34-18.64,7.16-24.18,7.16-7.57,0-17.17-5.82-26.84-10.55-6.28,7.57-13.31,13-21.9,13-6.29,0-11.42-3.59-11.42-10,0-6.76,6.82-10.95,13.58-10.95,6.09,0,12.64,2.57,19.07,5.68A156.69,156.69,0,0,0,102,573.27c-14-.13-21.64-6.76-21.64-14.19s7.17-11.29,12.44-11.29c3.92,0,6.09,1.22,6.09,1.55a.53.53,0,0,1-.48.54,15.17,15.17,0,0,0-5.41-1c-4.66,0-10.68,3.92-10.68,9.87,0,7,6.56,12.71,20.69,12.91,8.79-14.53,17.17-28.86,28.12-28.86C136.53,542.79,139.64,545.56,139.64,550.09ZM90.63,590c-6.29-3-12.58-5.41-18.32-5.41-5.34,0-11.43,3.79-11.43,9.33,0,5,5,8.32,9.8,8.32C78.39,602.21,84.82,597.14,90.63,590Zm14.73-18.39c16.77-.67,32.52-11.83,32.52-22,0-3.17-2.77-5.27-6-5.27C121.79,544.34,113.88,557.59,105.36,571.58Z" transform="translate(-59 -542.66)"/><path class="cls-1" d="M108.83,571.59c-1.21,0-2.39.06-3.56.15l-.81,1.35c1.44-.14,2.9-.23,4.37-.23,14.17,0,21,7,21,16.47a24.83,24.83,0,0,1-2.42,10.27l2-.55a25.74,25.74,0,0,0,2-9.72C131.43,578.7,123.78,571.59,108.83,571.59Z" transform="translate(-59 -542.66)"/></svg>