<svg id="White_-_Fresh_Tasty" data-name="White - Fresh &amp; Tasty" xmlns="http://www.w3.org/2000/svg" viewBox="0 0 353.55 59.77"><defs><style>.cls-1{fill:none;stroke-width:3px;}.cls-1,.cls-3{stroke:#f7faff;stroke-miterlimit:10;}.cls-2,.cls-4,.cls-5{isolation:isolate;}.cls-2,.cls-5{font-size:36.12px;font-family:SweetSansPro-Light, Sweet Sans Pro;font-weight:300;}.cls-2,.cls-3,.cls-5{fill:#f7faff;}.cls-3{stroke-width:2px;}.cls-5{letter-spacing:-0.05em;}</style></defs><rect class="cls-1" x="1.5" y="1.5" width="350.55" height="56.77"/><text class="cls-2" transform="translate(19.19 39.31)">FRESH</text><path class="cls-3" d="M309,388a17.91,17.91,0,0,1-4.4-5.94c-.7-1.72-1-3.43.19-5.1a3,3,0,0,1,1.89-1.19c2.82-.65,5.43.82,5.51,4.08a18,18,0,0,1-1.63,7.17.89.89,0,0,0,.3,1.22l.05,0c1.54,1.17,3,2.39,4.53,3.58,1.19-1.12,2.31-2.25,3.5-3.26a7.59,7.59,0,0,1,5.71-2.2,3,3,0,0,1,2.82,3.24,3.32,3.32,0,0,1-.06.44,8.49,8.49,0,0,1-1,2.12c-.19.29-.6.44-1,.72a15.7,15.7,0,0,0,0-1.94c-.3-1.93-2-2.44-3.64-2a10.78,10.78,0,0,0-5.16,3.48,51,51,0,0,1,3.91,3.87,14.21,14.21,0,0,1,3.57,10.6,11.9,11.9,0,0,1-3.69,8.05,5.11,5.11,0,0,1-4.07,1.53,6.06,6.06,0,0,1-4.23-3.36,1.69,1.69,0,0,1,0-.45,2.69,2.69,0,0,1,.74.14,3.7,3.7,0,0,0,3.68-.39,10.24,10.24,0,0,0,5.27-7.76,9.86,9.86,0,0,0-2.44-8.15,37.51,37.51,0,0,0-2.94-2.84c-.41-.36-.81-.33-1.16.19-2.15,3.05-4.28,6.11-6.52,9.09a62.23,62.23,0,0,1-4.17,4.72,2.54,2.54,0,0,1-3.09.47,2.78,2.78,0,0,1-.7-2.73,29.13,29.13,0,0,1,2.92-6.84c1.44-2.64,2.82-5.31,4.21-8C308.26,389.71,308.6,388.84,309,388Zm.86.82c-.22.5-.43,1-.65,1.46-1.41,3-2.85,6.06-4.21,9.12a9.55,9.55,0,0,0-.7,2.68c-.12,1,.73,1.5,1.59.93a8.55,8.55,0,0,0,1.83-1.57c2.44-2.87,4.8-5.79,7.19-8.68-1.68-1.34-3.35-2.64-5.05-4Zm-.55-2h.3a36.53,36.53,0,0,0,.55-4.31,3.08,3.08,0,0,0-2.38-3.19,1.63,1.63,0,0,0-2.1.95,1.65,1.65,0,0,0,0,1,5.28,5.28,0,0,0,.4,1.28,14.57,14.57,0,0,0,3.3,4.22Z" transform="translate(-129.22 -366.11)"/><g class="cls-4"><text class="cls-5" transform="translate(212.15 39.31)">T</text><text class="cls-2" transform="translate(233.14 39.31)">ASTY</text></g></svg>