<svg id="white-menu" xmlns="http://www.w3.org/2000/svg" viewBox="0 0 322.51 322.51"><defs><style>.cls-1{fill:#f7faff;}</style></defs><path class="cls-1" d="M453.08,234.74H324.9a14.19,14.19,0,0,0-14.18,14.18V377.1a14.19,14.19,0,0,0,14.18,14.18H453.08a14.19,14.19,0,0,0,14.18-14.18V248.92A14.19,14.19,0,0,0,453.08,234.74Zm4.73,142.36a4.73,4.73,0,0,1-4.73,4.73H324.9a4.73,4.73,0,0,1-4.73-4.73V248.92a4.73,4.73,0,0,1,4.73-4.73H453.08a4.73,4.73,0,0,1,4.73,4.73Z" transform="translate(-144.74 -234.74)"/><path class="cls-1" d="M287.1,400.72H158.92a14.19,14.19,0,0,0-14.18,14.18V543.08a14.19,14.19,0,0,0,14.18,14.18H287.1a14.19,14.19,0,0,0,14.18-14.18V414.9A14.19,14.19,0,0,0,287.1,400.72Zm4.73,142.36a4.73,4.73,0,0,1-4.73,4.73H158.92a4.73,4.73,0,0,1-4.73-4.73V414.9a4.73,4.73,0,0,1,4.73-4.73H287.1a4.73,4.73,0,0,1,4.73,4.73Z" transform="translate(-144.74 -234.74)"/><path class="cls-1" d="M287.1,234.74H158.92a14.19,14.19,0,0,0-14.18,14.18V377.1a14.19,14.19,0,0,0,14.18,14.18h9.44a4.73,4.73,0,1,0,0-9.45h-9.44a4.73,4.73,0,0,1-4.73-4.73V248.92a4.73,4.73,0,0,1,4.73-4.73H287.1a4.73,4.73,0,0,1,4.73,4.73V377.1a4.73,4.73,0,0,1-4.73,4.73H187.26a4.73,4.73,0,0,0,0,9.45H287.1a14.19,14.19,0,0,0,14.18-14.18V248.92A14.19,14.19,0,0,0,287.1,234.74Z" transform="translate(-144.74 -234.74)"/><path class="cls-1" d="M453.08,400.72H324.9a14.19,14.19,0,0,0-14.18,14.18V543.08a14.19,14.19,0,0,0,14.18,14.18H453.08a14.19,14.19,0,0,0,14.18-14.18V414.9A14.19,14.19,0,0,0,453.08,400.72Zm4.73,142.36a4.73,4.73,0,0,1-4.73,4.73H324.9a4.73,4.73,0,0,1-4.73-4.73V414.9a4.73,4.73,0,0,1,4.73-4.73H453.08a4.73,4.73,0,0,1,4.73,4.73Z" transform="translate(-144.74 -234.74)"/></svg>