<svg id="White_-_Host_It_Solutions" data-name="White - Host It Solutions" xmlns="http://www.w3.org/2000/svg" viewBox="0 0 329.28 130.58"><defs><style>.cls-1{fill:#f7faff;}</style></defs><path class="cls-1" d="M444.63,456.6l.79-1.06c2.45,2.37,7.07,4.48,12.57,4.48,8.12,0,11.36-3.1,11.36-7.57,0-11.39-23.4-3.62-23.4-16.87,0-4.55,3.63-8.76,12.1-8.76,4.22,0,8.72,1.41,11.3,3.52l-.79,1.05A17.28,17.28,0,0,0,458,428.1c-7.53,0-10.7,3.29-10.7,7.5,0,11.72,23.33,4,23.33,16.88,0,5.13-4.16,8.81-12.65,8.81C452.43,461.26,447.21,459.29,444.63,456.6Z" transform="translate(-141.36 -330.71)"/><path class="cls-1" d="M202.47,330.71v66.66H187.06V370H156.77v27.33H141.36V330.71h15.41V357h30.28V330.71Z" transform="translate(-141.36 -330.71)"/><path class="cls-1" d="M213.44,371.75c0-15.42,11.9-26.37,28.19-26.37s28.08,10.95,28.08,26.37-11.8,26.38-28.08,26.38S213.44,387.18,213.44,371.75Zm41.23,0c0-8.85-5.62-14.19-13-14.19s-13.15,5.34-13.15,14.19,5.71,14.19,13.14,14.19,13-5.33,13-14.19Z" transform="translate(-141.36 -330.71)"/><path class="cls-1" d="M274.67,392.61l4.92-10.67a35,35,0,0,0,17.81,4.92c6.85,0,9.43-1.8,9.43-4.66,0-8.38-30.94.19-30.94-20.29,0-9.7,8.76-16.56,23.72-16.56,7,0,14.85,1.62,19.68,4.47l-4.92,10.55a29.34,29.34,0,0,0-14.76-3.8c-6.68,0-9.53,2.1-9.53,4.75,0,8.76,30.93.29,30.93,20.48,0,9.52-8.85,16.28-24.18,16.28C288.19,398.13,279.43,395.75,274.67,392.61Z" transform="translate(-141.36 -330.71)"/><path class="cls-1" d="M363.23,394.89c-3.05,2.19-7.53,3.24-12.1,3.24-12.09,0-19.14-6.19-19.14-18.38v-21h-7.91V347.28H332V334.81h14.86v12.47h12.76v11.43H346.85v20.85c0,4.38,2.37,6.76,6.37,6.76a10,10,0,0,0,6-1.9Z" transform="translate(-141.36 -330.71)"/><path class="cls-1" d="M142.17,454.75l.93-.85c2.91,3.42,8.79,6.12,15.27,6.12,10,0,14.54-4.61,14.54-10.27,0-15.47-29.42-6.39-29.42-23.38,0-6.05,4.63-11.58,15.47-11.58A23.09,23.09,0,0,1,172.38,419l-.71,1A22.09,22.09,0,0,0,159,416c-9.71,0-14.2,4.67-14.2,10.4,0,15.53,29.42,6.64,29.42,23.3,0,6.12-4.82,11.52-15.8,11.52C151.69,461.26,145.28,458.56,142.17,454.75Z" transform="translate(-141.36 -330.71)"/><path class="cls-1" d="M186.3,444c0-10.07,7.07-17.18,16.59-17.18s16.6,7.11,16.6,17.18-7.08,17.25-16.6,17.25S186.3,454.09,186.3,444Zm31.86,0c0-9.41-6.55-15.93-15.27-15.93S187.62,434.6,187.62,444s6.54,16,15.27,16,15.24-6.58,15.24-16Z" transform="translate(-141.36 -330.71)"/><path class="cls-1" d="M235.25,412.22h1.33v48.85h-1.33Z" transform="translate(-141.36 -330.71)"/><path class="cls-1" d="M285.1,427v34h-1.32v-9c-2,5.66-6.81,9.21-13.75,9.21-8.66,0-14-4.92-14-14.15V427h1.32v20.08C257.33,455.55,262,460,270,460c8.6,0,13.82-5.86,13.82-14.49V427Z" transform="translate(-141.36 -330.71)"/><path class="cls-1" d="M320.41,458.83a9.45,9.45,0,0,1-6.68,2.43c-5.42,0-8.27-3.35-8.27-8.36V428.3h-6.61v-1.25h6.61V419.6h1.33V427h11.57v1.26H306.79v24.28c0,4.81,2.38,7.45,7,7.45a8.22,8.22,0,0,0,5.69-2.11Z" transform="translate(-141.36 -330.71)"/><path class="cls-1" d="M334.16,415.89a1.72,1.72,0,1,1,1.73,1.72h0A1.74,1.74,0,0,1,334.16,415.89Zm1,11.13h1.32v34h-1.32Z" transform="translate(-141.36 -330.71)"/><path class="cls-1" d="M352.34,444c0-10.07,7.07-17.18,16.59-17.18s16.6,7.11,16.6,17.18-7.08,17.25-16.6,17.25S352.34,454.09,352.34,444Zm31.86,0c0-9.41-6.55-15.93-15.27-15.93S353.66,434.6,353.66,444s6.54,16,15.27,16S384.2,453.43,384.2,444Z" transform="translate(-141.36 -330.71)"/><path class="cls-1" d="M430.67,441v20.08h-1.32V441c0-8.44-4.55-12.9-12.29-12.9-9,0-14.41,5.85-14.41,14.48v18.5h-1.33V427h1.33v9.09c2.05-5.63,7.07-9.28,14.34-9.28C425.39,426.84,430.67,431.77,430.67,441Z" transform="translate(-141.36 -330.71)"/><path class="cls-1" d="M464,383.12a9.76,9.76,0,0,1-5.83,1.84c-3.9,0-6.22-2.31-6.22-6.58V355.81h12.43V347H451.93V334.81H437.47V347h-7.73v8.85h7.73v22.76c0,11.87,6.86,17.9,18.64,17.9,4.45,0,8.81-1,11.77-3.16Z" transform="translate(-141.36 -330.71)"/><path class="cls-1" d="M394.46,355.78h4a1.68,1.68,0,0,0,1.68-1.68V345a7.3,7.3,0,0,1,14.6,0v9.13a1.69,1.69,0,0,0,1.68,1.69h3.95a1.68,1.68,0,0,0,1.69-1.67V351.6h0v-6.73a14.63,14.63,0,0,0-29.23,0v9.28A1.67,1.67,0,0,0,394.46,355.78Z" transform="translate(-141.36 -330.71)"/><path class="cls-1" d="M422.74,360.94H392.05a3.32,3.32,0,0,0-3.32,3.33h0V394a3.32,3.32,0,0,0,3.32,3.33h30.69a3.33,3.33,0,0,0,3.32-3.33h0V364.27a3.33,3.33,0,0,0-3.32-3.33Zm-13.23,18.73V385a2.11,2.11,0,1,1-4.21,0v-5.31a4.48,4.48,0,1,1,4.21,0Z" transform="translate(-141.36 -330.71)"/></svg>