<svg id="white_-_church" data-name="white - church" xmlns="http://www.w3.org/2000/svg" viewBox="0 0 490.67 512"><defs><style>.cls-1{fill:#f7faff;}</style></defs><path class="cls-1" d="M551.33,532a10.69,10.69,0,0,0-4.43-8.66L466,465.18v-75l3.65,3.2a10.67,10.67,0,0,0,14-16.09l-167-146.13V204h32a10.67,10.67,0,0,0,0-21.33h-32v-32a10.67,10.67,0,0,0-21.34,0v32h-32a10.67,10.67,0,0,0,0,21.33h32v27.16l-167,146.13a10.67,10.67,0,1,0,14.06,16.06l3.63-3.17v75L65.1,523.34A10.7,10.7,0,0,0,60.67,532V638.67a10.6,10.6,0,0,0,.27,1.34,9.65,9.65,0,0,0-.27,1.32A10.67,10.67,0,0,0,71.33,652H540.67a9.54,9.54,0,0,0,10.39-12,9.65,9.65,0,0,0,.27-1.32V532ZM146,630.67H82V537.46l64-46Zm209.79,0H252.67V554.23a51.56,51.56,0,0,1,103.12,0v76.44Zm88.88,0H377.1V554.23a72.89,72.89,0,1,0-145.77,0v76.44h-64V371.51L306,250.19,444.67,371.51Zm85.33,0H466V491.47l64,46Z" transform="translate(-60.67 -140)"/><path class="cls-1" d="M252.67,385.33A53.33,53.33,0,1,0,306,332,53.41,53.41,0,0,0,252.67,385.33Zm85.33,0a32,32,0,1,1-32-32A32,32,0,0,1,338,385.33Z" transform="translate(-60.67 -140)"/></svg>