<svg id="White_-_MiFamilia" data-name="White - MiFamilia" xmlns="http://www.w3.org/2000/svg" viewBox="0 0 403.85 254.45"><defs><style>.cls-1{fill:#f7faff;}</style></defs><g id="Layer_1" data-name="Layer 1"><path class="cls-1" d="M180.69,476.17a3.76,3.76,0,1,1-.35-7.52H436.61a3.76,3.76,0,1,1,.35,7.52H180.69Z" transform="translate(-104.08 -268.78)"/><path class="cls-1" d="M259.83,523.22a3.77,3.77,0,0,1,0-7.53h97.63a3.77,3.77,0,0,1,.35,7.53h-98Z" transform="translate(-104.08 -268.78)"/><path class="cls-1" d="M221.62,499.7a3.77,3.77,0,0,1,0-7.53H395.67a3.77,3.77,0,0,1,.35,7.53H221.62Z" transform="translate(-104.08 -268.78)"/><path class="cls-1" d="M496.82,372.89H277.3l-12.66-10.23,28.9-25.38,31.51,25.5a3.77,3.77,0,0,0,4.94-.21L391,309.11l59.78,48.33a3.75,3.75,0,1,0,4.7-5.85l-62.21-50.28h0a3.76,3.76,0,0,0-4.82.1L359,327.24l-50.68-37a3.74,3.74,0,0,0-4.74,0l-64,52.13-19.74-16a3.77,3.77,0,0,0-4.94.21L161.9,372.91H120.47a3.77,3.77,0,0,0,0,7.53h42.77a3.75,3.75,0,0,0,2.47-.93l51.76-45.3,55.93,45.24a3.78,3.78,0,0,0,2.57,1H496.81a3.76,3.76,0,0,0,.35-7.52h-.35ZM245.47,347.16,306,297.86l47.15,34.44-25.87,22.63-31.52-25.5h0a3.76,3.76,0,0,0-4.83.1l-32.24,28.32Z" transform="translate(-104.08 -268.78)"/><path class="cls-1" d="M366,268.83a14.15,14.15,0,0,0-1.44-.05c-3.6,0-5.31,1.55-7.29,3.9-2-2.35-3.7-3.9-7.29-3.9a10.13,10.13,0,0,0-1.43.07c-3.11.3-6.71,3.16-7.14,8.61v1.82c.4,5.22,4.34,11.66,15.86,19.74,11.52-8.09,15.46-14.53,15.87-19.74v-1.83C372.65,272,369.06,269.14,366,268.83Z" transform="translate(-104.08 -268.78)"/></g><g id="Mi_Familia" data-name="Mi Familia"><path class="cls-1" d="M104.08,439.21V411.67l1.17-.31,12,15.77,12-15.77,1.17.31v27.54h-4.06V421.34l-8.92,11.93h-.4l-9-11.78v17.72ZM139,413.28a2.78,2.78,0,0,1,2.8,2.77h0a2.76,2.76,0,0,1-5.51,0A2.82,2.82,0,0,1,139,413.28Zm-1.88,8.77h3.86v17.16h-3.86Zm20.22,17.16V411.76h16.34v3.48H161.4v8.22h9.7v3.45h-9.7v12.28Zm32.9,0h-2.31l-.94-2.3c-1.22,1.64-3.45,2.81-6.53,2.81-4,0-6.53-2.47-6.53-5.67,0-3.56,2.77-5.87,6.73-5.87a9.17,9.17,0,0,1,5.9,2.12v-.83a4.65,4.65,0,0,0-4.49-4.81h-.36a11.43,11.43,0,0,0-4.54.94l-.94-2.89a16.86,16.86,0,0,1,5.91-1.13c5.05.07,8.17,3.24,8.13,8Zm-3.68-6.33a7.17,7.17,0,0,0-5.05-2.07c-2.07,0-3.71,1.25-3.71,3.05s1.72,3,3.64,3c2.26,0,4.81-1.65,5.12-3.56Zm11.85-9c.58-1.22,2.74-2.43,4.85-2.43a6.06,6.06,0,0,1,5.71,3.21,6.19,6.19,0,0,1,5.48-3.21c4,0,6.33,2.74,6.33,6.58v11.11h-3.88V428.61a3.46,3.46,0,0,0-3.56-3.83,3.58,3.58,0,0,0-3.45,3.7.38.38,0,0,0,0,.1v10.63h-4V428.65c0-2.78-1.76-3.87-3.52-3.87a3.59,3.59,0,0,0-3.57,3.63,1.93,1.93,0,0,0,0,.24v10.56h-3.87V422.05h2.3Zm29.37-10.64a2.7,2.7,0,1,1-.13,5.39,2.77,2.77,0,0,1-2.61-2.61,2.81,2.81,0,0,1,2.73-2.78Zm-1.88,8.77h3.84v17.16h-3.84Zm14,17.16H236V411.76l3.52-.47h.35ZM248,413.28a2.78,2.78,0,0,1,2.77,2.78,2.76,2.76,0,0,1-5.51,0,2.81,2.81,0,0,1,2.75-2.78Zm-1.88,8.77H250v17.16h-3.83ZM271,439.21h-2.3l-.94-2.3c-1.22,1.64-3.45,2.81-6.53,2.81-4,0-6.53-2.47-6.53-5.67,0-3.56,2.77-5.87,6.72-5.87a9.17,9.17,0,0,1,5.91,2.12v-.83a4.65,4.65,0,0,0-4.49-4.81h-.36a11.43,11.43,0,0,0-4.54.94l-.94-2.89a16.77,16.77,0,0,1,5.91-1.13c5.05.07,8.17,3.24,8.13,8Zm-3.67-6.33a7.19,7.19,0,0,0-5-2.07c-2.07,0-3.72,1.25-3.72,3.05s1.73,3,3.65,3c2.26,0,4.8-1.65,5.12-3.56Z" transform="translate(-104.08 -268.78)"/><path class="cls-1" d="M307.77,427.85H294.66v12.28h-4.11V412.71h4.11v11.73h13.11V412.71h4.11v27.46h-4.11Zm8.56,3.64a8.93,8.93,0,0,1,9.23-9.05,9.1,9.1,0,1,1-.08,18.19h0a8.9,8.9,0,0,1-9.15-8.65A4,4,0,0,1,316.33,431.49Zm14.47,0c0-3.79-2.62-5.95-5.32-5.95s-5.24,2.16-5.24,5.95,2.58,6,5.27,6S330.8,435.28,330.8,431.49Zm11.42-6.66c.58-1.2,2.74-2.41,4.84-2.41a6.05,6.05,0,0,1,5.72,3.2,6.15,6.15,0,0,1,5.47-3.2c4,0,6.34,2.73,6.34,6.58v11.11h-3.87V429.53a3.46,3.46,0,0,0-3.56-3.83,3.57,3.57,0,0,0-3.45,3.69s0,.07,0,.1v10.64h-4V429.57c0-2.78-1.76-3.87-3.52-3.87a3.59,3.59,0,0,0-3.57,3.63,1.93,1.93,0,0,0,0,.24v10.56h-3.88V423h2.31ZM372,432.45c.15,2.47,2.38,5,6.14,5a10.74,10.74,0,0,0,5.2-1.56l1.45,2.7a12.63,12.63,0,0,1-7.09,2c-5.9,0-9.62-4.19-9.62-9.16a8.75,8.75,0,0,1,8.44-9c.12,0,.24,0,.36,0,4.7,0,8.73,3.6,8.33,10Zm9.38-2.7a4.41,4.41,0,0,0-4.46-4.22,4.87,4.87,0,0,0-4.69,4.22ZM417,427.88h-13.1v12.28h-4.11V412.71h4.11v11.73H417V412.71h4.12v27.46H417Zm12.47,4.57c.16,2.47,2.39,5,6.15,5a10.63,10.63,0,0,0,5.19-1.56l1.45,2.7a12.6,12.6,0,0,1-7.08,2c-5.91,0-9.62-4.19-9.62-9.16a8.75,8.75,0,0,1,8.44-9c.12,0,.24,0,.36,0,4.69,0,8.72,3.6,8.33,10Zm9.39-2.7a4.42,4.42,0,0,0-4.46-4.22,4.88,4.88,0,0,0-4.69,4.22Zm22.82,10.38h-2.3l-1-2.31c-1.22,1.69-3.45,2.82-6.53,2.82-4,0-6.54-2.51-6.54-5.67,0-3.56,2.78-5.87,6.73-5.87a9.07,9.07,0,0,1,5.9,2.12v-.87a4.64,4.64,0,0,0-4.47-4.81h-.37a11.09,11.09,0,0,0-4.54.94l-.87-2.9a17.22,17.22,0,0,1,5.9-1.13c5,.08,8.18,3.25,8.14,8ZM458,433.79a7.23,7.23,0,0,0-5-2.07c-2.07,0-3.72,1.26-3.72,3s1.72,3,3.64,3c2.27,0,4.81-1.64,5.12-3.55Zm12.68,6.34h-3.9V412.71l3.52-.48h.35ZM482,426.05v8.09a2.67,2.67,0,0,0,2.85,3,6.45,6.45,0,0,0,1.69-.24L487,440a17.88,17.88,0,0,1-3.17.35c-3.91,0-5.72-2.46-5.72-6.33v-8H475v-.39l.38-2.7h2.74v-5.64l3.52-.54H482V423h4.89v3.09Zm13.16-.94a7.39,7.39,0,0,1,5.71-2.66,6.85,6.85,0,0,1,7.08,6.61v11.07H504V430.08a4.34,4.34,0,0,0-4.22-4.46h-.19c-1.8,0-4.5,1.45-4.5,4.18v10.33h-3.88V412.71l3.52-.48h.36Z" transform="translate(-104.08 -268.78)"/></g></svg>