<svg id="White_-_Vestal" data-name="White - Vestal" xmlns="http://www.w3.org/2000/svg" viewBox="0 0 239.54 78.87"><defs><style>.cls-1{fill:#f7faff;}.cls-2{fill:none;stroke:#f7faff;stroke-miterlimit:10;}</style></defs><path class="cls-1" d="M231.07,365.13a2.28,2.28,0,0,0-2.09,1,15.21,15.21,0,0,0-.93,1.69l-12.73,28c-.43,1-.79,1.72-1.08,2.3a3.31,3.31,0,0,0-.43,1.22.89.89,0,0,0,.18.58,2.76,2.76,0,0,0,.46.43v1.29h-11v-1.29a1,1,0,0,0,.65-1,4.58,4.58,0,0,0-.54-1.47l-1.33-2.77L189.28,367a2.38,2.38,0,0,0-1-1.15,9.66,9.66,0,0,0-1.87-.72v-1.29h12.87v1.29a2.09,2.09,0,0,0-1,.25,1,1,0,0,0-.47,1,4.92,4.92,0,0,0,.61,2c.41.81.9,1.82,1.48,3l9.2,19.77,9-19.48c.58-1.25,1.12-2.37,1.62-3.35a5.64,5.64,0,0,0,.75-2.05c0-.76-.67-1.15-2-1.15v-1.29h12.59Z" transform="translate(-186.41 -349.61)"/><path class="cls-1" d="M266.38,376.71c0-.91-.75-1.37-2.23-1.37H246.6v7.19h11.07a6.14,6.14,0,0,0,1.8-.18c.38-.11.58-.44.58-1h1.29V389H259.9a.68.68,0,0,0-.57-1,10.64,10.64,0,0,0-2.23-.18H246.6v8.48H265a2.54,2.54,0,0,0,1.44-.39,1.22,1.22,0,0,0,.57-1.05h1.3v7.55H267c0-.43-.19-.67-.57-.71a11.49,11.49,0,0,0-1.44-.08H238.62v-1.29a1.26,1.26,0,0,0,.72-.25,1,1,0,0,0,.36-.83v-26.9a1,1,0,0,0-.36-.82,1.26,1.26,0,0,0-.72-.25V370h25.53c1.48,0,2.23-.43,2.23-1.29h1.29v8Z" transform="translate(-186.41 -349.61)"/><path class="cls-1" d="M280.69,390.66c0,.19,0,.4,0,.61s0,.45,0,.69a2.48,2.48,0,0,0,1.37,2,13,13,0,0,0,3.27,1.51,31.3,31.3,0,0,0,3.81,1,17.2,17.2,0,0,0,3,.36,24.76,24.76,0,0,0,2.48-.14,14.1,14.1,0,0,0,2.91-.61,7.24,7.24,0,0,0,2.45-1.3,2.69,2.69,0,0,0,1-2.19,2.41,2.41,0,0,0-1.76-2.3,19.66,19.66,0,0,0-4.42-1.12c-1.78-.26-3.69-.52-5.75-.79A29.44,29.44,0,0,1,283.2,387a11.63,11.63,0,0,1-4.42-2.59,6.3,6.3,0,0,1-1.76-4.78,8.6,8.6,0,0,1,3.81-7.34q3.81-2.73,10.72-2.73a26.73,26.73,0,0,1,5.78.54,27.47,27.47,0,0,1,4.07,1.19,28.31,28.31,0,0,1,2.69,1.18,3.92,3.92,0,0,0,1.55.54,1.64,1.64,0,0,0,.86-.18,7.39,7.39,0,0,1,.72-.39l.79.79L304.42,380l-1.3-.43c0-.29-.09-.58-.14-.87a1.48,1.48,0,0,0-.65-.86,12.2,12.2,0,0,0-4.46-2.09,24.74,24.74,0,0,0-6.76-.86,19.76,19.76,0,0,0-2.73.18,9.3,9.3,0,0,0-2.3.61,4.13,4.13,0,0,0-1.58,1.12,2.5,2.5,0,0,0-.58,1.69,2.35,2.35,0,0,0,1.76,2.26,20.5,20.5,0,0,0,4.43,1.08q2.65.4,5.75.79a28.63,28.63,0,0,1,5.75,1.33,11.44,11.44,0,0,1,4.43,2.74,6.78,6.78,0,0,1,1.76,5,8.29,8.29,0,0,1-1.55,5.18A11,11,0,0,1,302.4,400a15.67,15.67,0,0,1-5.07,1.51,40.41,40.41,0,0,1-5.21.36,25.47,25.47,0,0,1-4.85-.47,40.9,40.9,0,0,1-4.39-1.08c-1.32-.4-2.43-.79-3.34-1.15a7.7,7.7,0,0,0-1.66-.54,1.11,1.11,0,0,0-.86.43l-1-.71,3.31-8.06Z" transform="translate(-186.41 -349.61)"/><path class="cls-1" d="M326.14,400.37a1.2,1.2,0,0,0,.71-.25.94.94,0,0,0,.36-.83v-24h-9.34a2.13,2.13,0,0,0-1.08.29,1,1,0,0,0-.51.94H315V368.3h1.29a1.56,1.56,0,0,0,.51,1.36,1.8,1.8,0,0,0,1.08.36h25.6a1.84,1.84,0,0,0,1.08-.36,1.58,1.58,0,0,0,.5-1.36h1.29v8.27h-1.29a1,1,0,0,0-.5-.94,2.19,2.19,0,0,0-1.08-.29h-9.35v24q0,1.08,1.29,1.08v1.29h-9.27Z" transform="translate(-186.41 -349.61)"/><path class="cls-1" d="M349.72,400.37a2.19,2.19,0,0,0,1.41-.83,6.85,6.85,0,0,0,.82-1.26l10.72-23.37c.29-.67.51-1.21.68-1.62a3,3,0,0,0,.25-1.18q0-.44-.18-.54l-.39-.25V370h10.86v1.3a2,2,0,0,1-.47.21c-.17.05-.25.24-.25.58a2.42,2.42,0,0,0,.32,1c.22.41.44.88.68,1.4L385.82,399a2.64,2.64,0,0,0,.8.94,3.29,3.29,0,0,0,.93.43v1.29H377.34v-1.07a1.6,1.6,0,0,0,.75-.22.81.81,0,0,0,.4-.79,2,2,0,0,0-.15-.79c-.09-.24-.21-.55-.35-.94l-1.95-4.1H360.65l-2,3.89c-.19.38-.35.73-.47,1a2.35,2.35,0,0,0-.18.83q0,.57.36.72a3,3,0,0,0,1,.14v1.29h-9.64Zm24-11.94-5.82-12.08-5.11,12.08Z" transform="translate(-186.41 -349.61)"/><path class="cls-1" d="M404.52,370v1.3c-1.1,0-1.65.36-1.65,1.07v23.95h19.42a2.48,2.48,0,0,0,1.43-.39,1.28,1.28,0,0,0,.58-1.12h1.29v7.55H424.3a.58.58,0,0,0-.58-.64,11.2,11.2,0,0,0-1.43-.08h-28.2v-1.29c1.25,0,1.87-.36,1.87-1.08v-26.9c0-.71-.62-1.07-1.87-1.07V370Z" transform="translate(-186.41 -349.61)"/><path class="cls-1" d="M245.05,426a.39.39,0,0,0,0,.18.56.56,0,0,0,.24.4,2.41,2.41,0,0,0,.64.38,4.89,4.89,0,0,0,.89.29,5,5,0,0,0,1,.11,3.55,3.55,0,0,0,1.9-.39,1.17,1.17,0,0,0,.59-1,.76.76,0,0,0-.15-.48.88.88,0,0,0-.4-.3,2.42,2.42,0,0,0-.59-.15,5.64,5.64,0,0,0-.73,0h-1.35a4.46,4.46,0,0,1-1.31-.18,2.12,2.12,0,0,1-1-.57,1.65,1.65,0,0,1-.38-1.19,1.6,1.6,0,0,1,.27-.91,2.45,2.45,0,0,1,.76-.7,4.17,4.17,0,0,1,1.13-.46,5.69,5.69,0,0,1,1.41-.16,5.19,5.19,0,0,1,1,.08,5.35,5.35,0,0,1,.76.18,4.61,4.61,0,0,1,.53.18,1,1,0,0,0,.34.08.4.4,0,0,0,.22,0,.86.86,0,0,0,.14-.13l.17.07-.76,1.59-.16-.09a.62.62,0,0,0,0-.18c0-.07-.06-.15-.17-.24a2.17,2.17,0,0,0-.47-.27,3.73,3.73,0,0,0-.73-.22,4.42,4.42,0,0,0-.92-.09,3.72,3.72,0,0,0-1.78.36,1.06,1.06,0,0,0-.66.94.61.61,0,0,0,.15.43.87.87,0,0,0,.4.24,2.06,2.06,0,0,0,.6.12q.33,0,.72,0l1.36,0a4.77,4.77,0,0,1,1.3.22,2.21,2.21,0,0,1,1,.62,1.83,1.83,0,0,1,.39,1.26,1.72,1.72,0,0,1-.23.85,2.17,2.17,0,0,1-.69.73,3.57,3.57,0,0,1-1.13.5,6.91,6.91,0,0,1-2.85.06,5.31,5.31,0,0,1-.94-.28,5.83,5.83,0,0,1-.64-.29,1,1,0,0,0-.4-.13.43.43,0,0,0-.29.17l-.14-.08.75-1.6Z" transform="translate(-186.41 -349.61)"/><path class="cls-1" d="M258.81,423.2a.27.27,0,0,0-.34-.33h-2.15v4.76a.57.57,0,0,0,.06.32c0,.05.14.07.28.07v.17h-1.6V428c.14,0,.24,0,.28-.07a.57.57,0,0,0,.06-.32v-4.76h-2.14c-.14,0-.24,0-.28.07a.37.37,0,0,0-.07.26h-.17v-1.44h.17a.34.34,0,0,0,.07.25c0,.06.14.08.28.08h5.21c.13,0,.23,0,.27-.08a.34.34,0,0,0,.07-.25H259v1.44Z" transform="translate(-186.41 -349.61)"/><path class="cls-1" d="M261,422.64a.47.47,0,0,0-.07-.31c0-.05-.12-.07-.25-.07v-.17h5.58c.14,0,.23,0,.28-.08a.34.34,0,0,0,.07-.25h.16v1.44h-.16a.37.37,0,0,0-.07-.26.39.39,0,0,0-.28-.07h-4.35v1.8h3.06a.39.39,0,0,0,.28-.08.34.34,0,0,0,.07-.25h.17v1.44h-.17a.37.37,0,0,0-.07-.26.39.39,0,0,0-.28-.08h-3.06v2h4.5c.14,0,.24,0,.28-.07a.37.37,0,0,0,.07-.26h.17v1.4h-.17a.3.3,0,0,0-.07-.24.55.55,0,0,0-.28-.05h-5.73V428c.13,0,.21,0,.25-.07a.49.49,0,0,0,.07-.32Z" transform="translate(-186.41 -349.61)"/><path class="cls-1" d="M269.41,422.64a.56.56,0,0,0-.06-.31c0-.05-.13-.07-.26-.07v-.17h5.59c.14,0,.23,0,.28-.08a.39.39,0,0,0,.07-.25h.16v1.44H275a.43.43,0,0,0-.07-.26.39.39,0,0,0-.28-.07h-4.35v1.8h3.06a.28.28,0,0,0,.35-.33h.16v1.44h-.16a.43.43,0,0,0-.07-.26.39.39,0,0,0-.28-.08h-3.06v2h4.5a.39.39,0,0,0,.28-.07.37.37,0,0,0,.07-.26h.16v1.4h-.16a.3.3,0,0,0-.07-.24.58.58,0,0,0-.28-.05h-5.74V428c.13,0,.22,0,.26-.07a.57.57,0,0,0,.06-.32Z" transform="translate(-186.41 -349.61)"/><path class="cls-1" d="M283.47,428.45a.29.29,0,0,0-.07-.21.58.58,0,0,0-.28-.05h-5.56V428a.41.41,0,0,0,.29-.07.57.57,0,0,0,.06-.32v-5a.56.56,0,0,0-.06-.31.41.41,0,0,0-.29-.07v-.17h1.55v.17c-.14,0-.24,0-.28.07a.56.56,0,0,0-.06.31v4.77h4.35a.35.35,0,0,0,.28-.09.6.6,0,0,0,.07-.32h.16v1.45Z" transform="translate(-186.41 -349.61)"/><path class="cls-1" d="M290.1,426a.58.58,0,0,0,0,.18.56.56,0,0,0,.24.4,2.58,2.58,0,0,0,.64.38,5,5,0,0,0,.9.29,4.88,4.88,0,0,0,1,.11,3.52,3.52,0,0,0,1.9-.39,1.14,1.14,0,0,0,.59-1,.83.83,0,0,0-.14-.48.94.94,0,0,0-.4-.3,2.51,2.51,0,0,0-.6-.15,5.64,5.64,0,0,0-.73,0h-1.35a4.51,4.51,0,0,1-1.31-.18,2.09,2.09,0,0,1-1-.57,1.66,1.66,0,0,1-.39-1.19,1.53,1.53,0,0,1,.28-.91,2.3,2.3,0,0,1,.75-.7,4.31,4.31,0,0,1,1.13-.46,5.74,5.74,0,0,1,1.41-.16,5.3,5.3,0,0,1,1,.08,5.18,5.18,0,0,1,.75.18,4.61,4.61,0,0,1,.53.18,1.07,1.07,0,0,0,.35.08.42.42,0,0,0,.22,0l.14-.13.16.07-.76,1.59-.15-.09a.77.77,0,0,0,0-.18c0-.07-.05-.15-.17-.24a2,2,0,0,0-.47-.27,3.62,3.62,0,0,0-.72-.22,4.52,4.52,0,0,0-.93-.09,3.75,3.75,0,0,0-1.78.36,1.05,1.05,0,0,0-.65.94.6.6,0,0,0,.14.43.93.93,0,0,0,.4.24,2.06,2.06,0,0,0,.6.12c.22,0,.47,0,.73,0l1.35,0a4.85,4.85,0,0,1,1.31.22,2.23,2.23,0,0,1,1,.62,1.83,1.83,0,0,1,.39,1.26,1.72,1.72,0,0,1-.23.85,2.07,2.07,0,0,1-.69.73,3.57,3.57,0,0,1-1.13.5,6,6,0,0,1-1.55.18,6.12,6.12,0,0,1-1.3-.12,5.91,5.91,0,0,1-1.57-.57,1.05,1.05,0,0,0-.41-.13.45.45,0,0,0-.29.17l-.13-.08.74-1.6Z" transform="translate(-186.41 -349.61)"/><path class="cls-1" d="M299.1,422.64a.56.56,0,0,0-.06-.31.41.41,0,0,0-.29-.07v-.17h3.72q2.07,0,2.07,1.71a1.5,1.5,0,0,1-.16.7,1.81,1.81,0,0,1-.44.55,2,2,0,0,1-.62.35,2.1,2.1,0,0,1-.74.13H300v2.1a.57.57,0,0,0,.06.32c0,.05.14.07.28.07v.17h-1.55V428A.41.41,0,0,0,299,428a.57.57,0,0,0,.06-.32Zm3.41,2.11a1.22,1.22,0,0,0,.85-.26,1,1,0,0,0,.27-.72.82.82,0,0,0-.33-.73,1.72,1.72,0,0,0-1-.23H300v1.94Z" transform="translate(-186.41 -349.61)"/><path class="cls-1" d="M306.77,422.64a.56.56,0,0,0-.06-.31c0-.05-.12-.07-.25-.07v-.17H312c.14,0,.23,0,.28-.08a.39.39,0,0,0,.07-.25h.16v1.44h-.16a.43.43,0,0,0-.07-.26.39.39,0,0,0-.28-.07h-4.35v1.8h3.06a.39.39,0,0,0,.28-.08.34.34,0,0,0,.07-.25h.16v1.44h-.16a.37.37,0,0,0-.07-.26.39.39,0,0,0-.28-.08h-3.06v2h4.5a.39.39,0,0,0,.28-.07.37.37,0,0,0,.07-.26h.17v1.4h-.17a.3.3,0,0,0-.07-.24.58.58,0,0,0-.28-.05h-5.73V428c.13,0,.21,0,.25-.07a.57.57,0,0,0,.06-.32Z" transform="translate(-186.41 -349.61)"/><path class="cls-1" d="M319.73,423.81a.45.45,0,0,0,0-.11v-.13q0-.07-.18-.21a2.11,2.11,0,0,0-.48-.26,3.93,3.93,0,0,0-.66-.23,3.12,3.12,0,0,0-.74-.09,3,3,0,0,0-1.07.19,2.66,2.66,0,0,0-.81.51,2.14,2.14,0,0,0-.5.76,2.34,2.34,0,0,0-.17.91,2.19,2.19,0,0,0,.17.9,1.91,1.91,0,0,0,.5.72,2.37,2.37,0,0,0,.77.47,2.76,2.76,0,0,0,1,.17,3.52,3.52,0,0,0,1-.11,2.85,2.85,0,0,0,.72-.27,1.61,1.61,0,0,0,.44-.32.41.41,0,0,0,.15-.24.66.66,0,0,0,0-.28l.14-.08,1,1.27-.16.12a.76.76,0,0,0-.16-.11l-.1,0a.73.73,0,0,0-.34.14,5.35,5.35,0,0,1-.56.3,4.56,4.56,0,0,1-.82.3,4.78,4.78,0,0,1-1.15.12,4.34,4.34,0,0,1-1.32-.19,2.85,2.85,0,0,1-1.07-.58,2.77,2.77,0,0,1-.73-1,3.25,3.25,0,0,1-.26-1.33,3.13,3.13,0,0,1,.27-1.33,2.89,2.89,0,0,1,.74-1,3.49,3.49,0,0,1,1.1-.62,4.12,4.12,0,0,1,1.33-.21,5.4,5.4,0,0,1,1,.07,4.46,4.46,0,0,1,.81.22,3.49,3.49,0,0,1,.45.18.87.87,0,0,0,.28.08.3.3,0,0,0,.22-.15l.17,0-.68,1.43Z" transform="translate(-186.41 -349.61)"/><path class="cls-1" d="M322.85,428a.41.41,0,0,0,.29-.07.57.57,0,0,0,.06-.32v-5a.56.56,0,0,0-.06-.31.41.41,0,0,0-.29-.07v-.17h1.55v.17c-.14,0-.24,0-.28.07a.56.56,0,0,0-.06.31v5a.57.57,0,0,0,.06.32c0,.05.14.07.28.07v.17h-1.55Z" transform="translate(-186.41 -349.61)"/><path class="cls-1" d="M326.2,428a.38.38,0,0,0,.3-.09,1.83,1.83,0,0,0,.15-.25l2.19-5a.93.93,0,0,0,.07-.24.17.17,0,0,0-.08-.12.52.52,0,0,0-.27-.07v-.14h2.24v.17a.76.76,0,0,0-.21,0,.13.13,0,0,0-.1.13.32.32,0,0,0,0,.14l.06.14,2.37,5a.59.59,0,0,0,.13.19.38.38,0,0,0,.3.09v.17h-1.74V428a.85.85,0,0,0,.33,0,.14.14,0,0,0,.08-.12.43.43,0,0,0,0-.17l0-.14-.57-1.16H328l-.47,1.05c0,.08-.07.16-.12.24a.38.38,0,0,0-.06.18.14.14,0,0,0,.09.12.66.66,0,0,0,.29,0v.17H326.2Zm2.15-2.41h2.7l-1.4-2.91Z" transform="translate(-186.41 -349.61)"/><path class="cls-1" d="M340.85,428.45a.25.25,0,0,0-.07-.21.53.53,0,0,0-.27-.05H335V428c.15,0,.24,0,.28-.07a.56.56,0,0,0,.07-.32v-5a.54.54,0,0,0-.07-.31c0-.05-.13-.07-.28-.07v-.17h1.55v.17c-.15,0-.24,0-.28.07a.56.56,0,0,0-.06.31v4.77h4.35a.32.32,0,0,0,.27-.09.52.52,0,0,0,.07-.32H341v1.45Z" transform="translate(-186.41 -349.61)"/><path class="cls-1" d="M347.77,423.2a.37.37,0,0,0-.07-.26.39.39,0,0,0-.28-.07h-2.15v4.76a.49.49,0,0,0,.07.32c0,.05.13.07.28.07v.17H344V428c.15,0,.25,0,.29-.07a.57.57,0,0,0,.06-.32v-4.76h-2.15a.39.39,0,0,0-.28.07.43.43,0,0,0-.07.26h-.16v-1.44h.16a.39.39,0,0,0,.07.25c.05.06.14.08.28.08h5.21c.14,0,.23,0,.28-.08a.34.34,0,0,0,.07-.25h.16v1.44Z" transform="translate(-186.41 -349.61)"/><path class="cls-1" d="M349.8,428c.15,0,.25,0,.29-.07a.57.57,0,0,0,.06-.32v-5a.56.56,0,0,0-.06-.31c0-.05-.14-.07-.29-.07v-.17h1.56v.17c-.15,0-.25,0-.29.07a.56.56,0,0,0-.06.31v5a.57.57,0,0,0,.06.32c0,.05.14.07.29.07v.17H349.8Z" transform="translate(-186.41 -349.61)"/><path class="cls-1" d="M354.52,422.64a.47.47,0,0,0-.07-.31c0-.05-.12-.07-.25-.07v-.17h5.58c.14,0,.23,0,.28-.08a.34.34,0,0,0,.07-.25h.17v1.44h-.17a.37.37,0,0,0-.07-.26.39.39,0,0,0-.28-.07h-4.35v1.8h3.06a.37.37,0,0,0,.28-.08.34.34,0,0,0,.07-.25H359v1.44h-.17a.37.37,0,0,0-.07-.26.37.37,0,0,0-.28-.08h-3.06v2h4.51a.27.27,0,0,0,.34-.33h.17v1.4h-.17a.3.3,0,0,0-.07-.24.53.53,0,0,0-.27-.05H354.2V428c.13,0,.21,0,.25-.07a.49.49,0,0,0,.07-.32Z" transform="translate(-186.41 -349.61)"/><path class="cls-1" d="M362.82,426.48a1.5,1.5,0,0,0,0,.18c0,.08.07.16.22.26a2.25,2.25,0,0,0,.56.27,6.4,6.4,0,0,0,.82.22,5,5,0,0,0,1,.09,3.49,3.49,0,0,0,1.49-.26.79.79,0,0,0,.54-.73.65.65,0,0,0-.37-.62,3,3,0,0,0-.92-.26c-.37-.05-.77-.09-1.2-.11a6.31,6.31,0,0,1-1.2-.17,2.16,2.16,0,0,1-.92-.46,1.18,1.18,0,0,1-.37-1,1.66,1.66,0,0,1,.22-.89,1.81,1.81,0,0,1,.57-.6,2.63,2.63,0,0,1,.84-.33,4.62,4.62,0,0,1,1-.1,5.54,5.54,0,0,1,1,.07,4.87,4.87,0,0,1,.71.18,4.94,4.94,0,0,1,.48.17.87.87,0,0,0,.26.08.16.16,0,0,0,.11,0,.38.38,0,0,0,.11-.16l.18.07-.51,1.36-.16-.07a.14.14,0,0,1,0-.06v-.11c0-.07-.06-.15-.18-.23a2.94,2.94,0,0,0-.5-.24,5.64,5.64,0,0,0-.71-.18,5.31,5.31,0,0,0-.81-.07,3.41,3.41,0,0,0-.87.09,1.4,1.4,0,0,0-.52.24.79.79,0,0,0-.26.33,1,1,0,0,0-.07.38.6.6,0,0,0,.37.58,3.31,3.31,0,0,0,.92.24c.37.05.77.08,1.2.1a7.2,7.2,0,0,1,1.2.18,2.2,2.2,0,0,1,.92.45,1.17,1.17,0,0,1,.37.93,1.62,1.62,0,0,1-.72,1.47,4.33,4.33,0,0,1-2.3.46,5.92,5.92,0,0,1-1-.08,6,6,0,0,1-.78-.18l-.58-.19a1.06,1.06,0,0,0-.34-.09.19.19,0,0,0-.17.07.39.39,0,0,0-.08.14l-.17-.06.54-1.4Z" transform="translate(-186.41 -349.61)"/><line class="cls-2" x1="52.21" y1="75.04" y2="75.04"/><line class="cls-2" x1="239.54" y1="75.04" x2="187.34" y2="75.04"/><line class="cls-2" y1="0.5" x2="239.54" y2="0.5"/></svg>