<svg id="White_-_Summit" data-name="White - Summit" xmlns="http://www.w3.org/2000/svg" viewBox="0 0 376.45 249.53"><defs><style>.cls-1{fill:#f7faff;}</style></defs><g id="Layer_1" data-name="Layer 1"><path class="cls-1" d="M180.36,474.62a3.69,3.69,0,1,1-.35-7.38H431.32a3.69,3.69,0,1,1,.35,7.38H180.36Z" transform="translate(-117.78 -271.24)"/><path class="cls-1" d="M258,520.76a3.69,3.69,0,0,1,0-7.38h95.75a3.69,3.69,0,1,1,.34,7.38H258Z" transform="translate(-117.78 -271.24)"/><path class="cls-1" d="M220.49,497.69a3.69,3.69,0,0,1,0-7.38H391.18a3.69,3.69,0,1,1,.34,7.38h-171Z" transform="translate(-117.78 -271.24)"/><path class="cls-1" d="M490.37,373.34H275.1l-12.42-10L291,338.42l30.9,25a3.7,3.7,0,0,0,4.84-.2l59.87-52.43,58.62,47.4a3.68,3.68,0,1,0,4.61-5.74l-61-49.31h0a3.67,3.67,0,0,0-4.72.1l-28.95,25.33-49.7-36.3a3.7,3.7,0,0,0-4.66,0L238,343.39l-19.36-15.67a3.68,3.68,0,0,0-4.83.2l-51.92,45.44H121.3a3.69,3.69,0,0,0,0,7.38h41.94a3.71,3.71,0,0,0,2.42-.91l50.77-44.42,54.84,44.36a3.7,3.7,0,0,0,2.52,1H490.36a3.69,3.69,0,0,0,.34-7.38h-.34ZM243.88,348.1l59.4-48.34,46.24,33.77-25.38,22.2-30.9-25h0a3.69,3.69,0,0,0-4.74.1l-31.62,27.77Z" transform="translate(-117.78 -271.24)"/><path class="cls-1" d="M362,271.29a13.57,13.57,0,0,0-1.41-.05c-3.53,0-5.21,1.52-7.15,3.83-1.93-2.31-3.63-3.83-7.14-3.83a10,10,0,0,0-1.42.07c-3,.3-6.57,3.1-7,8.44v1.79c.4,5.12,4.26,11.43,15.56,19.35,11.29-7.92,15.16-14.24,15.56-19.35v-1.8C368.6,274.39,365.08,271.59,362,271.29Z" transform="translate(-117.78 -271.24)"/></g><g id="Summit"><path class="cls-1" d="M165.1,411.69a17.22,17.22,0,0,0-7.38-2.22c-3.69,0-6.05,1.89-6.05,4.43,0,2.81,3,4.38,6.79,5.8,7,2.73,9.54,6,9.45,10.24-.14,5.64-5.21,8.87-11.21,8.87a17,17,0,0,1-10.41-3.46l1.93-3.73a14.35,14.35,0,0,0,8.2,2.95c3.55,0,6.64-1.8,6.64-4.52,0-3.18-3.36-4.52-7.79-6.45-5.25-2.31-8.48-4.94-8.48-9.68,0-4.24,3.46-8.76,10.48-8.76a22.84,22.84,0,0,1,9.36,2.49Zm23.74,23.78a8.66,8.66,0,0,1-7,3.33,8.16,8.16,0,0,1-8.48-8.35V417.9H178v11.86a5,5,0,0,0,4.68,5.25h.43a5.3,5.3,0,0,0,5.26-5.21V417.9h4.57v20.25h-3Zm14.29-15.32c.69-1.43,3.23-2.87,5.71-2.87a7.15,7.15,0,0,1,6.74,3.79,7.25,7.25,0,0,1,6.45-3.79c4.71,0,7.48,3.23,7.48,7.8v13.09h-4.57V425.66c0-3.23-2.12-4.52-4.2-4.52a4.21,4.21,0,0,0-4,4.38s0,.06,0,.09v12.54H212V425.7c0-3.27-2.08-4.56-4.15-4.56a4.22,4.22,0,0,0-4.21,4.25c0,.11,0,.21,0,.31v12.45H199.1V417.9h2.72Zm35.92,0c.69-1.43,3.23-2.87,5.71-2.87a7.15,7.15,0,0,1,6.74,3.79,7.24,7.24,0,0,1,6.45-3.79c4.7,0,7.47,3.23,7.47,7.8v13.09h-4.56V425.66c0-3.23-2.12-4.52-4.2-4.52a4.21,4.21,0,0,0-4,4.38.28.28,0,0,0,0,.09v12.54h-4.71V425.7c0-3.27-2.07-4.56-4.14-4.56a4.23,4.23,0,0,0-4.22,4.25c0,.11,0,.21,0,.31v12.45H235V417.9h2.73Zm34.6-12.6a3.29,3.29,0,0,1,3.28,3.27,3.25,3.25,0,0,1-6.5,0A3.29,3.29,0,0,1,273.65,407.55Zm-2.21,10.32H276v20.25h-4.52Zm18.13,3.65v9.54c0,2.68,1.65,3.56,3.36,3.56a7.35,7.35,0,0,0,2-.29l.55,3.65a21.29,21.29,0,0,1-3.73.41c-4.61,0-6.73-2.95-6.73-7.47v-9.37h-3.69v-.46l.46-3.19H285v-6.63l4.15-.65h.42v7.26h5.76v3.65Z" transform="translate(-117.78 -271.24)"/><path class="cls-1" d="M336.57,423.68H321.1v14.48h-4.84V405.78h4.84v13.87h15.47V405.78h4.84v32.37h-4.84ZM346.66,428c0-6.27,4.84-10.65,10.89-10.65a10.72,10.72,0,1,1-.1,21.43h0a10.48,10.48,0,0,1-10.8-10.16q0-.31,0-.63Zm17.06,0c0-4.48-3.09-7-6.27-7s-6.18,2.53-6.18,7,3.05,7.1,6.23,7.1,6.21-2.64,6.21-7.11ZM387,422.44a16,16,0,0,0-6.31-1.43c-1.71,0-4,.55-4,2.42,0,1.66,2.22,2.17,4.29,2.63,5.08.92,8.21,3.27,8.21,6.59,0,4.19-4.33,6.13-8.71,6.13-3.51,0-6.74-.81-8.3-1.8l1.24-3.69a14.52,14.52,0,0,0,6.92,1.85c1.7,0,4.56-.46,4.56-2.31s-2-2.35-4.66-2.9c-4.74-1-7.79-2.9-7.79-6.31,0-4.16,4.19-6.28,8.26-6.28a21.23,21.23,0,0,1,7.47,1.48ZM398.85,435v11.81l-4.15.6h-.41V417.91h2.77l1.24,3.55c1.38-2.49,4.7-4.15,7.79-4.15,5.49,0,9.64,4.34,9.64,10.69s-4.38,10.75-9.87,10.75c-3,0-6-1.57-7-3.74Zm12.22-7c0-4.33-2.86-7-6-7s-6.18,2.42-6.18,7c0,4.34,3.05,7,6.18,7s6-2.63,6-7Zm12.1-20.42a3.29,3.29,0,0,1,3.27,3.27,3.25,3.25,0,0,1-6.5,0,3.31,3.31,0,0,1,3.2-3.31ZM421,417.92h4.53v20.24H421Zm26.7,14.7,2.42,2.91a11.4,11.4,0,0,1-8.49,3.22,10.72,10.72,0,1,1,8.49-17.65l-2.73,2.72A7,7,0,0,0,442,421.1a6.89,6.89,0,0,0,.18,13.78,8.1,8.1,0,0,0,5.49-2.26Zm9.68-3.54c.17,2.9,2.8,5.94,7.26,5.94a12.71,12.71,0,0,0,6.13-1.84l1.71,3.18a14.93,14.93,0,0,1-8.35,2.42c-7,0-11.34-4.93-11.34-10.78a10.3,10.3,0,0,1,9.95-10.65h.42c5.53,0,10.28,4.24,9.82,11.76Zm11.06-3.18a5.22,5.22,0,0,0-5.26-5,5.76,5.76,0,0,0-5.53,5Z" transform="translate(-117.78 -271.24)"/></g></svg>