<svg id="white_-_www" data-name="white - www" xmlns="http://www.w3.org/2000/svg" viewBox="0 0 512 465.46"><defs><style>.cls-1{fill:#f7faff;}</style></defs><path class="cls-1" d="M461.19,360.54a7.5,7.5,0,0,0-9.62,4.48l-13.63,37.47L424.3,365a7.51,7.51,0,0,0-14.1,0l-13.63,37.47L382.93,365a7.5,7.5,0,0,0-14.1,5.13L389.52,427a7.49,7.49,0,0,0,14.09,0l13.64-37.47L430.89,427A7.49,7.49,0,0,0,445,427l20.69-56.83A7.51,7.51,0,0,0,461.19,360.54Zm67.18-33.38A233.51,233.51,0,0,0,492.2,256.5a7.49,7.49,0,0,0-1.27-1.69,233.57,233.57,0,0,0-43.35-43.53,230.53,230.53,0,0,0-141.58-48h0A233.28,233.28,0,0,0,197.65,190a7.5,7.5,0,1,0,7,13.27,218,218,0,0,1,81.29-24c-20.69,20.71-39.72,46-55.54,73.42H142.2A217.94,217.94,0,0,1,175,222.1a7.5,7.5,0,1,0-9-12A233.3,233.3,0,0,0,121,254.88a7.5,7.5,0,0,0-1.11,1.46,232.79,232.79,0,0,0-36.27,70.82A36,36,0,0,0,50,363v66a36,36,0,0,0,33.64,35.83A233.26,233.26,0,0,0,119.8,535.5a7.49,7.49,0,0,0,1.27,1.69,233.93,233.93,0,0,0,43.35,43.54,232.9,232.9,0,0,0,259.21,16.13,7.5,7.5,0,1,0-7.6-12.94,217.19,217.19,0,0,1-89.95,28.88c20.69-20.72,39.71-46,55.54-73.43h88.27a220.38,220.38,0,0,1-25.26,24.53,7.5,7.5,0,0,0,9.56,11.56,231.8,231.8,0,0,0,74.18-110.62A36,36,0,0,0,562,429V363a36,36,0,0,0-33.64-35.83Zm-46.59-59.53a218.26,218.26,0,0,1,30.8,59.45H414.52a364.66,364.66,0,0,0-24.67-59.45Zm-43.34-44.45a217,217,0,0,1,31.35,29.45H381.62c-15.84-27.44-34.87-52.73-55.57-73.45a215.28,215.28,0,0,1,112.39,44ZM306,180.77c21.52,19.49,41.51,44.39,58.22,71.86H247.78c16.71-27.47,36.7-52.37,58.22-71.86Zm-66.88,86.86H372.88a355.88,355.88,0,0,1,25.89,59.45H213.23a355.88,355.88,0,0,1,25.89-59.45Zm-108.91,0h91.94a364.66,364.66,0,0,0-24.67,59.45H99.42A218.22,218.22,0,0,1,130.21,267.63Zm0,256.74a218.26,218.26,0,0,1-30.8-59.45h98.06a364.66,364.66,0,0,0,24.67,59.45Zm43.34,44.46a217.59,217.59,0,0,1-31.35-29.46h88.18c15.82,27.43,34.86,52.73,55.55,73.45A215.29,215.29,0,0,1,173.56,568.83ZM306,611.23c-21.52-19.48-41.51-44.38-58.22-71.86H364.22C347.51,566.85,327.52,591.75,306,611.23Zm66.88-86.86H239.12a355.93,355.93,0,0,1-25.9-59.45H398.78a355.93,355.93,0,0,1-25.9,59.45Zm109.05,0H389.85a364.66,364.66,0,0,0,24.67-59.45h98.07A216.22,216.22,0,0,1,481.93,524.37ZM547,429a20.93,20.93,0,0,1-20.91,20.91H85.91A20.93,20.93,0,0,1,65,429V363a20.92,20.92,0,0,1,20.91-20.9H526.09A20.92,20.92,0,0,1,547,363ZM349.94,360.54a7.5,7.5,0,0,0-9.62,4.48l-13.63,37.47L313.05,365a7.51,7.51,0,0,0-14.1,0l-13.63,37.47L271.68,365a7.5,7.5,0,0,0-14.1,5.13L278.27,427a7.49,7.49,0,0,0,14.09,0L306,389.52,319.64,427a7.49,7.49,0,0,0,14.09,0l20.69-56.83a7.51,7.51,0,0,0-4.48-9.61Zm-111.26,0a7.5,7.5,0,0,0-9.61,4.48l-13.63,37.47L201.8,365a7.51,7.51,0,0,0-14.1,0l-13.63,37.47L160.43,365a7.5,7.5,0,0,0-14.1,5.13L167,427a7.49,7.49,0,0,0,14.09,0l13.64-37.47L208.39,427a7.49,7.49,0,0,0,14.09,0l20.69-56.83a7.5,7.5,0,0,0-4.49-9.61Z" transform="translate(-50 -163.27)"/></svg>