<svg id="White_-_PGT" data-name="White - PGT" xmlns="http://www.w3.org/2000/svg" viewBox="0 0 384.98 93.57"><defs><style>.cls-1{fill:#f7faff;}</style></defs><path class="cls-1" d="M174.94,362.72h-8.56v9.76a1,1,0,0,1-1.09,1.08,1.06,1.06,0,0,1-1.08-1.08V350.3a1.08,1.08,0,0,1,1.08-1.08h9.65c4.76,0,7.4,2.92,7.4,6.75S179.7,362.72,174.94,362.72Zm.43-11.55h-9v9.6h9a4.8,4.8,0,0,0,0-9.6Z" transform="translate(-113.51 -349.22)"/><path class="cls-1" d="M204.67,372.22a.91.91,0,0,1,.13.44.86.86,0,0,1-.93.87.88.88,0,0,1-.86-.61l-2.62-5.86h-11l-2.63,5.86a.87.87,0,0,1-.86.61.86.86,0,0,1-.93-.87,1,1,0,0,1,.13-.44l8.9-19.88a.92.92,0,0,1,.89-.64.93.93,0,0,1,.9.64Zm-5-6.85-4.77-11-4.77,11Z" transform="translate(-113.51 -349.22)"/><path class="cls-1" d="M222.75,371.54a.87.87,0,1,1,0,1.73H210.34a.94.94,0,0,1-1-1V352.66a1,1,0,1,1,1.92,0v18.88Z" transform="translate(-113.51 -349.22)"/><path class="cls-1" d="M246,372.22a1,1,0,0,1,.12.44.86.86,0,0,1-.92.87.9.9,0,0,1-.87-.61l-2.62-5.86h-11l-2.62,5.86a.9.9,0,0,1-.87.61.87.87,0,0,1-.93-.87,1,1,0,0,1,.13-.44l8.9-19.88a.95.95,0,0,1,1.79,0Zm-5-6.85-4.77-11-4.76,11Z" transform="translate(-113.51 -349.22)"/><path class="cls-1" d="M267.07,355.61a1.11,1.11,0,0,1,.26.64.85.85,0,0,1-.9.86.75.75,0,0,1-.67-.35,8,8,0,0,0-6.88-3.42c-5.53,0-8.73,4.41-8.73,9.28s3.2,9.28,8.73,9.28a8.05,8.05,0,0,0,6.88-3.43.77.77,0,0,1,.67-.35.85.85,0,0,1,.9.86,1.11,1.11,0,0,1-.26.64,9.88,9.88,0,0,1-8.19,4c-6.46,0-10.65-5-10.65-11s4.19-11,10.65-11A9.9,9.9,0,0,1,267.07,355.61Z" transform="translate(-113.51 -349.22)"/><path class="cls-1" d="M273.09,373.53a1,1,0,0,1-1-1V352.66a1,1,0,0,1,1.92,0v19.91A1,1,0,0,1,273.09,373.53Z" transform="translate(-113.51 -349.22)"/><path class="cls-1" d="M289.67,373.66a10.71,10.71,0,0,1-10.76-11c0-6,4.36-11,10.76-11s10.68,5.08,10.68,11S296.06,373.66,289.67,373.66Zm0-20.39c-5.51,0-8.84,4.45-8.84,9.35s3.33,9.34,8.84,9.34,8.76-4.45,8.76-9.34S295.17,353.27,289.67,353.27Z" transform="translate(-113.51 -349.22)"/><path class="cls-1" d="M312.45,373.66a13.39,13.39,0,0,1-8.06-2.66,1.09,1.09,0,0,1-.45-.8.77.77,0,0,1,.8-.77,1.35,1.35,0,0,1,.77.29,11.81,11.81,0,0,0,6.91,2.27c3.84,0,6-1.57,6-3.93s-2.4-3.52-6.14-4.64c-6.33-1.92-7.93-3.91-7.93-6.4,0-3.72,3.68-5.44,7.93-5.44a12,12,0,0,1,6.88,2,.81.81,0,0,1,.45.68.83.83,0,0,1-.86.83,1.13,1.13,0,0,1-.52-.16,11.37,11.37,0,0,0-6-1.73c-3.33,0-6,1.12-6,3.78,0,2.17,1.76,3.26,6,4.67,5,1.66,8,2.75,8,6.3S317.38,373.66,312.45,373.66Z" transform="translate(-113.51 -349.22)"/><path class="cls-1" d="M135.29,410.62a13,13,0,0,1-9.75,4.05c-8.09,0-12-6.25-12-12.46,0-7,5-12.46,12-12.46a11.37,11.37,0,0,1,8.31,3.36,1.12,1.12,0,0,1,.28.75.91.91,0,0,1-1,.94,1,1,0,0,1-.76-.29,9.48,9.48,0,0,0-6.86-2.78c-6,0-9.86,4.81-9.86,10.48s3.36,10.62,9.93,10.62a11.19,11.19,0,0,0,7.87-3.07v-5.35h-6.89a.94.94,0,1,1,0-1.88h7.94a1,1,0,0,1,1.05,1v6.25A1.21,1.21,0,0,1,135.29,410.62Z" transform="translate(-113.51 -349.22)"/><path class="cls-1" d="M159.07,413.18a1.12,1.12,0,0,1,.13.45.86.86,0,0,1-.93.86.9.9,0,0,1-.87-.61L154.78,408h-11l-2.62,5.85a.88.88,0,0,1-.86.61.85.85,0,0,1-.93-.86,1,1,0,0,1,.13-.45l8.89-19.87a.92.92,0,0,1,.9-.64.9.9,0,0,1,.89.64Zm-5-6.85-4.76-11-4.77,11Z" transform="translate(-113.51 -349.22)"/><path class="cls-1" d="M175.64,404.6l4.16,8.51a1,1,0,0,1,.13.45.93.93,0,0,1-.93.93.89.89,0,0,1-.89-.54l-4.51-9.19h-7.91v8.77a.92.92,0,0,1-1,1,1,1,0,0,1-1-1V393.88a1,1,0,0,1,1-1h9.19c4.22,0,6.56,2.53,6.56,5.92A5.55,5.55,0,0,1,175.64,404.6Zm-1.34-10h-8.61V403h8.61a4.19,4.19,0,1,0,0-8.38Z" transform="translate(-113.51 -349.22)"/><path class="cls-1" d="M200.19,414.23H186.14a.85.85,0,0,1-.93-.83,1.12,1.12,0,0,1,.23-.61l12.83-18.2h-12a.84.84,0,1,1,0-1.67H199.9a.81.81,0,0,1,.9.84,1,1,0,0,1-.26.64l-12.73,18.17h12.38a.85.85,0,0,1,.86.83A.83.83,0,0,1,200.19,414.23Z" transform="translate(-113.51 -349.22)"/><path class="cls-1" d="M224.22,413.18a1.12,1.12,0,0,1,.13.45.85.85,0,0,1-.93.86.87.87,0,0,1-.86-.61L219.93,408h-11l-2.62,5.85a.88.88,0,0,1-.86.61.85.85,0,0,1-.93-.86,1,1,0,0,1,.13-.45l8.89-19.87a.92.92,0,0,1,.9-.64.9.9,0,0,1,.89.64Zm-5-6.85-4.77-11-4.77,11Z" transform="translate(-113.51 -349.22)"/><path class="cls-1" d="M294.61,414a1.06,1.06,0,0,1-1.08-1.08V391.58h-7.8a1,1,0,1,1,0-1.95H303.5a1,1,0,0,1,0,1.95h-7.8v21.31A1.07,1.07,0,0,1,294.61,414Z" transform="translate(-113.51 -349.22)"/><path class="cls-1" d="M308.17,393.07a1,1,0,0,1,1.92,0v8.87h13v-8.87a1,1,0,1,1,1.92,0V413a1,1,0,0,1-1.92,0V403.7h-13V413a1,1,0,0,1-1.92,0Z" transform="translate(-113.51 -349.22)"/><path class="cls-1" d="M340.42,414.06c-6.4,0-10.75-5.08-10.75-11s4.35-11,10.75-11,10.69,5.08,10.69,11S346.82,414.06,340.42,414.06Zm0-20.38c-5.5,0-8.83,4.45-8.83,9.35s3.33,9.34,8.83,9.34,8.77-4.45,8.77-9.34S345.93,393.68,340.42,393.68Z" transform="translate(-113.51 -349.22)"/><path class="cls-1" d="M375,392.72a.91.91,0,0,1,.9-.61.89.89,0,0,1,.92.93v20a.89.89,0,0,1-.92.93.91.91,0,0,1-.9-.93V396.69l-7.77,16.67a1,1,0,0,1-1.8,0l-7.77-16.67V413a.91.91,0,0,1-.9.93.9.9,0,0,1-.93-.93V393a.9.9,0,0,1,.93-.93.91.91,0,0,1,.9.61l8.67,18.53Z" transform="translate(-113.51 -349.22)"/><path class="cls-1" d="M392.39,404.34h-7.58V413a.93.93,0,0,1-1,1,.94.94,0,0,1-1-1V393.33a1,1,0,0,1,1-1h8.54c4.22,0,6.56,2.59,6.56,6S396.61,404.34,392.39,404.34Zm.38-10.24h-8v8.51h8a4.26,4.26,0,1,0,0-8.51Z" transform="translate(-113.51 -349.22)"/><path class="cls-1" d="M410.5,414.06a13.38,13.38,0,0,1-8.06-2.65,1.09,1.09,0,0,1-.45-.8.77.77,0,0,1,.8-.77,1.35,1.35,0,0,1,.77.29,11.81,11.81,0,0,0,6.91,2.27c3.84,0,6-1.57,6-3.93s-2.4-3.52-6.15-4.64c-6.33-1.92-7.93-3.91-7.93-6.4,0-3.72,3.68-5.44,7.93-5.44a12,12,0,0,1,6.88,2,.81.81,0,0,1,.45.68.83.83,0,0,1-.86.83,1.12,1.12,0,0,1-.51-.16,11.43,11.43,0,0,0-6-1.73c-3.33,0-6,1.12-6,3.78,0,2.17,1.76,3.26,6.05,4.67,5,1.66,8,2.75,8,6.3S415.43,414.06,410.5,414.06Z" transform="translate(-113.51 -349.22)"/><path class="cls-1" d="M432.61,414.06c-6.4,0-10.75-5.08-10.75-11s4.35-11,10.75-11,10.69,5.08,10.69,11S439,414.06,432.61,414.06Zm0-20.38c-5.5,0-8.83,4.45-8.83,9.35s3.33,9.34,8.83,9.34,8.77-4.45,8.77-9.34S438.12,393.68,432.61,393.68Z" transform="translate(-113.51 -349.22)"/><path class="cls-1" d="M464.13,413.94a.83.83,0,0,1-.73-.42l-13.57-17.89V413a.91.91,0,0,1-1.82,0V393a.9.9,0,0,1,1-.93.92.92,0,0,1,.73.42l13.54,17.92V393a.91.91,0,1,1,1.82,0v20A.87.87,0,0,1,464.13,413.94Z" transform="translate(-113.51 -349.22)"/><path class="cls-1" d="M273.13,420.61a7.9,7.9,0,0,1-3.78,1c-3.21,0-4.81-1.83-7.16-5.1a15.07,15.07,0,0,1-11.24,5.1c-6.64,0-11.34-4.3-11.34-10.2s4.52-9.45,10.89-12.84c-2.18-3.15-4.42-6.42-4.42-9.85,0-4.07,2.58-6.65,7.28-6.65,4.47,0,7.22,2.69,7.22,6.65,0,3.15-2.18,6.87-8.25,10.31,8.48,13,10,15.3,10,15.3a34,34,0,0,0,4.41-8.42.55.55,0,0,1,.57-.4.59.59,0,0,1,.64.57,1,1,0,0,1-.06.35,35.61,35.61,0,0,1-4.82,8.94c2.18,3.15,3.73,5,6.25,5a7,7,0,0,0,3.15-.69,1.38,1.38,0,0,1,.58-.17.5.5,0,0,1,.45.52A.65.65,0,0,1,273.13,420.61Zm-22.06-21c-5.85,3.44-10,6.31-10,11.69,0,5.74,4.75,9,9.85,9a14,14,0,0,0,10.49-5C261.5,415.34,253.59,403.53,251.07,399.63Zm2.23-16.33c-3.49,0-5.79,1.83-5.79,5.5,0,3.1,2.13,5.9,4.19,9.06,4.64-2.47,7.45-5.79,7.45-9.17S256.68,383.3,253.3,383.3Z" transform="translate(-113.51 -349.22)"/><path class="cls-1" d="M482.2,409.94h-3.35v3.81a.41.41,0,0,1-.42.43.42.42,0,0,1-.42-.43v-8.67a.42.42,0,0,1,.42-.43h3.77a2.66,2.66,0,1,1,0,5.29Zm.17-4.52h-3.52v3.76h3.52a1.88,1.88,0,0,0,0-3.76Z" transform="translate(-113.51 -349.22)"/><path class="cls-1" d="M485.13,413a.6.6,0,1,1-.6.6A.6.6,0,0,1,485.13,413Z" transform="translate(-113.51 -349.22)"/><path class="cls-1" d="M495.42,406.27a.45.45,0,0,1,.12.28.38.38,0,0,1-.4.38.32.32,0,0,1-.29-.16,3.57,3.57,0,0,0-3-1.51,4.11,4.11,0,0,0,0,8.2,3.57,3.57,0,0,0,3-1.51.32.32,0,0,1,.29-.16.38.38,0,0,1,.4.38.47.47,0,0,1-.12.28,4.34,4.34,0,0,1-3.61,1.78,4.88,4.88,0,0,1,0-9.75A4.35,4.35,0,0,1,495.42,406.27Z" transform="translate(-113.51 -349.22)"/><path class="cls-1" d="M497.9,413a.6.6,0,1,1-.6.6A.6.6,0,0,1,497.9,413Z" transform="translate(-113.51 -349.22)"/><path class="cls-1" d="M200,442.11a.47.47,0,0,1,.06.21.4.4,0,0,1-.43.4.42.42,0,0,1-.41-.28L198,439.7h-5.15l-1.22,2.74a.41.41,0,0,1-.41.28.4.4,0,0,1-.43-.4.47.47,0,0,1,.06-.21l4.16-9.29a.44.44,0,0,1,.84,0Zm-2.35-3.2-2.22-5.13-2.23,5.13Z" transform="translate(-113.51 -349.22)"/><path class="cls-1" d="M206.92,442.72a.44.44,0,0,1-.45-.45v-8.82h-3.23a.41.41,0,0,1,0-.81h7.36a.41.41,0,0,1,0,.81h-3.23v8.82A.44.44,0,0,1,206.92,442.72Z" transform="translate(-113.51 -349.22)"/><path class="cls-1" d="M218.57,442.72a.44.44,0,0,1-.45-.45v-8.82h-3.23a.41.41,0,0,1,0-.81h7.36a.41.41,0,0,1,0,.81H219v8.82A.44.44,0,0,1,218.57,442.72Z" transform="translate(-113.51 -349.22)"/><path class="cls-1" d="M231,442.78a5.16,5.16,0,1,1,5-5.16A5,5,0,0,1,231,442.78Zm0-9.52a4.37,4.37,0,1,0,4.1,4.36A4.14,4.14,0,0,0,231,433.26Z" transform="translate(-113.51 -349.22)"/><path class="cls-1" d="M246.68,438.1l1.94,4a.47.47,0,0,1,.06.21.43.43,0,0,1-.43.43.43.43,0,0,1-.42-.25l-2.11-4.29H242v4.09a.43.43,0,0,1-.45.45.44.44,0,0,1-.45-.45v-9.18a.45.45,0,0,1,.45-.45h4.29a2.74,2.74,0,0,1,3.07,2.77A2.6,2.6,0,0,1,246.68,438.1Zm-.63-4.65h-4v3.92h4a2,2,0,1,0,0-3.92Z" transform="translate(-113.51 -349.22)"/><path class="cls-1" d="M261.86,442.72a.39.39,0,0,1-.35-.19l-6.34-8.36v8.13a.43.43,0,0,1-.85,0V433a.42.42,0,0,1,.45-.44.41.41,0,0,1,.34.2l6.33,8.37V433a.43.43,0,1,1,.85,0v9.34A.4.4,0,0,1,261.86,442.72Z" transform="translate(-113.51 -349.22)"/><path class="cls-1" d="M269,441.8h5.33a.4.4,0,0,1,0,.8h-5.78a.43.43,0,0,1-.44-.45v-9.06a.44.44,0,0,1,.44-.45h5.76a.41.41,0,1,1,0,.81H269v3.61h3.08a.4.4,0,1,1,0,.8H269Z" transform="translate(-113.51 -349.22)"/><path class="cls-1" d="M283.12,438.24v4a.45.45,0,1,1-.9,0v-4l-3.51-5.06a.48.48,0,0,1-.09-.25.39.39,0,0,1,.4-.41.45.45,0,0,1,.39.21l3.26,4.67,3.26-4.67a.46.46,0,0,1,.39-.21.39.39,0,0,1,.4.41.48.48,0,0,1-.09.25Z" transform="translate(-113.51 -349.22)"/><path class="cls-1" d="M294.54,442.78a6.28,6.28,0,0,1-3.77-1.24.53.53,0,0,1-.21-.37.36.36,0,0,1,.38-.36.69.69,0,0,1,.36.13,5.46,5.46,0,0,0,3.23,1.07c1.79,0,2.82-.74,2.82-1.84s-1.12-1.65-2.87-2.17c-3-.9-3.71-1.83-3.71-3,0-1.74,1.72-2.55,3.71-2.55a5.65,5.65,0,0,1,3.22,1,.37.37,0,0,1-.2.7.59.59,0,0,1-.24-.07,5.28,5.28,0,0,0-2.79-.81c-1.56,0-2.8.53-2.8,1.77,0,1,.82,1.52,2.83,2.18,2.35.78,3.75,1.29,3.75,2.95S296.85,442.78,294.54,442.78Z" transform="translate(-113.51 -349.22)"/><path class="cls-1" d="M319.23,442.11a.47.47,0,0,1,.06.21.4.4,0,0,1-.43.4.41.41,0,0,1-.41-.28l-1.22-2.74h-5.15l-1.23,2.74a.43.43,0,0,1-.83-.12.47.47,0,0,1,.06-.21l4.15-9.29a.44.44,0,0,1,.84,0Zm-2.35-3.2-2.23-5.13-2.23,5.13Z" transform="translate(-113.51 -349.22)"/><path class="cls-1" d="M326.11,442.72a.44.44,0,0,1-.45-.45v-8.82h-3.23a.41.41,0,0,1,0-.81h7.36a.41.41,0,0,1,0,.81h-3.23v8.82A.44.44,0,0,1,326.11,442.72Z" transform="translate(-113.51 -349.22)"/><path class="cls-1" d="M348.51,441.8a.4.4,0,1,1,0,.8H342.7a.43.43,0,0,1-.44-.45V433a.45.45,0,1,1,.89,0v8.83Z" transform="translate(-113.51 -349.22)"/><path class="cls-1" d="M362.31,442.11a.47.47,0,0,1,.06.21.43.43,0,0,1-.84.12l-1.23-2.74h-5.14l-1.23,2.74a.41.41,0,0,1-.4.28.4.4,0,0,1-.43-.4.47.47,0,0,1,.06-.21l4.15-9.29a.44.44,0,0,1,.84,0Zm-2.35-3.2-2.23-5.13-2.23,5.13Z" transform="translate(-113.51 -349.22)"/><path class="cls-1" d="M375.41,441.09l2.73-8.25a.38.38,0,0,1,.39-.32.4.4,0,0,1,.42.41,1.68,1.68,0,0,1,0,.18l-3.11,9.33a.43.43,0,0,1-.81,0l-2.81-8.29-2.81,8.29a.38.38,0,0,1-.4.28.39.39,0,0,1-.41-.28l-3.11-9.33a1.68,1.68,0,0,1,0-.18.4.4,0,0,1,.42-.41.37.37,0,0,1,.39.32l2.74,8.25,2.81-8.25a.4.4,0,0,1,.4-.32.39.39,0,0,1,.4.32Z" transform="translate(-113.51 -349.22)"/></svg>