<svg id="white_-_linkedin" data-name="white - linkedin" xmlns="http://www.w3.org/2000/svg" viewBox="0 0 452 452"><defs><style>.cls-1{fill:#f7faff;}</style></defs><path class="cls-1" d="M470,622H142c-33.79,0-62-28.21-62-62V516H92v44c0,27.25,22.75,50,50,50H470c27.25,0,50-22.75,50-50V232c0-27.26-22.74-50-50-50H418V170h52c33.79,0,62,28.21,62,62V560C532,593.79,503.79,622,470,622ZM92,508H80V496H92Zm0-20H80V232c0-33.79,28.21-62,62-62H410v12H142c-27.25,0-50,22.75-50,50Z" transform="translate(-80 -170)"/><path class="cls-1" d="M234.69,535.71h-62.4a6,6,0,0,1-6-6V351.43a6,6,0,0,1,6-6h62.4a6,6,0,0,1,6,6V529.71A6,6,0,0,1,234.69,535.71Zm-56.4-12h50.4V357.43h-50.4Z" transform="translate(-80 -170)"/><path class="cls-1" d="M203.49,330.69a37.2,37.2,0,1,1,37.2-37.2h0A37.25,37.25,0,0,1,203.49,330.69Zm0-62.4a25.2,25.2,0,1,0,25.2,25.2h0a25.22,25.22,0,0,0-25.2-25.19Z" transform="translate(-80 -170)"/><path class="cls-1" d="M439.71,535.71H386.23a6,6,0,0,1-6-6V442.84c0-29.76-6.93-41.36-24.7-41.36-19.6,0-27.23,11.17-27.23,39.86v88.37a6,6,0,0,1-6,6h-52a6,6,0,0,1-6-6V351.43a6,6,0,0,1,6-6h49.71a6,6,0,0,1,6,6v8.34c11.07-9.25,27.47-14.34,47.2-14.34,28.48,0,47.85,8.09,59.21,24.73,11.74,17.19,13.24,41.93,13.24,61.57v98a6,6,0,0,1-6,6Zm-47.48-12h41.48v-92c0-47.05-9.89-74.3-60.45-74.3-22.64,0-40.26,7.8-47.14,20.86a6,6,0,0,1-5.3,3.2h-.77a6,6,0,0,1-6-6V357.43H276.34V523.71h40V441.34c0-14.18,0-51.86,39.24-51.86,36.69,0,36.69,38.77,36.69,53.36Z" transform="translate(-80 -170)"/></svg>