<svg id="White_-_MCG" data-name="White - MCG" xmlns="http://www.w3.org/2000/svg" viewBox="0 0 422.77 232.42"><defs><style>.cls-1,.cls-2,.cls-3,.cls-4,.cls-6,.cls-8{isolation:isolate;}.cls-2,.cls-3,.cls-4,.cls-6,.cls-8{font-size:28.25px;font-family:TransatTextLight, Transat Text;}.cls-2,.cls-3,.cls-4,.cls-6,.cls-8,.cls-9{fill:#f7faff;}.cls-3{letter-spacing:-0.02em;}.cls-4{letter-spacing:-0.03em;}.cls-5{letter-spacing:-0.01em;}.cls-6{letter-spacing:-0.02em;}.cls-7{letter-spacing:-0.01em;}.cls-8{letter-spacing:-0.02em;}</style></defs><g class="cls-1"><text class="cls-2" transform="translate(6.69 224.96)">MEDIC</text><text class="cls-3" transform="translate(93.58 224.96)">AL</text><text class="cls-2" transform="translate(127.23 224.96)"> </text><text class="cls-4" transform="translate(134.29 224.96)">C</text><text class="cls-2" transform="translate(153.84 224.96)">OMP<tspan class="cls-5" x="62.66" y="0">L</tspan></text><text class="cls-6" transform="translate(231.04 224.96)">I<tspan class="cls-7" x="6.67" y="0">A</tspan></text><text class="cls-2" transform="translate(257.37 224.96)">NCE G</text><text class="cls-8" transform="translate(342.76 224.96)">R</text><text class="cls-2" transform="translate(359.01 224.96)">OUP</text></g><path class="cls-9" d="M512.51,279.79h-413a4.88,4.88,0,0,0-4.86,4.88V447.5a4.86,4.86,0,0,0,4.86,4.87H375.9A17.52,17.52,0,0,0,393.15,467h26.29a5.79,5.79,0,0,0,5.79-5.79v-2.9a2.9,2.9,0,0,0-5.79,0v2.9H393.5a11.93,11.93,0,0,1-12-10.58,11.7,11.7,0,0,1,10.54-12.77c.37,0,.73-.05,1.1-.05h26.29v2.9a2.9,2.9,0,0,0,5.79,0v-2.9a5.79,5.79,0,0,0-5.79-5.79H393.15a17.5,17.5,0,0,0-17.25,14.59H100.38v-161H511.57v161H481.91a15.39,15.39,0,1,0,0,5.79h30.6a4.87,4.87,0,0,0,4.87-4.87V284.67A4.88,4.88,0,0,0,512.51,279.79ZM466.79,459.07a9.59,9.59,0,1,1,9.6-9.59,9.6,9.6,0,0,1-9.6,9.59Z" transform="translate(-94.62 -279.79)"/><path class="cls-9" d="M132.71,418.84V306.49h5.9l48.23,58.83,48.24-58.83h5.73V418.84H219.69v-62l-31.84,39.75h-1.92l-31.84-39v61.18Z" transform="translate(-94.62 -279.79)"/><path class="cls-9" d="M362.92,403.07c-6.85,7.25-19.9,18-44.26,18-32.8,0-58.6-24.76-58.6-57.91,0-34.85,28.67-57.25,59.55-57.25,22.92,0,36.14,10.25,43,16.56l-13,15.46c-4.63-4.57-15-12.94-29.61-12.94-21,0-36.78,16.88-36.78,38,0,20.5,14,38.64,37.06,38.64,12.89,0,24.52-7.1,29.62-12.46Z" transform="translate(-94.62 -279.79)"/><path class="cls-9" d="M439.33,359.69h40V402C464.8,416.79,449.36,421,431.68,421c-35.34,0-60.49-25.55-60.49-57.91,0-33.88,28-57.22,58.91-57.22,22.61,0,35.34,9,43.62,16.73l-13.38,15.3C455.09,332.73,446,325,430.88,325c-20.53,0-36.45,16.71-36.45,37.7C394.43,386.2,410,402,433,402c9.08,0,20.53-3.48,25.48-8.2V377.55H439.33Z" transform="translate(-94.62 -279.79)"/><path class="cls-9" d="M500.9,425.34a2.14,2.14,0,0,1-2.14,2.14h-5.62v5.62a2.16,2.16,0,0,1-4.3,0v-5.57h-5.61a2.15,2.15,0,1,1,0-4.29h5.61v-5.61a2.16,2.16,0,0,1,4.3,0v5.61h5.62A2.14,2.14,0,0,1,500.9,425.34Z" transform="translate(-94.62 -279.79)"/></svg>